G04 #@! TF.GenerationSoftware,KiCad,Pcbnew,5.1.5-52549c5~84~ubuntu16.04.1*
G04 #@! TF.CreationDate,2020-01-04T11:31:47+09:00*
G04 #@! TF.ProjectId,Akashi-01,416b6173-6869-42d3-9031-2e6b69636164,rev?*
G04 #@! TF.SameCoordinates,Original*
G04 #@! TF.FileFunction,Soldermask,Top*
G04 #@! TF.FilePolarity,Negative*
%FSLAX46Y46*%
G04 Gerber Fmt 4.6, Leading zero omitted, Abs format (unit mm)*
G04 Created by KiCad (PCBNEW 5.1.5-52549c5~84~ubuntu16.04.1) date 2020-01-04 11:31:47*
%MOMM*%
%LPD*%
G04 APERTURE LIST*
%ADD10C,0.100000*%
G04 APERTURE END LIST*
D10*
G36*
X122033512Y-105783927D02*
G01*
X122182812Y-105813624D01*
X122346784Y-105881544D01*
X122494354Y-105980147D01*
X122619853Y-106105646D01*
X122718456Y-106253216D01*
X122786376Y-106417188D01*
X122821000Y-106591259D01*
X122821000Y-106768741D01*
X122786376Y-106942812D01*
X122718456Y-107106784D01*
X122619853Y-107254354D01*
X122494354Y-107379853D01*
X122346784Y-107478456D01*
X122182812Y-107546376D01*
X122033512Y-107576073D01*
X122008742Y-107581000D01*
X121831258Y-107581000D01*
X121806488Y-107576073D01*
X121657188Y-107546376D01*
X121493216Y-107478456D01*
X121345646Y-107379853D01*
X121220147Y-107254354D01*
X121121544Y-107106784D01*
X121053624Y-106942812D01*
X121019000Y-106768741D01*
X121019000Y-106591259D01*
X121053624Y-106417188D01*
X121121544Y-106253216D01*
X121220147Y-106105646D01*
X121345646Y-105980147D01*
X121493216Y-105881544D01*
X121657188Y-105813624D01*
X121806488Y-105783927D01*
X121831258Y-105779000D01*
X122008742Y-105779000D01*
X122033512Y-105783927D01*
G37*
G36*
X180453512Y-105783927D02*
G01*
X180602812Y-105813624D01*
X180766784Y-105881544D01*
X180914354Y-105980147D01*
X181039853Y-106105646D01*
X181138456Y-106253216D01*
X181206376Y-106417188D01*
X181241000Y-106591259D01*
X181241000Y-106768741D01*
X181206376Y-106942812D01*
X181138456Y-107106784D01*
X181039853Y-107254354D01*
X180914354Y-107379853D01*
X180766784Y-107478456D01*
X180602812Y-107546376D01*
X180453512Y-107576073D01*
X180428742Y-107581000D01*
X180251258Y-107581000D01*
X180226488Y-107576073D01*
X180077188Y-107546376D01*
X179913216Y-107478456D01*
X179765646Y-107379853D01*
X179640147Y-107254354D01*
X179541544Y-107106784D01*
X179473624Y-106942812D01*
X179439000Y-106768741D01*
X179439000Y-106591259D01*
X179473624Y-106417188D01*
X179541544Y-106253216D01*
X179640147Y-106105646D01*
X179765646Y-105980147D01*
X179913216Y-105881544D01*
X180077188Y-105813624D01*
X180226488Y-105783927D01*
X180251258Y-105779000D01*
X180428742Y-105779000D01*
X180453512Y-105783927D01*
G37*
G36*
X182993512Y-105783927D02*
G01*
X183142812Y-105813624D01*
X183306784Y-105881544D01*
X183454354Y-105980147D01*
X183579853Y-106105646D01*
X183678456Y-106253216D01*
X183746376Y-106417188D01*
X183781000Y-106591259D01*
X183781000Y-106768741D01*
X183746376Y-106942812D01*
X183678456Y-107106784D01*
X183579853Y-107254354D01*
X183454354Y-107379853D01*
X183306784Y-107478456D01*
X183142812Y-107546376D01*
X182993512Y-107576073D01*
X182968742Y-107581000D01*
X182791258Y-107581000D01*
X182766488Y-107576073D01*
X182617188Y-107546376D01*
X182453216Y-107478456D01*
X182305646Y-107379853D01*
X182180147Y-107254354D01*
X182081544Y-107106784D01*
X182013624Y-106942812D01*
X181979000Y-106768741D01*
X181979000Y-106591259D01*
X182013624Y-106417188D01*
X182081544Y-106253216D01*
X182180147Y-106105646D01*
X182305646Y-105980147D01*
X182453216Y-105881544D01*
X182617188Y-105813624D01*
X182766488Y-105783927D01*
X182791258Y-105779000D01*
X182968742Y-105779000D01*
X182993512Y-105783927D01*
G37*
G36*
X119493512Y-105783927D02*
G01*
X119642812Y-105813624D01*
X119806784Y-105881544D01*
X119954354Y-105980147D01*
X120079853Y-106105646D01*
X120178456Y-106253216D01*
X120246376Y-106417188D01*
X120281000Y-106591259D01*
X120281000Y-106768741D01*
X120246376Y-106942812D01*
X120178456Y-107106784D01*
X120079853Y-107254354D01*
X119954354Y-107379853D01*
X119806784Y-107478456D01*
X119642812Y-107546376D01*
X119493512Y-107576073D01*
X119468742Y-107581000D01*
X119291258Y-107581000D01*
X119266488Y-107576073D01*
X119117188Y-107546376D01*
X118953216Y-107478456D01*
X118805646Y-107379853D01*
X118680147Y-107254354D01*
X118581544Y-107106784D01*
X118513624Y-106942812D01*
X118479000Y-106768741D01*
X118479000Y-106591259D01*
X118513624Y-106417188D01*
X118581544Y-106253216D01*
X118680147Y-106105646D01*
X118805646Y-105980147D01*
X118953216Y-105881544D01*
X119117188Y-105813624D01*
X119266488Y-105783927D01*
X119291258Y-105779000D01*
X119468742Y-105779000D01*
X119493512Y-105783927D01*
G37*
G36*
X129788228Y-105861703D02*
G01*
X129943100Y-105925853D01*
X130082481Y-106018985D01*
X130201015Y-106137519D01*
X130294147Y-106276900D01*
X130358297Y-106431772D01*
X130391000Y-106596184D01*
X130391000Y-106763816D01*
X130358297Y-106928228D01*
X130294147Y-107083100D01*
X130201015Y-107222481D01*
X130082481Y-107341015D01*
X129943100Y-107434147D01*
X129788228Y-107498297D01*
X129623816Y-107531000D01*
X129456184Y-107531000D01*
X129291772Y-107498297D01*
X129136900Y-107434147D01*
X128997519Y-107341015D01*
X128878985Y-107222481D01*
X128785853Y-107083100D01*
X128721703Y-106928228D01*
X128689000Y-106763816D01*
X128689000Y-106596184D01*
X128721703Y-106431772D01*
X128785853Y-106276900D01*
X128878985Y-106137519D01*
X128997519Y-106018985D01*
X129136900Y-105925853D01*
X129291772Y-105861703D01*
X129456184Y-105829000D01*
X129623816Y-105829000D01*
X129788228Y-105861703D01*
G37*
G36*
X137408228Y-105861703D02*
G01*
X137563100Y-105925853D01*
X137702481Y-106018985D01*
X137821015Y-106137519D01*
X137914147Y-106276900D01*
X137978297Y-106431772D01*
X138011000Y-106596184D01*
X138011000Y-106763816D01*
X137978297Y-106928228D01*
X137914147Y-107083100D01*
X137821015Y-107222481D01*
X137702481Y-107341015D01*
X137563100Y-107434147D01*
X137408228Y-107498297D01*
X137243816Y-107531000D01*
X137076184Y-107531000D01*
X136911772Y-107498297D01*
X136756900Y-107434147D01*
X136617519Y-107341015D01*
X136498985Y-107222481D01*
X136405853Y-107083100D01*
X136341703Y-106928228D01*
X136309000Y-106763816D01*
X136309000Y-106596184D01*
X136341703Y-106431772D01*
X136405853Y-106276900D01*
X136498985Y-106137519D01*
X136617519Y-106018985D01*
X136756900Y-105925853D01*
X136911772Y-105861703D01*
X137076184Y-105829000D01*
X137243816Y-105829000D01*
X137408228Y-105861703D01*
G37*
G36*
X145028228Y-105861703D02*
G01*
X145183100Y-105925853D01*
X145322481Y-106018985D01*
X145441015Y-106137519D01*
X145534147Y-106276900D01*
X145598297Y-106431772D01*
X145631000Y-106596184D01*
X145631000Y-106763816D01*
X145598297Y-106928228D01*
X145534147Y-107083100D01*
X145441015Y-107222481D01*
X145322481Y-107341015D01*
X145183100Y-107434147D01*
X145028228Y-107498297D01*
X144863816Y-107531000D01*
X144696184Y-107531000D01*
X144531772Y-107498297D01*
X144376900Y-107434147D01*
X144237519Y-107341015D01*
X144118985Y-107222481D01*
X144025853Y-107083100D01*
X143961703Y-106928228D01*
X143929000Y-106763816D01*
X143929000Y-106596184D01*
X143961703Y-106431772D01*
X144025853Y-106276900D01*
X144118985Y-106137519D01*
X144237519Y-106018985D01*
X144376900Y-105925853D01*
X144531772Y-105861703D01*
X144696184Y-105829000D01*
X144863816Y-105829000D01*
X145028228Y-105861703D01*
G37*
G36*
X152648228Y-105861703D02*
G01*
X152803100Y-105925853D01*
X152942481Y-106018985D01*
X153061015Y-106137519D01*
X153154147Y-106276900D01*
X153218297Y-106431772D01*
X153251000Y-106596184D01*
X153251000Y-106763816D01*
X153218297Y-106928228D01*
X153154147Y-107083100D01*
X153061015Y-107222481D01*
X152942481Y-107341015D01*
X152803100Y-107434147D01*
X152648228Y-107498297D01*
X152483816Y-107531000D01*
X152316184Y-107531000D01*
X152151772Y-107498297D01*
X151996900Y-107434147D01*
X151857519Y-107341015D01*
X151738985Y-107222481D01*
X151645853Y-107083100D01*
X151581703Y-106928228D01*
X151549000Y-106763816D01*
X151549000Y-106596184D01*
X151581703Y-106431772D01*
X151645853Y-106276900D01*
X151738985Y-106137519D01*
X151857519Y-106018985D01*
X151996900Y-105925853D01*
X152151772Y-105861703D01*
X152316184Y-105829000D01*
X152483816Y-105829000D01*
X152648228Y-105861703D01*
G37*
G36*
X168089271Y-103580103D02*
G01*
X168145635Y-103585654D01*
X168362600Y-103651470D01*
X168362602Y-103651471D01*
X168562555Y-103758347D01*
X168737818Y-103902182D01*
X168881653Y-104077445D01*
X168962522Y-104228742D01*
X168988530Y-104277400D01*
X169054346Y-104494365D01*
X169076569Y-104720000D01*
X169054346Y-104945635D01*
X169035921Y-105006375D01*
X168988529Y-105162602D01*
X168881653Y-105362555D01*
X168737818Y-105537818D01*
X168562555Y-105681653D01*
X168362602Y-105788529D01*
X168362600Y-105788530D01*
X168145635Y-105854346D01*
X168089271Y-105859897D01*
X167976545Y-105871000D01*
X167063455Y-105871000D01*
X166950729Y-105859897D01*
X166894365Y-105854346D01*
X166677400Y-105788530D01*
X166677398Y-105788529D01*
X166477445Y-105681653D01*
X166302182Y-105537818D01*
X166158347Y-105362555D01*
X166051471Y-105162602D01*
X166004080Y-105006375D01*
X165985654Y-104945635D01*
X165963431Y-104720000D01*
X165985654Y-104494365D01*
X166051470Y-104277400D01*
X166077478Y-104228742D01*
X166158347Y-104077445D01*
X166302182Y-103902182D01*
X166477445Y-103758347D01*
X166677398Y-103651471D01*
X166677400Y-103651470D01*
X166894365Y-103585654D01*
X166950729Y-103580103D01*
X167063455Y-103569000D01*
X167976545Y-103569000D01*
X168089271Y-103580103D01*
G37*
G36*
X180453512Y-103243927D02*
G01*
X180602812Y-103273624D01*
X180766784Y-103341544D01*
X180914354Y-103440147D01*
X181039853Y-103565646D01*
X181138456Y-103713216D01*
X181206376Y-103877188D01*
X181241000Y-104051259D01*
X181241000Y-104228741D01*
X181206376Y-104402812D01*
X181138456Y-104566784D01*
X181039853Y-104714354D01*
X180914354Y-104839853D01*
X180766784Y-104938456D01*
X180602812Y-105006376D01*
X180453512Y-105036073D01*
X180428742Y-105041000D01*
X180251258Y-105041000D01*
X180226488Y-105036073D01*
X180077188Y-105006376D01*
X179913216Y-104938456D01*
X179765646Y-104839853D01*
X179640147Y-104714354D01*
X179541544Y-104566784D01*
X179473624Y-104402812D01*
X179439000Y-104228741D01*
X179439000Y-104051259D01*
X179473624Y-103877188D01*
X179541544Y-103713216D01*
X179640147Y-103565646D01*
X179765646Y-103440147D01*
X179913216Y-103341544D01*
X180077188Y-103273624D01*
X180226488Y-103243927D01*
X180251258Y-103239000D01*
X180428742Y-103239000D01*
X180453512Y-103243927D01*
G37*
G36*
X119493512Y-103243927D02*
G01*
X119642812Y-103273624D01*
X119806784Y-103341544D01*
X119954354Y-103440147D01*
X120079853Y-103565646D01*
X120178456Y-103713216D01*
X120246376Y-103877188D01*
X120281000Y-104051259D01*
X120281000Y-104228741D01*
X120246376Y-104402812D01*
X120178456Y-104566784D01*
X120079853Y-104714354D01*
X119954354Y-104839853D01*
X119806784Y-104938456D01*
X119642812Y-105006376D01*
X119493512Y-105036073D01*
X119468742Y-105041000D01*
X119291258Y-105041000D01*
X119266488Y-105036073D01*
X119117188Y-105006376D01*
X118953216Y-104938456D01*
X118805646Y-104839853D01*
X118680147Y-104714354D01*
X118581544Y-104566784D01*
X118513624Y-104402812D01*
X118479000Y-104228741D01*
X118479000Y-104051259D01*
X118513624Y-103877188D01*
X118581544Y-103713216D01*
X118680147Y-103565646D01*
X118805646Y-103440147D01*
X118953216Y-103341544D01*
X119117188Y-103273624D01*
X119266488Y-103243927D01*
X119291258Y-103239000D01*
X119468742Y-103239000D01*
X119493512Y-103243927D01*
G37*
G36*
X122033512Y-103243927D02*
G01*
X122182812Y-103273624D01*
X122346784Y-103341544D01*
X122494354Y-103440147D01*
X122619853Y-103565646D01*
X122718456Y-103713216D01*
X122786376Y-103877188D01*
X122821000Y-104051259D01*
X122821000Y-104228741D01*
X122786376Y-104402812D01*
X122718456Y-104566784D01*
X122619853Y-104714354D01*
X122494354Y-104839853D01*
X122346784Y-104938456D01*
X122182812Y-105006376D01*
X122033512Y-105036073D01*
X122008742Y-105041000D01*
X121831258Y-105041000D01*
X121806488Y-105036073D01*
X121657188Y-105006376D01*
X121493216Y-104938456D01*
X121345646Y-104839853D01*
X121220147Y-104714354D01*
X121121544Y-104566784D01*
X121053624Y-104402812D01*
X121019000Y-104228741D01*
X121019000Y-104051259D01*
X121053624Y-103877188D01*
X121121544Y-103713216D01*
X121220147Y-103565646D01*
X121345646Y-103440147D01*
X121493216Y-103341544D01*
X121657188Y-103273624D01*
X121806488Y-103243927D01*
X121831258Y-103239000D01*
X122008742Y-103239000D01*
X122033512Y-103243927D01*
G37*
G36*
X182993512Y-103243927D02*
G01*
X183142812Y-103273624D01*
X183306784Y-103341544D01*
X183454354Y-103440147D01*
X183579853Y-103565646D01*
X183678456Y-103713216D01*
X183746376Y-103877188D01*
X183781000Y-104051259D01*
X183781000Y-104228741D01*
X183746376Y-104402812D01*
X183678456Y-104566784D01*
X183579853Y-104714354D01*
X183454354Y-104839853D01*
X183306784Y-104938456D01*
X183142812Y-105006376D01*
X182993512Y-105036073D01*
X182968742Y-105041000D01*
X182791258Y-105041000D01*
X182766488Y-105036073D01*
X182617188Y-105006376D01*
X182453216Y-104938456D01*
X182305646Y-104839853D01*
X182180147Y-104714354D01*
X182081544Y-104566784D01*
X182013624Y-104402812D01*
X181979000Y-104228741D01*
X181979000Y-104051259D01*
X182013624Y-103877188D01*
X182081544Y-103713216D01*
X182180147Y-103565646D01*
X182305646Y-103440147D01*
X182453216Y-103341544D01*
X182617188Y-103273624D01*
X182766488Y-103243927D01*
X182791258Y-103239000D01*
X182968742Y-103239000D01*
X182993512Y-103243927D01*
G37*
G36*
X174826564Y-100509389D02*
G01*
X175017833Y-100588615D01*
X175017835Y-100588616D01*
X175189973Y-100703635D01*
X175336365Y-100850027D01*
X175436556Y-100999973D01*
X175451385Y-101022167D01*
X175530611Y-101213436D01*
X175571000Y-101416484D01*
X175571000Y-101623516D01*
X175530611Y-101826564D01*
X175451385Y-102017833D01*
X175451384Y-102017835D01*
X175336365Y-102189973D01*
X175189973Y-102336365D01*
X175017835Y-102451384D01*
X175017834Y-102451385D01*
X175017833Y-102451385D01*
X174826564Y-102530611D01*
X174623516Y-102571000D01*
X174416484Y-102571000D01*
X174213436Y-102530611D01*
X174022167Y-102451385D01*
X174022166Y-102451385D01*
X174022165Y-102451384D01*
X173850027Y-102336365D01*
X173703635Y-102189973D01*
X173588616Y-102017835D01*
X173588615Y-102017833D01*
X173509389Y-101826564D01*
X173469000Y-101623516D01*
X173469000Y-101416484D01*
X173509389Y-101213436D01*
X173588615Y-101022167D01*
X173603445Y-100999973D01*
X173703635Y-100850027D01*
X173850027Y-100703635D01*
X174022165Y-100588616D01*
X174022167Y-100588615D01*
X174213436Y-100509389D01*
X174416484Y-100469000D01*
X174623516Y-100469000D01*
X174826564Y-100509389D01*
G37*
G36*
X160326564Y-100509389D02*
G01*
X160517833Y-100588615D01*
X160517835Y-100588616D01*
X160689973Y-100703635D01*
X160836365Y-100850027D01*
X160936556Y-100999973D01*
X160951385Y-101022167D01*
X161030611Y-101213436D01*
X161071000Y-101416484D01*
X161071000Y-101623516D01*
X161030611Y-101826564D01*
X160951385Y-102017833D01*
X160951384Y-102017835D01*
X160836365Y-102189973D01*
X160689973Y-102336365D01*
X160517835Y-102451384D01*
X160517834Y-102451385D01*
X160517833Y-102451385D01*
X160326564Y-102530611D01*
X160123516Y-102571000D01*
X159916484Y-102571000D01*
X159713436Y-102530611D01*
X159522167Y-102451385D01*
X159522166Y-102451385D01*
X159522165Y-102451384D01*
X159350027Y-102336365D01*
X159203635Y-102189973D01*
X159088616Y-102017835D01*
X159088615Y-102017833D01*
X159009389Y-101826564D01*
X158969000Y-101623516D01*
X158969000Y-101416484D01*
X159009389Y-101213436D01*
X159088615Y-101022167D01*
X159103445Y-100999973D01*
X159203635Y-100850027D01*
X159350027Y-100703635D01*
X159522165Y-100588616D01*
X159522167Y-100588615D01*
X159713436Y-100509389D01*
X159916484Y-100469000D01*
X160123516Y-100469000D01*
X160326564Y-100509389D01*
G37*
G36*
X182992043Y-100703635D02*
G01*
X183142812Y-100733624D01*
X183306784Y-100801544D01*
X183454354Y-100900147D01*
X183579853Y-101025646D01*
X183678456Y-101173216D01*
X183746376Y-101337188D01*
X183781000Y-101511259D01*
X183781000Y-101688741D01*
X183746376Y-101862812D01*
X183678456Y-102026784D01*
X183579853Y-102174354D01*
X183454354Y-102299853D01*
X183306784Y-102398456D01*
X183142812Y-102466376D01*
X182993512Y-102496073D01*
X182968742Y-102501000D01*
X182791258Y-102501000D01*
X182766488Y-102496073D01*
X182617188Y-102466376D01*
X182453216Y-102398456D01*
X182305646Y-102299853D01*
X182180147Y-102174354D01*
X182081544Y-102026784D01*
X182013624Y-101862812D01*
X181979000Y-101688741D01*
X181979000Y-101511259D01*
X182013624Y-101337188D01*
X182081544Y-101173216D01*
X182180147Y-101025646D01*
X182305646Y-100900147D01*
X182453216Y-100801544D01*
X182617188Y-100733624D01*
X182767957Y-100703635D01*
X182791258Y-100699000D01*
X182968742Y-100699000D01*
X182992043Y-100703635D01*
G37*
G36*
X180452043Y-100703635D02*
G01*
X180602812Y-100733624D01*
X180766784Y-100801544D01*
X180914354Y-100900147D01*
X181039853Y-101025646D01*
X181138456Y-101173216D01*
X181206376Y-101337188D01*
X181241000Y-101511259D01*
X181241000Y-101688741D01*
X181206376Y-101862812D01*
X181138456Y-102026784D01*
X181039853Y-102174354D01*
X180914354Y-102299853D01*
X180766784Y-102398456D01*
X180602812Y-102466376D01*
X180453512Y-102496073D01*
X180428742Y-102501000D01*
X180251258Y-102501000D01*
X180226488Y-102496073D01*
X180077188Y-102466376D01*
X179913216Y-102398456D01*
X179765646Y-102299853D01*
X179640147Y-102174354D01*
X179541544Y-102026784D01*
X179473624Y-101862812D01*
X179439000Y-101688741D01*
X179439000Y-101511259D01*
X179473624Y-101337188D01*
X179541544Y-101173216D01*
X179640147Y-101025646D01*
X179765646Y-100900147D01*
X179913216Y-100801544D01*
X180077188Y-100733624D01*
X180227957Y-100703635D01*
X180251258Y-100699000D01*
X180428742Y-100699000D01*
X180452043Y-100703635D01*
G37*
G36*
X119492043Y-100703635D02*
G01*
X119642812Y-100733624D01*
X119806784Y-100801544D01*
X119954354Y-100900147D01*
X120079853Y-101025646D01*
X120178456Y-101173216D01*
X120246376Y-101337188D01*
X120281000Y-101511259D01*
X120281000Y-101688741D01*
X120246376Y-101862812D01*
X120178456Y-102026784D01*
X120079853Y-102174354D01*
X119954354Y-102299853D01*
X119806784Y-102398456D01*
X119642812Y-102466376D01*
X119493512Y-102496073D01*
X119468742Y-102501000D01*
X119291258Y-102501000D01*
X119266488Y-102496073D01*
X119117188Y-102466376D01*
X118953216Y-102398456D01*
X118805646Y-102299853D01*
X118680147Y-102174354D01*
X118581544Y-102026784D01*
X118513624Y-101862812D01*
X118479000Y-101688741D01*
X118479000Y-101511259D01*
X118513624Y-101337188D01*
X118581544Y-101173216D01*
X118680147Y-101025646D01*
X118805646Y-100900147D01*
X118953216Y-100801544D01*
X119117188Y-100733624D01*
X119267957Y-100703635D01*
X119291258Y-100699000D01*
X119468742Y-100699000D01*
X119492043Y-100703635D01*
G37*
G36*
X122032043Y-100703635D02*
G01*
X122182812Y-100733624D01*
X122346784Y-100801544D01*
X122494354Y-100900147D01*
X122619853Y-101025646D01*
X122718456Y-101173216D01*
X122786376Y-101337188D01*
X122821000Y-101511259D01*
X122821000Y-101688741D01*
X122786376Y-101862812D01*
X122718456Y-102026784D01*
X122619853Y-102174354D01*
X122494354Y-102299853D01*
X122346784Y-102398456D01*
X122182812Y-102466376D01*
X122033512Y-102496073D01*
X122008742Y-102501000D01*
X121831258Y-102501000D01*
X121806488Y-102496073D01*
X121657188Y-102466376D01*
X121493216Y-102398456D01*
X121345646Y-102299853D01*
X121220147Y-102174354D01*
X121121544Y-102026784D01*
X121053624Y-101862812D01*
X121019000Y-101688741D01*
X121019000Y-101511259D01*
X121053624Y-101337188D01*
X121121544Y-101173216D01*
X121220147Y-101025646D01*
X121345646Y-100900147D01*
X121493216Y-100801544D01*
X121657188Y-100733624D01*
X121807957Y-100703635D01*
X121831258Y-100699000D01*
X122008742Y-100699000D01*
X122032043Y-100703635D01*
G37*
G36*
X126036564Y-99319389D02*
G01*
X126227833Y-99398615D01*
X126227835Y-99398616D01*
X126399973Y-99513635D01*
X126546365Y-99660027D01*
X126613067Y-99759853D01*
X126661385Y-99832167D01*
X126740611Y-100023436D01*
X126781000Y-100226484D01*
X126781000Y-100433516D01*
X126740611Y-100636564D01*
X126700407Y-100733625D01*
X126661384Y-100827835D01*
X126546365Y-100999973D01*
X126399973Y-101146365D01*
X126227835Y-101261384D01*
X126227834Y-101261385D01*
X126227833Y-101261385D01*
X126036564Y-101340611D01*
X125833516Y-101381000D01*
X125626484Y-101381000D01*
X125423436Y-101340611D01*
X125232167Y-101261385D01*
X125232166Y-101261385D01*
X125232165Y-101261384D01*
X125060027Y-101146365D01*
X124913635Y-100999973D01*
X124798616Y-100827835D01*
X124759593Y-100733625D01*
X124719389Y-100636564D01*
X124679000Y-100433516D01*
X124679000Y-100226484D01*
X124719389Y-100023436D01*
X124798615Y-99832167D01*
X124846934Y-99759853D01*
X124913635Y-99660027D01*
X125060027Y-99513635D01*
X125232165Y-99398616D01*
X125232167Y-99398615D01*
X125423436Y-99319389D01*
X125626484Y-99279000D01*
X125833516Y-99279000D01*
X126036564Y-99319389D01*
G37*
G36*
X160326564Y-98009389D02*
G01*
X160517833Y-98088615D01*
X160517835Y-98088616D01*
X160623172Y-98159000D01*
X160689973Y-98203635D01*
X160836365Y-98350027D01*
X160951385Y-98522167D01*
X161030611Y-98713436D01*
X161071000Y-98916484D01*
X161071000Y-99123516D01*
X161030611Y-99326564D01*
X160964246Y-99486784D01*
X160951384Y-99517835D01*
X160836365Y-99689973D01*
X160689973Y-99836365D01*
X160517835Y-99951384D01*
X160517834Y-99951385D01*
X160517833Y-99951385D01*
X160326564Y-100030611D01*
X160123516Y-100071000D01*
X159916484Y-100071000D01*
X159713436Y-100030611D01*
X159522167Y-99951385D01*
X159522166Y-99951385D01*
X159522165Y-99951384D01*
X159350027Y-99836365D01*
X159203635Y-99689973D01*
X159088616Y-99517835D01*
X159075754Y-99486784D01*
X159009389Y-99326564D01*
X158969000Y-99123516D01*
X158969000Y-98916484D01*
X159009389Y-98713436D01*
X159088615Y-98522167D01*
X159203635Y-98350027D01*
X159350027Y-98203635D01*
X159416828Y-98159000D01*
X159522165Y-98088616D01*
X159522167Y-98088615D01*
X159713436Y-98009389D01*
X159916484Y-97969000D01*
X160123516Y-97969000D01*
X160326564Y-98009389D01*
G37*
G36*
X122033512Y-98163927D02*
G01*
X122182812Y-98193624D01*
X122346784Y-98261544D01*
X122494354Y-98360147D01*
X122619853Y-98485646D01*
X122718456Y-98633216D01*
X122786376Y-98797188D01*
X122821000Y-98971259D01*
X122821000Y-99148741D01*
X122786376Y-99322812D01*
X122718456Y-99486784D01*
X122619853Y-99634354D01*
X122494354Y-99759853D01*
X122346784Y-99858456D01*
X122182812Y-99926376D01*
X122033512Y-99956073D01*
X122008742Y-99961000D01*
X121831258Y-99961000D01*
X121806488Y-99956073D01*
X121657188Y-99926376D01*
X121493216Y-99858456D01*
X121345646Y-99759853D01*
X121220147Y-99634354D01*
X121121544Y-99486784D01*
X121053624Y-99322812D01*
X121019000Y-99148741D01*
X121019000Y-98971259D01*
X121053624Y-98797188D01*
X121121544Y-98633216D01*
X121220147Y-98485646D01*
X121345646Y-98360147D01*
X121493216Y-98261544D01*
X121657188Y-98193624D01*
X121806488Y-98163927D01*
X121831258Y-98159000D01*
X122008742Y-98159000D01*
X122033512Y-98163927D01*
G37*
G36*
X182993512Y-98163927D02*
G01*
X183142812Y-98193624D01*
X183306784Y-98261544D01*
X183454354Y-98360147D01*
X183579853Y-98485646D01*
X183678456Y-98633216D01*
X183746376Y-98797188D01*
X183781000Y-98971259D01*
X183781000Y-99148741D01*
X183746376Y-99322812D01*
X183678456Y-99486784D01*
X183579853Y-99634354D01*
X183454354Y-99759853D01*
X183306784Y-99858456D01*
X183142812Y-99926376D01*
X182993512Y-99956073D01*
X182968742Y-99961000D01*
X182791258Y-99961000D01*
X182766488Y-99956073D01*
X182617188Y-99926376D01*
X182453216Y-99858456D01*
X182305646Y-99759853D01*
X182180147Y-99634354D01*
X182081544Y-99486784D01*
X182013624Y-99322812D01*
X181979000Y-99148741D01*
X181979000Y-98971259D01*
X182013624Y-98797188D01*
X182081544Y-98633216D01*
X182180147Y-98485646D01*
X182305646Y-98360147D01*
X182453216Y-98261544D01*
X182617188Y-98193624D01*
X182766488Y-98163927D01*
X182791258Y-98159000D01*
X182968742Y-98159000D01*
X182993512Y-98163927D01*
G37*
G36*
X180453512Y-98163927D02*
G01*
X180602812Y-98193624D01*
X180766784Y-98261544D01*
X180914354Y-98360147D01*
X181039853Y-98485646D01*
X181138456Y-98633216D01*
X181206376Y-98797188D01*
X181241000Y-98971259D01*
X181241000Y-99148741D01*
X181206376Y-99322812D01*
X181138456Y-99486784D01*
X181039853Y-99634354D01*
X180914354Y-99759853D01*
X180766784Y-99858456D01*
X180602812Y-99926376D01*
X180453512Y-99956073D01*
X180428742Y-99961000D01*
X180251258Y-99961000D01*
X180226488Y-99956073D01*
X180077188Y-99926376D01*
X179913216Y-99858456D01*
X179765646Y-99759853D01*
X179640147Y-99634354D01*
X179541544Y-99486784D01*
X179473624Y-99322812D01*
X179439000Y-99148741D01*
X179439000Y-98971259D01*
X179473624Y-98797188D01*
X179541544Y-98633216D01*
X179640147Y-98485646D01*
X179765646Y-98360147D01*
X179913216Y-98261544D01*
X180077188Y-98193624D01*
X180226488Y-98163927D01*
X180251258Y-98159000D01*
X180428742Y-98159000D01*
X180453512Y-98163927D01*
G37*
G36*
X119493512Y-98163927D02*
G01*
X119642812Y-98193624D01*
X119806784Y-98261544D01*
X119954354Y-98360147D01*
X120079853Y-98485646D01*
X120178456Y-98633216D01*
X120246376Y-98797188D01*
X120281000Y-98971259D01*
X120281000Y-99148741D01*
X120246376Y-99322812D01*
X120178456Y-99486784D01*
X120079853Y-99634354D01*
X119954354Y-99759853D01*
X119806784Y-99858456D01*
X119642812Y-99926376D01*
X119493512Y-99956073D01*
X119468742Y-99961000D01*
X119291258Y-99961000D01*
X119266488Y-99956073D01*
X119117188Y-99926376D01*
X118953216Y-99858456D01*
X118805646Y-99759853D01*
X118680147Y-99634354D01*
X118581544Y-99486784D01*
X118513624Y-99322812D01*
X118479000Y-99148741D01*
X118479000Y-98971259D01*
X118513624Y-98797188D01*
X118581544Y-98633216D01*
X118680147Y-98485646D01*
X118805646Y-98360147D01*
X118953216Y-98261544D01*
X119117188Y-98193624D01*
X119266488Y-98163927D01*
X119291258Y-98159000D01*
X119468742Y-98159000D01*
X119493512Y-98163927D01*
G37*
G36*
X161071000Y-97571000D02*
G01*
X158969000Y-97571000D01*
X158969000Y-95469000D01*
X161071000Y-95469000D01*
X161071000Y-97571000D01*
G37*
G36*
X174826564Y-95509389D02*
G01*
X175017833Y-95588615D01*
X175017835Y-95588616D01*
X175189973Y-95703635D01*
X175336365Y-95850027D01*
X175400256Y-95945646D01*
X175451385Y-96022167D01*
X175530611Y-96213436D01*
X175571000Y-96416484D01*
X175571000Y-96623516D01*
X175530611Y-96826564D01*
X175480815Y-96946782D01*
X175451384Y-97017835D01*
X175336365Y-97189973D01*
X175189973Y-97336365D01*
X175017835Y-97451384D01*
X175017834Y-97451385D01*
X175017833Y-97451385D01*
X174826564Y-97530611D01*
X174623516Y-97571000D01*
X174416484Y-97571000D01*
X174213436Y-97530611D01*
X174022167Y-97451385D01*
X174022166Y-97451385D01*
X174022165Y-97451384D01*
X173850027Y-97336365D01*
X173703635Y-97189973D01*
X173588616Y-97017835D01*
X173559185Y-96946782D01*
X173509389Y-96826564D01*
X173469000Y-96623516D01*
X173469000Y-96416484D01*
X173509389Y-96213436D01*
X173588615Y-96022167D01*
X173639745Y-95945646D01*
X173703635Y-95850027D01*
X173850027Y-95703635D01*
X174022165Y-95588616D01*
X174022167Y-95588615D01*
X174213436Y-95509389D01*
X174416484Y-95469000D01*
X174623516Y-95469000D01*
X174826564Y-95509389D01*
G37*
G36*
X119493512Y-95623927D02*
G01*
X119642812Y-95653624D01*
X119806784Y-95721544D01*
X119954354Y-95820147D01*
X120079853Y-95945646D01*
X120178456Y-96093216D01*
X120246376Y-96257188D01*
X120281000Y-96431259D01*
X120281000Y-96608741D01*
X120246376Y-96782812D01*
X120178456Y-96946784D01*
X120079853Y-97094354D01*
X119954354Y-97219853D01*
X119806784Y-97318456D01*
X119642812Y-97386376D01*
X119493512Y-97416073D01*
X119468742Y-97421000D01*
X119291258Y-97421000D01*
X119266488Y-97416073D01*
X119117188Y-97386376D01*
X118953216Y-97318456D01*
X118805646Y-97219853D01*
X118680147Y-97094354D01*
X118581544Y-96946784D01*
X118513624Y-96782812D01*
X118479000Y-96608741D01*
X118479000Y-96431259D01*
X118513624Y-96257188D01*
X118581544Y-96093216D01*
X118680147Y-95945646D01*
X118805646Y-95820147D01*
X118953216Y-95721544D01*
X119117188Y-95653624D01*
X119266488Y-95623927D01*
X119291258Y-95619000D01*
X119468742Y-95619000D01*
X119493512Y-95623927D01*
G37*
G36*
X182993512Y-95623927D02*
G01*
X183142812Y-95653624D01*
X183306784Y-95721544D01*
X183454354Y-95820147D01*
X183579853Y-95945646D01*
X183678456Y-96093216D01*
X183746376Y-96257188D01*
X183781000Y-96431259D01*
X183781000Y-96608741D01*
X183746376Y-96782812D01*
X183678456Y-96946784D01*
X183579853Y-97094354D01*
X183454354Y-97219853D01*
X183306784Y-97318456D01*
X183142812Y-97386376D01*
X182993512Y-97416073D01*
X182968742Y-97421000D01*
X182791258Y-97421000D01*
X182766488Y-97416073D01*
X182617188Y-97386376D01*
X182453216Y-97318456D01*
X182305646Y-97219853D01*
X182180147Y-97094354D01*
X182081544Y-96946784D01*
X182013624Y-96782812D01*
X181979000Y-96608741D01*
X181979000Y-96431259D01*
X182013624Y-96257188D01*
X182081544Y-96093216D01*
X182180147Y-95945646D01*
X182305646Y-95820147D01*
X182453216Y-95721544D01*
X182617188Y-95653624D01*
X182766488Y-95623927D01*
X182791258Y-95619000D01*
X182968742Y-95619000D01*
X182993512Y-95623927D01*
G37*
G36*
X180453512Y-95623927D02*
G01*
X180602812Y-95653624D01*
X180766784Y-95721544D01*
X180914354Y-95820147D01*
X181039853Y-95945646D01*
X181138456Y-96093216D01*
X181206376Y-96257188D01*
X181241000Y-96431259D01*
X181241000Y-96608741D01*
X181206376Y-96782812D01*
X181138456Y-96946784D01*
X181039853Y-97094354D01*
X180914354Y-97219853D01*
X180766784Y-97318456D01*
X180602812Y-97386376D01*
X180453512Y-97416073D01*
X180428742Y-97421000D01*
X180251258Y-97421000D01*
X180226488Y-97416073D01*
X180077188Y-97386376D01*
X179913216Y-97318456D01*
X179765646Y-97219853D01*
X179640147Y-97094354D01*
X179541544Y-96946784D01*
X179473624Y-96782812D01*
X179439000Y-96608741D01*
X179439000Y-96431259D01*
X179473624Y-96257188D01*
X179541544Y-96093216D01*
X179640147Y-95945646D01*
X179765646Y-95820147D01*
X179913216Y-95721544D01*
X180077188Y-95653624D01*
X180226488Y-95623927D01*
X180251258Y-95619000D01*
X180428742Y-95619000D01*
X180453512Y-95623927D01*
G37*
G36*
X122033512Y-95623927D02*
G01*
X122182812Y-95653624D01*
X122346784Y-95721544D01*
X122494354Y-95820147D01*
X122619853Y-95945646D01*
X122718456Y-96093216D01*
X122786376Y-96257188D01*
X122821000Y-96431259D01*
X122821000Y-96608741D01*
X122786376Y-96782812D01*
X122718456Y-96946784D01*
X122619853Y-97094354D01*
X122494354Y-97219853D01*
X122346784Y-97318456D01*
X122182812Y-97386376D01*
X122033512Y-97416073D01*
X122008742Y-97421000D01*
X121831258Y-97421000D01*
X121806488Y-97416073D01*
X121657188Y-97386376D01*
X121493216Y-97318456D01*
X121345646Y-97219853D01*
X121220147Y-97094354D01*
X121121544Y-96946784D01*
X121053624Y-96782812D01*
X121019000Y-96608741D01*
X121019000Y-96431259D01*
X121053624Y-96257188D01*
X121121544Y-96093216D01*
X121220147Y-95945646D01*
X121345646Y-95820147D01*
X121493216Y-95721544D01*
X121657188Y-95653624D01*
X121806488Y-95623927D01*
X121831258Y-95619000D01*
X122008742Y-95619000D01*
X122033512Y-95623927D01*
G37*
G36*
X145028228Y-95701703D02*
G01*
X145183100Y-95765853D01*
X145322481Y-95858985D01*
X145441015Y-95977519D01*
X145534147Y-96116900D01*
X145598297Y-96271772D01*
X145631000Y-96436184D01*
X145631000Y-96603816D01*
X145598297Y-96768228D01*
X145534147Y-96923100D01*
X145441015Y-97062481D01*
X145322481Y-97181015D01*
X145183100Y-97274147D01*
X145028228Y-97338297D01*
X144863816Y-97371000D01*
X144696184Y-97371000D01*
X144531772Y-97338297D01*
X144376900Y-97274147D01*
X144237519Y-97181015D01*
X144118985Y-97062481D01*
X144025853Y-96923100D01*
X143961703Y-96768228D01*
X143929000Y-96603816D01*
X143929000Y-96436184D01*
X143961703Y-96271772D01*
X144025853Y-96116900D01*
X144118985Y-95977519D01*
X144237519Y-95858985D01*
X144376900Y-95765853D01*
X144531772Y-95701703D01*
X144696184Y-95669000D01*
X144863816Y-95669000D01*
X145028228Y-95701703D01*
G37*
G36*
X152648228Y-95701703D02*
G01*
X152803100Y-95765853D01*
X152942481Y-95858985D01*
X153061015Y-95977519D01*
X153154147Y-96116900D01*
X153218297Y-96271772D01*
X153251000Y-96436184D01*
X153251000Y-96603816D01*
X153218297Y-96768228D01*
X153154147Y-96923100D01*
X153061015Y-97062481D01*
X152942481Y-97181015D01*
X152803100Y-97274147D01*
X152648228Y-97338297D01*
X152483816Y-97371000D01*
X152316184Y-97371000D01*
X152151772Y-97338297D01*
X151996900Y-97274147D01*
X151857519Y-97181015D01*
X151738985Y-97062481D01*
X151645853Y-96923100D01*
X151581703Y-96768228D01*
X151549000Y-96603816D01*
X151549000Y-96436184D01*
X151581703Y-96271772D01*
X151645853Y-96116900D01*
X151738985Y-95977519D01*
X151857519Y-95858985D01*
X151996900Y-95765853D01*
X152151772Y-95701703D01*
X152316184Y-95669000D01*
X152483816Y-95669000D01*
X152648228Y-95701703D01*
G37*
G36*
X137408228Y-95701703D02*
G01*
X137563100Y-95765853D01*
X137702481Y-95858985D01*
X137821015Y-95977519D01*
X137914147Y-96116900D01*
X137978297Y-96271772D01*
X138011000Y-96436184D01*
X138011000Y-96603816D01*
X137978297Y-96768228D01*
X137914147Y-96923100D01*
X137821015Y-97062481D01*
X137702481Y-97181015D01*
X137563100Y-97274147D01*
X137408228Y-97338297D01*
X137243816Y-97371000D01*
X137076184Y-97371000D01*
X136911772Y-97338297D01*
X136756900Y-97274147D01*
X136617519Y-97181015D01*
X136498985Y-97062481D01*
X136405853Y-96923100D01*
X136341703Y-96768228D01*
X136309000Y-96603816D01*
X136309000Y-96436184D01*
X136341703Y-96271772D01*
X136405853Y-96116900D01*
X136498985Y-95977519D01*
X136617519Y-95858985D01*
X136756900Y-95765853D01*
X136911772Y-95701703D01*
X137076184Y-95669000D01*
X137243816Y-95669000D01*
X137408228Y-95701703D01*
G37*
G36*
X129788228Y-95701703D02*
G01*
X129943100Y-95765853D01*
X130082481Y-95858985D01*
X130201015Y-95977519D01*
X130294147Y-96116900D01*
X130358297Y-96271772D01*
X130391000Y-96436184D01*
X130391000Y-96603816D01*
X130358297Y-96768228D01*
X130294147Y-96923100D01*
X130201015Y-97062481D01*
X130082481Y-97181015D01*
X129943100Y-97274147D01*
X129788228Y-97338297D01*
X129623816Y-97371000D01*
X129456184Y-97371000D01*
X129291772Y-97338297D01*
X129136900Y-97274147D01*
X128997519Y-97181015D01*
X128878985Y-97062481D01*
X128785853Y-96923100D01*
X128721703Y-96768228D01*
X128689000Y-96603816D01*
X128689000Y-96436184D01*
X128721703Y-96271772D01*
X128785853Y-96116900D01*
X128878985Y-95977519D01*
X128997519Y-95858985D01*
X129136900Y-95765853D01*
X129291772Y-95701703D01*
X129456184Y-95669000D01*
X129623816Y-95669000D01*
X129788228Y-95701703D01*
G37*
G36*
X129817395Y-93065546D02*
G01*
X129990466Y-93137234D01*
X129990467Y-93137235D01*
X130146227Y-93241310D01*
X130278690Y-93373773D01*
X130278691Y-93373775D01*
X130382766Y-93529534D01*
X130454454Y-93702605D01*
X130491000Y-93886333D01*
X130491000Y-94073667D01*
X130454454Y-94257395D01*
X130382766Y-94430466D01*
X130382765Y-94430467D01*
X130278690Y-94586227D01*
X130146227Y-94718690D01*
X130067818Y-94771081D01*
X129990466Y-94822766D01*
X129817395Y-94894454D01*
X129633667Y-94931000D01*
X129446333Y-94931000D01*
X129262605Y-94894454D01*
X129089534Y-94822766D01*
X129012182Y-94771081D01*
X128933773Y-94718690D01*
X128801310Y-94586227D01*
X128697235Y-94430467D01*
X128697234Y-94430466D01*
X128625546Y-94257395D01*
X128589000Y-94073667D01*
X128589000Y-93886333D01*
X128625546Y-93702605D01*
X128697234Y-93529534D01*
X128801309Y-93373775D01*
X128801310Y-93373773D01*
X128933773Y-93241310D01*
X129089533Y-93137235D01*
X129089534Y-93137234D01*
X129262605Y-93065546D01*
X129446333Y-93029000D01*
X129633667Y-93029000D01*
X129817395Y-93065546D01*
G37*
G36*
X137437395Y-93065546D02*
G01*
X137610466Y-93137234D01*
X137610467Y-93137235D01*
X137766227Y-93241310D01*
X137898690Y-93373773D01*
X137898691Y-93373775D01*
X138002766Y-93529534D01*
X138074454Y-93702605D01*
X138111000Y-93886333D01*
X138111000Y-94073667D01*
X138074454Y-94257395D01*
X138002766Y-94430466D01*
X138002765Y-94430467D01*
X137898690Y-94586227D01*
X137766227Y-94718690D01*
X137687818Y-94771081D01*
X137610466Y-94822766D01*
X137437395Y-94894454D01*
X137253667Y-94931000D01*
X137066333Y-94931000D01*
X136882605Y-94894454D01*
X136709534Y-94822766D01*
X136632182Y-94771081D01*
X136553773Y-94718690D01*
X136421310Y-94586227D01*
X136317235Y-94430467D01*
X136317234Y-94430466D01*
X136245546Y-94257395D01*
X136209000Y-94073667D01*
X136209000Y-93886333D01*
X136245546Y-93702605D01*
X136317234Y-93529534D01*
X136421309Y-93373775D01*
X136421310Y-93373773D01*
X136553773Y-93241310D01*
X136709533Y-93137235D01*
X136709534Y-93137234D01*
X136882605Y-93065546D01*
X137066333Y-93029000D01*
X137253667Y-93029000D01*
X137437395Y-93065546D01*
G37*
G36*
X152677395Y-93065546D02*
G01*
X152850466Y-93137234D01*
X152850467Y-93137235D01*
X153006227Y-93241310D01*
X153138690Y-93373773D01*
X153138691Y-93373775D01*
X153242766Y-93529534D01*
X153314454Y-93702605D01*
X153351000Y-93886333D01*
X153351000Y-94073667D01*
X153314454Y-94257395D01*
X153242766Y-94430466D01*
X153242765Y-94430467D01*
X153138690Y-94586227D01*
X153006227Y-94718690D01*
X152927818Y-94771081D01*
X152850466Y-94822766D01*
X152677395Y-94894454D01*
X152493667Y-94931000D01*
X152306333Y-94931000D01*
X152122605Y-94894454D01*
X151949534Y-94822766D01*
X151872182Y-94771081D01*
X151793773Y-94718690D01*
X151661310Y-94586227D01*
X151557235Y-94430467D01*
X151557234Y-94430466D01*
X151485546Y-94257395D01*
X151449000Y-94073667D01*
X151449000Y-93886333D01*
X151485546Y-93702605D01*
X151557234Y-93529534D01*
X151661309Y-93373775D01*
X151661310Y-93373773D01*
X151793773Y-93241310D01*
X151949533Y-93137235D01*
X151949534Y-93137234D01*
X152122605Y-93065546D01*
X152306333Y-93029000D01*
X152493667Y-93029000D01*
X152677395Y-93065546D01*
G37*
G36*
X145057395Y-93065546D02*
G01*
X145230466Y-93137234D01*
X145230467Y-93137235D01*
X145386227Y-93241310D01*
X145518690Y-93373773D01*
X145518691Y-93373775D01*
X145622766Y-93529534D01*
X145694454Y-93702605D01*
X145731000Y-93886333D01*
X145731000Y-94073667D01*
X145694454Y-94257395D01*
X145622766Y-94430466D01*
X145622765Y-94430467D01*
X145518690Y-94586227D01*
X145386227Y-94718690D01*
X145307818Y-94771081D01*
X145230466Y-94822766D01*
X145057395Y-94894454D01*
X144873667Y-94931000D01*
X144686333Y-94931000D01*
X144502605Y-94894454D01*
X144329534Y-94822766D01*
X144252182Y-94771081D01*
X144173773Y-94718690D01*
X144041310Y-94586227D01*
X143937235Y-94430467D01*
X143937234Y-94430466D01*
X143865546Y-94257395D01*
X143829000Y-94073667D01*
X143829000Y-93886333D01*
X143865546Y-93702605D01*
X143937234Y-93529534D01*
X144041309Y-93373775D01*
X144041310Y-93373773D01*
X144173773Y-93241310D01*
X144329533Y-93137235D01*
X144329534Y-93137234D01*
X144502605Y-93065546D01*
X144686333Y-93029000D01*
X144873667Y-93029000D01*
X145057395Y-93065546D01*
G37*
G36*
X122033512Y-93083927D02*
G01*
X122182812Y-93113624D01*
X122346784Y-93181544D01*
X122494354Y-93280147D01*
X122619853Y-93405646D01*
X122718456Y-93553216D01*
X122786376Y-93717188D01*
X122821000Y-93891259D01*
X122821000Y-94068741D01*
X122786376Y-94242812D01*
X122718456Y-94406784D01*
X122619853Y-94554354D01*
X122494354Y-94679853D01*
X122346784Y-94778456D01*
X122182812Y-94846376D01*
X122033512Y-94876073D01*
X122008742Y-94881000D01*
X121831258Y-94881000D01*
X121806488Y-94876073D01*
X121657188Y-94846376D01*
X121493216Y-94778456D01*
X121345646Y-94679853D01*
X121220147Y-94554354D01*
X121121544Y-94406784D01*
X121053624Y-94242812D01*
X121019000Y-94068741D01*
X121019000Y-93891259D01*
X121053624Y-93717188D01*
X121121544Y-93553216D01*
X121220147Y-93405646D01*
X121345646Y-93280147D01*
X121493216Y-93181544D01*
X121657188Y-93113624D01*
X121806488Y-93083927D01*
X121831258Y-93079000D01*
X122008742Y-93079000D01*
X122033512Y-93083927D01*
G37*
G36*
X119493512Y-93083927D02*
G01*
X119642812Y-93113624D01*
X119806784Y-93181544D01*
X119954354Y-93280147D01*
X120079853Y-93405646D01*
X120178456Y-93553216D01*
X120246376Y-93717188D01*
X120281000Y-93891259D01*
X120281000Y-94068741D01*
X120246376Y-94242812D01*
X120178456Y-94406784D01*
X120079853Y-94554354D01*
X119954354Y-94679853D01*
X119806784Y-94778456D01*
X119642812Y-94846376D01*
X119493512Y-94876073D01*
X119468742Y-94881000D01*
X119291258Y-94881000D01*
X119266488Y-94876073D01*
X119117188Y-94846376D01*
X118953216Y-94778456D01*
X118805646Y-94679853D01*
X118680147Y-94554354D01*
X118581544Y-94406784D01*
X118513624Y-94242812D01*
X118479000Y-94068741D01*
X118479000Y-93891259D01*
X118513624Y-93717188D01*
X118581544Y-93553216D01*
X118680147Y-93405646D01*
X118805646Y-93280147D01*
X118953216Y-93181544D01*
X119117188Y-93113624D01*
X119266488Y-93083927D01*
X119291258Y-93079000D01*
X119468742Y-93079000D01*
X119493512Y-93083927D01*
G37*
G36*
X180453512Y-93083927D02*
G01*
X180602812Y-93113624D01*
X180766784Y-93181544D01*
X180914354Y-93280147D01*
X181039853Y-93405646D01*
X181138456Y-93553216D01*
X181206376Y-93717188D01*
X181241000Y-93891259D01*
X181241000Y-94068741D01*
X181206376Y-94242812D01*
X181138456Y-94406784D01*
X181039853Y-94554354D01*
X180914354Y-94679853D01*
X180766784Y-94778456D01*
X180602812Y-94846376D01*
X180453512Y-94876073D01*
X180428742Y-94881000D01*
X180251258Y-94881000D01*
X180226488Y-94876073D01*
X180077188Y-94846376D01*
X179913216Y-94778456D01*
X179765646Y-94679853D01*
X179640147Y-94554354D01*
X179541544Y-94406784D01*
X179473624Y-94242812D01*
X179439000Y-94068741D01*
X179439000Y-93891259D01*
X179473624Y-93717188D01*
X179541544Y-93553216D01*
X179640147Y-93405646D01*
X179765646Y-93280147D01*
X179913216Y-93181544D01*
X180077188Y-93113624D01*
X180226488Y-93083927D01*
X180251258Y-93079000D01*
X180428742Y-93079000D01*
X180453512Y-93083927D01*
G37*
G36*
X182993512Y-93083927D02*
G01*
X183142812Y-93113624D01*
X183306784Y-93181544D01*
X183454354Y-93280147D01*
X183579853Y-93405646D01*
X183678456Y-93553216D01*
X183746376Y-93717188D01*
X183781000Y-93891259D01*
X183781000Y-94068741D01*
X183746376Y-94242812D01*
X183678456Y-94406784D01*
X183579853Y-94554354D01*
X183454354Y-94679853D01*
X183306784Y-94778456D01*
X183142812Y-94846376D01*
X182993512Y-94876073D01*
X182968742Y-94881000D01*
X182791258Y-94881000D01*
X182766488Y-94876073D01*
X182617188Y-94846376D01*
X182453216Y-94778456D01*
X182305646Y-94679853D01*
X182180147Y-94554354D01*
X182081544Y-94406784D01*
X182013624Y-94242812D01*
X181979000Y-94068741D01*
X181979000Y-93891259D01*
X182013624Y-93717188D01*
X182081544Y-93553216D01*
X182180147Y-93405646D01*
X182305646Y-93280147D01*
X182453216Y-93181544D01*
X182617188Y-93113624D01*
X182766488Y-93083927D01*
X182791258Y-93079000D01*
X182968742Y-93079000D01*
X182993512Y-93083927D01*
G37*
G36*
X168089271Y-92180103D02*
G01*
X168145635Y-92185654D01*
X168362600Y-92251470D01*
X168362602Y-92251471D01*
X168562555Y-92358347D01*
X168737818Y-92502182D01*
X168881653Y-92677445D01*
X168988529Y-92877398D01*
X168988530Y-92877400D01*
X169054346Y-93094365D01*
X169076569Y-93320000D01*
X169054346Y-93545635D01*
X169002306Y-93717188D01*
X168988529Y-93762602D01*
X168881653Y-93962555D01*
X168737818Y-94137818D01*
X168562555Y-94281653D01*
X168362602Y-94388529D01*
X168362600Y-94388530D01*
X168145635Y-94454346D01*
X168089271Y-94459897D01*
X167976545Y-94471000D01*
X167063455Y-94471000D01*
X166950729Y-94459897D01*
X166894365Y-94454346D01*
X166677400Y-94388530D01*
X166677398Y-94388529D01*
X166477445Y-94281653D01*
X166302182Y-94137818D01*
X166158347Y-93962555D01*
X166051471Y-93762602D01*
X166037695Y-93717188D01*
X165985654Y-93545635D01*
X165963431Y-93320000D01*
X165985654Y-93094365D01*
X166051470Y-92877400D01*
X166051471Y-92877398D01*
X166158347Y-92677445D01*
X166302182Y-92502182D01*
X166477445Y-92358347D01*
X166677398Y-92251471D01*
X166677400Y-92251470D01*
X166894365Y-92185654D01*
X166950729Y-92180103D01*
X167063455Y-92169000D01*
X167976545Y-92169000D01*
X168089271Y-92180103D01*
G37*
G36*
X145731000Y-92391000D02*
G01*
X143829000Y-92391000D01*
X143829000Y-90489000D01*
X145731000Y-90489000D01*
X145731000Y-92391000D01*
G37*
G36*
X130491000Y-92391000D02*
G01*
X128589000Y-92391000D01*
X128589000Y-90489000D01*
X130491000Y-90489000D01*
X130491000Y-92391000D01*
G37*
G36*
X138111000Y-92391000D02*
G01*
X136209000Y-92391000D01*
X136209000Y-90489000D01*
X138111000Y-90489000D01*
X138111000Y-92391000D01*
G37*
G36*
X153351000Y-92391000D02*
G01*
X151449000Y-92391000D01*
X151449000Y-90489000D01*
X153351000Y-90489000D01*
X153351000Y-92391000D01*
G37*
G36*
X180453512Y-90543927D02*
G01*
X180602812Y-90573624D01*
X180766784Y-90641544D01*
X180914354Y-90740147D01*
X181039853Y-90865646D01*
X181138456Y-91013216D01*
X181206376Y-91177188D01*
X181241000Y-91351259D01*
X181241000Y-91528741D01*
X181206376Y-91702812D01*
X181138456Y-91866784D01*
X181039853Y-92014354D01*
X180914354Y-92139853D01*
X180766784Y-92238456D01*
X180602812Y-92306376D01*
X180453512Y-92336073D01*
X180428742Y-92341000D01*
X180251258Y-92341000D01*
X180226488Y-92336073D01*
X180077188Y-92306376D01*
X179913216Y-92238456D01*
X179765646Y-92139853D01*
X179640147Y-92014354D01*
X179541544Y-91866784D01*
X179473624Y-91702812D01*
X179439000Y-91528741D01*
X179439000Y-91351259D01*
X179473624Y-91177188D01*
X179541544Y-91013216D01*
X179640147Y-90865646D01*
X179765646Y-90740147D01*
X179913216Y-90641544D01*
X180077188Y-90573624D01*
X180226488Y-90543927D01*
X180251258Y-90539000D01*
X180428742Y-90539000D01*
X180453512Y-90543927D01*
G37*
G36*
X119493512Y-90543927D02*
G01*
X119642812Y-90573624D01*
X119806784Y-90641544D01*
X119954354Y-90740147D01*
X120079853Y-90865646D01*
X120178456Y-91013216D01*
X120246376Y-91177188D01*
X120281000Y-91351259D01*
X120281000Y-91528741D01*
X120246376Y-91702812D01*
X120178456Y-91866784D01*
X120079853Y-92014354D01*
X119954354Y-92139853D01*
X119806784Y-92238456D01*
X119642812Y-92306376D01*
X119493512Y-92336073D01*
X119468742Y-92341000D01*
X119291258Y-92341000D01*
X119266488Y-92336073D01*
X119117188Y-92306376D01*
X118953216Y-92238456D01*
X118805646Y-92139853D01*
X118680147Y-92014354D01*
X118581544Y-91866784D01*
X118513624Y-91702812D01*
X118479000Y-91528741D01*
X118479000Y-91351259D01*
X118513624Y-91177188D01*
X118581544Y-91013216D01*
X118680147Y-90865646D01*
X118805646Y-90740147D01*
X118953216Y-90641544D01*
X119117188Y-90573624D01*
X119266488Y-90543927D01*
X119291258Y-90539000D01*
X119468742Y-90539000D01*
X119493512Y-90543927D01*
G37*
G36*
X122033512Y-90543927D02*
G01*
X122182812Y-90573624D01*
X122346784Y-90641544D01*
X122494354Y-90740147D01*
X122619853Y-90865646D01*
X122718456Y-91013216D01*
X122786376Y-91177188D01*
X122821000Y-91351259D01*
X122821000Y-91528741D01*
X122786376Y-91702812D01*
X122718456Y-91866784D01*
X122619853Y-92014354D01*
X122494354Y-92139853D01*
X122346784Y-92238456D01*
X122182812Y-92306376D01*
X122033512Y-92336073D01*
X122008742Y-92341000D01*
X121831258Y-92341000D01*
X121806488Y-92336073D01*
X121657188Y-92306376D01*
X121493216Y-92238456D01*
X121345646Y-92139853D01*
X121220147Y-92014354D01*
X121121544Y-91866784D01*
X121053624Y-91702812D01*
X121019000Y-91528741D01*
X121019000Y-91351259D01*
X121053624Y-91177188D01*
X121121544Y-91013216D01*
X121220147Y-90865646D01*
X121345646Y-90740147D01*
X121493216Y-90641544D01*
X121657188Y-90573624D01*
X121806488Y-90543927D01*
X121831258Y-90539000D01*
X122008742Y-90539000D01*
X122033512Y-90543927D01*
G37*
G36*
X182993512Y-90543927D02*
G01*
X183142812Y-90573624D01*
X183306784Y-90641544D01*
X183454354Y-90740147D01*
X183579853Y-90865646D01*
X183678456Y-91013216D01*
X183746376Y-91177188D01*
X183781000Y-91351259D01*
X183781000Y-91528741D01*
X183746376Y-91702812D01*
X183678456Y-91866784D01*
X183579853Y-92014354D01*
X183454354Y-92139853D01*
X183306784Y-92238456D01*
X183142812Y-92306376D01*
X182993512Y-92336073D01*
X182968742Y-92341000D01*
X182791258Y-92341000D01*
X182766488Y-92336073D01*
X182617188Y-92306376D01*
X182453216Y-92238456D01*
X182305646Y-92139853D01*
X182180147Y-92014354D01*
X182081544Y-91866784D01*
X182013624Y-91702812D01*
X181979000Y-91528741D01*
X181979000Y-91351259D01*
X182013624Y-91177188D01*
X182081544Y-91013216D01*
X182180147Y-90865646D01*
X182305646Y-90740147D01*
X182453216Y-90641544D01*
X182617188Y-90573624D01*
X182766488Y-90543927D01*
X182791258Y-90539000D01*
X182968742Y-90539000D01*
X182993512Y-90543927D01*
G37*
G36*
X119493512Y-88003927D02*
G01*
X119642812Y-88033624D01*
X119806784Y-88101544D01*
X119954354Y-88200147D01*
X120079853Y-88325646D01*
X120178456Y-88473216D01*
X120246376Y-88637188D01*
X120281000Y-88811259D01*
X120281000Y-88988741D01*
X120246376Y-89162812D01*
X120178456Y-89326784D01*
X120079853Y-89474354D01*
X119954354Y-89599853D01*
X119806784Y-89698456D01*
X119642812Y-89766376D01*
X119493512Y-89796073D01*
X119468742Y-89801000D01*
X119291258Y-89801000D01*
X119266488Y-89796073D01*
X119117188Y-89766376D01*
X118953216Y-89698456D01*
X118805646Y-89599853D01*
X118680147Y-89474354D01*
X118581544Y-89326784D01*
X118513624Y-89162812D01*
X118479000Y-88988741D01*
X118479000Y-88811259D01*
X118513624Y-88637188D01*
X118581544Y-88473216D01*
X118680147Y-88325646D01*
X118805646Y-88200147D01*
X118953216Y-88101544D01*
X119117188Y-88033624D01*
X119266488Y-88003927D01*
X119291258Y-87999000D01*
X119468742Y-87999000D01*
X119493512Y-88003927D01*
G37*
G36*
X122033512Y-88003927D02*
G01*
X122182812Y-88033624D01*
X122346784Y-88101544D01*
X122494354Y-88200147D01*
X122619853Y-88325646D01*
X122718456Y-88473216D01*
X122786376Y-88637188D01*
X122821000Y-88811259D01*
X122821000Y-88988741D01*
X122786376Y-89162812D01*
X122718456Y-89326784D01*
X122619853Y-89474354D01*
X122494354Y-89599853D01*
X122346784Y-89698456D01*
X122182812Y-89766376D01*
X122033512Y-89796073D01*
X122008742Y-89801000D01*
X121831258Y-89801000D01*
X121806488Y-89796073D01*
X121657188Y-89766376D01*
X121493216Y-89698456D01*
X121345646Y-89599853D01*
X121220147Y-89474354D01*
X121121544Y-89326784D01*
X121053624Y-89162812D01*
X121019000Y-88988741D01*
X121019000Y-88811259D01*
X121053624Y-88637188D01*
X121121544Y-88473216D01*
X121220147Y-88325646D01*
X121345646Y-88200147D01*
X121493216Y-88101544D01*
X121657188Y-88033624D01*
X121806488Y-88003927D01*
X121831258Y-87999000D01*
X122008742Y-87999000D01*
X122033512Y-88003927D01*
G37*
G36*
X182993512Y-88003927D02*
G01*
X183142812Y-88033624D01*
X183306784Y-88101544D01*
X183454354Y-88200147D01*
X183579853Y-88325646D01*
X183678456Y-88473216D01*
X183746376Y-88637188D01*
X183781000Y-88811259D01*
X183781000Y-88988741D01*
X183746376Y-89162812D01*
X183678456Y-89326784D01*
X183579853Y-89474354D01*
X183454354Y-89599853D01*
X183306784Y-89698456D01*
X183142812Y-89766376D01*
X182993512Y-89796073D01*
X182968742Y-89801000D01*
X182791258Y-89801000D01*
X182766488Y-89796073D01*
X182617188Y-89766376D01*
X182453216Y-89698456D01*
X182305646Y-89599853D01*
X182180147Y-89474354D01*
X182081544Y-89326784D01*
X182013624Y-89162812D01*
X181979000Y-88988741D01*
X181979000Y-88811259D01*
X182013624Y-88637188D01*
X182081544Y-88473216D01*
X182180147Y-88325646D01*
X182305646Y-88200147D01*
X182453216Y-88101544D01*
X182617188Y-88033624D01*
X182766488Y-88003927D01*
X182791258Y-87999000D01*
X182968742Y-87999000D01*
X182993512Y-88003927D01*
G37*
G36*
X180453512Y-88003927D02*
G01*
X180602812Y-88033624D01*
X180766784Y-88101544D01*
X180914354Y-88200147D01*
X181039853Y-88325646D01*
X181138456Y-88473216D01*
X181206376Y-88637188D01*
X181241000Y-88811259D01*
X181241000Y-88988741D01*
X181206376Y-89162812D01*
X181138456Y-89326784D01*
X181039853Y-89474354D01*
X180914354Y-89599853D01*
X180766784Y-89698456D01*
X180602812Y-89766376D01*
X180453512Y-89796073D01*
X180428742Y-89801000D01*
X180251258Y-89801000D01*
X180226488Y-89796073D01*
X180077188Y-89766376D01*
X179913216Y-89698456D01*
X179765646Y-89599853D01*
X179640147Y-89474354D01*
X179541544Y-89326784D01*
X179473624Y-89162812D01*
X179439000Y-88988741D01*
X179439000Y-88811259D01*
X179473624Y-88637188D01*
X179541544Y-88473216D01*
X179640147Y-88325646D01*
X179765646Y-88200147D01*
X179913216Y-88101544D01*
X180077188Y-88033624D01*
X180226488Y-88003927D01*
X180251258Y-87999000D01*
X180428742Y-87999000D01*
X180453512Y-88003927D01*
G37*
G36*
X176836564Y-87254389D02*
G01*
X176925880Y-87291385D01*
X177027835Y-87333616D01*
X177083200Y-87370610D01*
X177199973Y-87448635D01*
X177346365Y-87595027D01*
X177461385Y-87767167D01*
X177540611Y-87958436D01*
X177581000Y-88161484D01*
X177581000Y-88368516D01*
X177540611Y-88571564D01*
X177513428Y-88637189D01*
X177461384Y-88762835D01*
X177346365Y-88934973D01*
X177199973Y-89081365D01*
X177027835Y-89196384D01*
X177027834Y-89196385D01*
X177027833Y-89196385D01*
X176836564Y-89275611D01*
X176633516Y-89316000D01*
X176426484Y-89316000D01*
X176223436Y-89275611D01*
X176032167Y-89196385D01*
X176032166Y-89196385D01*
X176032165Y-89196384D01*
X175860027Y-89081365D01*
X175713635Y-88934973D01*
X175598616Y-88762835D01*
X175546572Y-88637189D01*
X175519389Y-88571564D01*
X175479000Y-88368516D01*
X175479000Y-88161484D01*
X175519389Y-87958436D01*
X175598615Y-87767167D01*
X175713635Y-87595027D01*
X175860027Y-87448635D01*
X175976800Y-87370610D01*
X176032165Y-87333616D01*
X176134120Y-87291385D01*
X176223436Y-87254389D01*
X176426484Y-87214000D01*
X176633516Y-87214000D01*
X176836564Y-87254389D01*
G37*
G36*
X138736564Y-85349389D02*
G01*
X138927833Y-85428615D01*
X138927835Y-85428616D01*
X139099973Y-85543635D01*
X139246365Y-85690027D01*
X139310256Y-85785646D01*
X139361385Y-85862167D01*
X139440611Y-86053436D01*
X139481000Y-86256484D01*
X139481000Y-86463516D01*
X139440611Y-86666564D01*
X139390815Y-86786782D01*
X139361384Y-86857835D01*
X139246365Y-87029973D01*
X139099973Y-87176365D01*
X138927835Y-87291384D01*
X138927834Y-87291385D01*
X138927833Y-87291385D01*
X138736564Y-87370611D01*
X138533516Y-87411000D01*
X138326484Y-87411000D01*
X138123436Y-87370611D01*
X137932167Y-87291385D01*
X137932166Y-87291385D01*
X137932165Y-87291384D01*
X137760027Y-87176365D01*
X137613635Y-87029973D01*
X137498616Y-86857835D01*
X137469185Y-86786782D01*
X137419389Y-86666564D01*
X137379000Y-86463516D01*
X137379000Y-86256484D01*
X137419389Y-86053436D01*
X137498615Y-85862167D01*
X137549745Y-85785646D01*
X137613635Y-85690027D01*
X137760027Y-85543635D01*
X137932165Y-85428616D01*
X137932167Y-85428615D01*
X138123436Y-85349389D01*
X138326484Y-85309000D01*
X138533516Y-85309000D01*
X138736564Y-85349389D01*
G37*
G36*
X180453512Y-85463927D02*
G01*
X180602812Y-85493624D01*
X180766784Y-85561544D01*
X180914354Y-85660147D01*
X181039853Y-85785646D01*
X181138456Y-85933216D01*
X181206376Y-86097188D01*
X181241000Y-86271259D01*
X181241000Y-86448741D01*
X181206376Y-86622812D01*
X181138456Y-86786784D01*
X181039853Y-86934354D01*
X180914354Y-87059853D01*
X180766784Y-87158456D01*
X180602812Y-87226376D01*
X180453512Y-87256073D01*
X180428742Y-87261000D01*
X180251258Y-87261000D01*
X180226488Y-87256073D01*
X180077188Y-87226376D01*
X179913216Y-87158456D01*
X179765646Y-87059853D01*
X179640147Y-86934354D01*
X179541544Y-86786784D01*
X179473624Y-86622812D01*
X179439000Y-86448741D01*
X179439000Y-86271259D01*
X179473624Y-86097188D01*
X179541544Y-85933216D01*
X179640147Y-85785646D01*
X179765646Y-85660147D01*
X179913216Y-85561544D01*
X180077188Y-85493624D01*
X180226488Y-85463927D01*
X180251258Y-85459000D01*
X180428742Y-85459000D01*
X180453512Y-85463927D01*
G37*
G36*
X182993512Y-85463927D02*
G01*
X183142812Y-85493624D01*
X183306784Y-85561544D01*
X183454354Y-85660147D01*
X183579853Y-85785646D01*
X183678456Y-85933216D01*
X183746376Y-86097188D01*
X183781000Y-86271259D01*
X183781000Y-86448741D01*
X183746376Y-86622812D01*
X183678456Y-86786784D01*
X183579853Y-86934354D01*
X183454354Y-87059853D01*
X183306784Y-87158456D01*
X183142812Y-87226376D01*
X182993512Y-87256073D01*
X182968742Y-87261000D01*
X182791258Y-87261000D01*
X182766488Y-87256073D01*
X182617188Y-87226376D01*
X182453216Y-87158456D01*
X182305646Y-87059853D01*
X182180147Y-86934354D01*
X182081544Y-86786784D01*
X182013624Y-86622812D01*
X181979000Y-86448741D01*
X181979000Y-86271259D01*
X182013624Y-86097188D01*
X182081544Y-85933216D01*
X182180147Y-85785646D01*
X182305646Y-85660147D01*
X182453216Y-85561544D01*
X182617188Y-85493624D01*
X182766488Y-85463927D01*
X182791258Y-85459000D01*
X182968742Y-85459000D01*
X182993512Y-85463927D01*
G37*
G36*
X122033512Y-85463927D02*
G01*
X122182812Y-85493624D01*
X122346784Y-85561544D01*
X122494354Y-85660147D01*
X122619853Y-85785646D01*
X122718456Y-85933216D01*
X122786376Y-86097188D01*
X122821000Y-86271259D01*
X122821000Y-86448741D01*
X122786376Y-86622812D01*
X122718456Y-86786784D01*
X122619853Y-86934354D01*
X122494354Y-87059853D01*
X122346784Y-87158456D01*
X122182812Y-87226376D01*
X122033512Y-87256073D01*
X122008742Y-87261000D01*
X121831258Y-87261000D01*
X121806488Y-87256073D01*
X121657188Y-87226376D01*
X121493216Y-87158456D01*
X121345646Y-87059853D01*
X121220147Y-86934354D01*
X121121544Y-86786784D01*
X121053624Y-86622812D01*
X121019000Y-86448741D01*
X121019000Y-86271259D01*
X121053624Y-86097188D01*
X121121544Y-85933216D01*
X121220147Y-85785646D01*
X121345646Y-85660147D01*
X121493216Y-85561544D01*
X121657188Y-85493624D01*
X121806488Y-85463927D01*
X121831258Y-85459000D01*
X122008742Y-85459000D01*
X122033512Y-85463927D01*
G37*
G36*
X119493512Y-85463927D02*
G01*
X119642812Y-85493624D01*
X119806784Y-85561544D01*
X119954354Y-85660147D01*
X120079853Y-85785646D01*
X120178456Y-85933216D01*
X120246376Y-86097188D01*
X120281000Y-86271259D01*
X120281000Y-86448741D01*
X120246376Y-86622812D01*
X120178456Y-86786784D01*
X120079853Y-86934354D01*
X119954354Y-87059853D01*
X119806784Y-87158456D01*
X119642812Y-87226376D01*
X119493512Y-87256073D01*
X119468742Y-87261000D01*
X119291258Y-87261000D01*
X119266488Y-87256073D01*
X119117188Y-87226376D01*
X118953216Y-87158456D01*
X118805646Y-87059853D01*
X118680147Y-86934354D01*
X118581544Y-86786784D01*
X118513624Y-86622812D01*
X118479000Y-86448741D01*
X118479000Y-86271259D01*
X118513624Y-86097188D01*
X118581544Y-85933216D01*
X118680147Y-85785646D01*
X118805646Y-85660147D01*
X118953216Y-85561544D01*
X119117188Y-85493624D01*
X119266488Y-85463927D01*
X119291258Y-85459000D01*
X119468742Y-85459000D01*
X119493512Y-85463927D01*
G37*
G36*
X155188228Y-85541703D02*
G01*
X155343100Y-85605853D01*
X155482481Y-85698985D01*
X155601015Y-85817519D01*
X155694147Y-85956900D01*
X155758297Y-86111772D01*
X155791000Y-86276184D01*
X155791000Y-86443816D01*
X155758297Y-86608228D01*
X155694147Y-86763100D01*
X155601015Y-86902481D01*
X155482481Y-87021015D01*
X155343100Y-87114147D01*
X155188228Y-87178297D01*
X155023816Y-87211000D01*
X154856184Y-87211000D01*
X154691772Y-87178297D01*
X154536900Y-87114147D01*
X154397519Y-87021015D01*
X154278985Y-86902481D01*
X154185853Y-86763100D01*
X154121703Y-86608228D01*
X154089000Y-86443816D01*
X154089000Y-86276184D01*
X154121703Y-86111772D01*
X154185853Y-85956900D01*
X154278985Y-85817519D01*
X154397519Y-85698985D01*
X154536900Y-85605853D01*
X154691772Y-85541703D01*
X154856184Y-85509000D01*
X155023816Y-85509000D01*
X155188228Y-85541703D01*
G37*
G36*
X142488228Y-85541703D02*
G01*
X142643100Y-85605853D01*
X142782481Y-85698985D01*
X142901015Y-85817519D01*
X142994147Y-85956900D01*
X143058297Y-86111772D01*
X143091000Y-86276184D01*
X143091000Y-86443816D01*
X143058297Y-86608228D01*
X142994147Y-86763100D01*
X142901015Y-86902481D01*
X142782481Y-87021015D01*
X142643100Y-87114147D01*
X142488228Y-87178297D01*
X142323816Y-87211000D01*
X142156184Y-87211000D01*
X141991772Y-87178297D01*
X141836900Y-87114147D01*
X141697519Y-87021015D01*
X141578985Y-86902481D01*
X141485853Y-86763100D01*
X141421703Y-86608228D01*
X141389000Y-86443816D01*
X141389000Y-86276184D01*
X141421703Y-86111772D01*
X141485853Y-85956900D01*
X141578985Y-85817519D01*
X141697519Y-85698985D01*
X141836900Y-85605853D01*
X141991772Y-85541703D01*
X142156184Y-85509000D01*
X142323816Y-85509000D01*
X142488228Y-85541703D01*
G37*
G36*
X152648228Y-85541703D02*
G01*
X152803100Y-85605853D01*
X152942481Y-85698985D01*
X153061015Y-85817519D01*
X153154147Y-85956900D01*
X153218297Y-86111772D01*
X153251000Y-86276184D01*
X153251000Y-86443816D01*
X153218297Y-86608228D01*
X153154147Y-86763100D01*
X153061015Y-86902481D01*
X152942481Y-87021015D01*
X152803100Y-87114147D01*
X152648228Y-87178297D01*
X152483816Y-87211000D01*
X152316184Y-87211000D01*
X152151772Y-87178297D01*
X151996900Y-87114147D01*
X151857519Y-87021015D01*
X151738985Y-86902481D01*
X151645853Y-86763100D01*
X151581703Y-86608228D01*
X151549000Y-86443816D01*
X151549000Y-86276184D01*
X151581703Y-86111772D01*
X151645853Y-85956900D01*
X151738985Y-85817519D01*
X151857519Y-85698985D01*
X151996900Y-85605853D01*
X152151772Y-85541703D01*
X152316184Y-85509000D01*
X152483816Y-85509000D01*
X152648228Y-85541703D01*
G37*
G36*
X132328228Y-85541703D02*
G01*
X132483100Y-85605853D01*
X132622481Y-85698985D01*
X132741015Y-85817519D01*
X132834147Y-85956900D01*
X132898297Y-86111772D01*
X132931000Y-86276184D01*
X132931000Y-86443816D01*
X132898297Y-86608228D01*
X132834147Y-86763100D01*
X132741015Y-86902481D01*
X132622481Y-87021015D01*
X132483100Y-87114147D01*
X132328228Y-87178297D01*
X132163816Y-87211000D01*
X131996184Y-87211000D01*
X131831772Y-87178297D01*
X131676900Y-87114147D01*
X131537519Y-87021015D01*
X131418985Y-86902481D01*
X131325853Y-86763100D01*
X131261703Y-86608228D01*
X131229000Y-86443816D01*
X131229000Y-86276184D01*
X131261703Y-86111772D01*
X131325853Y-85956900D01*
X131418985Y-85817519D01*
X131537519Y-85698985D01*
X131676900Y-85605853D01*
X131831772Y-85541703D01*
X131996184Y-85509000D01*
X132163816Y-85509000D01*
X132328228Y-85541703D01*
G37*
G36*
X165348228Y-85541703D02*
G01*
X165503100Y-85605853D01*
X165642481Y-85698985D01*
X165761015Y-85817519D01*
X165854147Y-85956900D01*
X165918297Y-86111772D01*
X165951000Y-86276184D01*
X165951000Y-86443816D01*
X165918297Y-86608228D01*
X165854147Y-86763100D01*
X165761015Y-86902481D01*
X165642481Y-87021015D01*
X165503100Y-87114147D01*
X165348228Y-87178297D01*
X165183816Y-87211000D01*
X165016184Y-87211000D01*
X164851772Y-87178297D01*
X164696900Y-87114147D01*
X164557519Y-87021015D01*
X164438985Y-86902481D01*
X164345853Y-86763100D01*
X164281703Y-86608228D01*
X164249000Y-86443816D01*
X164249000Y-86276184D01*
X164281703Y-86111772D01*
X164345853Y-85956900D01*
X164438985Y-85817519D01*
X164557519Y-85698985D01*
X164696900Y-85605853D01*
X164851772Y-85541703D01*
X165016184Y-85509000D01*
X165183816Y-85509000D01*
X165348228Y-85541703D01*
G37*
G36*
X172968228Y-85541703D02*
G01*
X173123100Y-85605853D01*
X173262481Y-85698985D01*
X173381015Y-85817519D01*
X173474147Y-85956900D01*
X173538297Y-86111772D01*
X173571000Y-86276184D01*
X173571000Y-86443816D01*
X173538297Y-86608228D01*
X173474147Y-86763100D01*
X173381015Y-86902481D01*
X173262481Y-87021015D01*
X173123100Y-87114147D01*
X172968228Y-87178297D01*
X172803816Y-87211000D01*
X172636184Y-87211000D01*
X172471772Y-87178297D01*
X172316900Y-87114147D01*
X172177519Y-87021015D01*
X172058985Y-86902481D01*
X171965853Y-86763100D01*
X171901703Y-86608228D01*
X171869000Y-86443816D01*
X171869000Y-86276184D01*
X171901703Y-86111772D01*
X171965853Y-85956900D01*
X172058985Y-85817519D01*
X172177519Y-85698985D01*
X172316900Y-85605853D01*
X172471772Y-85541703D01*
X172636184Y-85509000D01*
X172803816Y-85509000D01*
X172968228Y-85541703D01*
G37*
G36*
X134828228Y-85541703D02*
G01*
X134983100Y-85605853D01*
X135122481Y-85698985D01*
X135241015Y-85817519D01*
X135334147Y-85956900D01*
X135398297Y-86111772D01*
X135431000Y-86276184D01*
X135431000Y-86443816D01*
X135398297Y-86608228D01*
X135334147Y-86763100D01*
X135241015Y-86902481D01*
X135122481Y-87021015D01*
X134983100Y-87114147D01*
X134828228Y-87178297D01*
X134663816Y-87211000D01*
X134496184Y-87211000D01*
X134331772Y-87178297D01*
X134176900Y-87114147D01*
X134037519Y-87021015D01*
X133918985Y-86902481D01*
X133825853Y-86763100D01*
X133761703Y-86608228D01*
X133729000Y-86443816D01*
X133729000Y-86276184D01*
X133761703Y-86111772D01*
X133825853Y-85956900D01*
X133918985Y-85817519D01*
X134037519Y-85698985D01*
X134176900Y-85605853D01*
X134331772Y-85541703D01*
X134496184Y-85509000D01*
X134663816Y-85509000D01*
X134828228Y-85541703D01*
G37*
G36*
X119493512Y-82923927D02*
G01*
X119642812Y-82953624D01*
X119806784Y-83021544D01*
X119954354Y-83120147D01*
X120079853Y-83245646D01*
X120178456Y-83393216D01*
X120246376Y-83557188D01*
X120281000Y-83731259D01*
X120281000Y-83908741D01*
X120246376Y-84082812D01*
X120178456Y-84246784D01*
X120079853Y-84394354D01*
X119954354Y-84519853D01*
X119806784Y-84618456D01*
X119642812Y-84686376D01*
X119493512Y-84716073D01*
X119468742Y-84721000D01*
X119291258Y-84721000D01*
X119266488Y-84716073D01*
X119117188Y-84686376D01*
X118953216Y-84618456D01*
X118805646Y-84519853D01*
X118680147Y-84394354D01*
X118581544Y-84246784D01*
X118513624Y-84082812D01*
X118479000Y-83908741D01*
X118479000Y-83731259D01*
X118513624Y-83557188D01*
X118581544Y-83393216D01*
X118680147Y-83245646D01*
X118805646Y-83120147D01*
X118953216Y-83021544D01*
X119117188Y-82953624D01*
X119266488Y-82923927D01*
X119291258Y-82919000D01*
X119468742Y-82919000D01*
X119493512Y-82923927D01*
G37*
G36*
X122033512Y-82923927D02*
G01*
X122182812Y-82953624D01*
X122346784Y-83021544D01*
X122494354Y-83120147D01*
X122619853Y-83245646D01*
X122718456Y-83393216D01*
X122786376Y-83557188D01*
X122821000Y-83731259D01*
X122821000Y-83908741D01*
X122786376Y-84082812D01*
X122718456Y-84246784D01*
X122619853Y-84394354D01*
X122494354Y-84519853D01*
X122346784Y-84618456D01*
X122182812Y-84686376D01*
X122033512Y-84716073D01*
X122008742Y-84721000D01*
X121831258Y-84721000D01*
X121806488Y-84716073D01*
X121657188Y-84686376D01*
X121493216Y-84618456D01*
X121345646Y-84519853D01*
X121220147Y-84394354D01*
X121121544Y-84246784D01*
X121053624Y-84082812D01*
X121019000Y-83908741D01*
X121019000Y-83731259D01*
X121053624Y-83557188D01*
X121121544Y-83393216D01*
X121220147Y-83245646D01*
X121345646Y-83120147D01*
X121493216Y-83021544D01*
X121657188Y-82953624D01*
X121806488Y-82923927D01*
X121831258Y-82919000D01*
X122008742Y-82919000D01*
X122033512Y-82923927D01*
G37*
G36*
X180453512Y-82923927D02*
G01*
X180602812Y-82953624D01*
X180766784Y-83021544D01*
X180914354Y-83120147D01*
X181039853Y-83245646D01*
X181138456Y-83393216D01*
X181206376Y-83557188D01*
X181241000Y-83731259D01*
X181241000Y-83908741D01*
X181206376Y-84082812D01*
X181138456Y-84246784D01*
X181039853Y-84394354D01*
X180914354Y-84519853D01*
X180766784Y-84618456D01*
X180602812Y-84686376D01*
X180453512Y-84716073D01*
X180428742Y-84721000D01*
X180251258Y-84721000D01*
X180226488Y-84716073D01*
X180077188Y-84686376D01*
X179913216Y-84618456D01*
X179765646Y-84519853D01*
X179640147Y-84394354D01*
X179541544Y-84246784D01*
X179473624Y-84082812D01*
X179439000Y-83908741D01*
X179439000Y-83731259D01*
X179473624Y-83557188D01*
X179541544Y-83393216D01*
X179640147Y-83245646D01*
X179765646Y-83120147D01*
X179913216Y-83021544D01*
X180077188Y-82953624D01*
X180226488Y-82923927D01*
X180251258Y-82919000D01*
X180428742Y-82919000D01*
X180453512Y-82923927D01*
G37*
G36*
X182993512Y-82923927D02*
G01*
X183142812Y-82953624D01*
X183306784Y-83021544D01*
X183454354Y-83120147D01*
X183579853Y-83245646D01*
X183678456Y-83393216D01*
X183746376Y-83557188D01*
X183781000Y-83731259D01*
X183781000Y-83908741D01*
X183746376Y-84082812D01*
X183678456Y-84246784D01*
X183579853Y-84394354D01*
X183454354Y-84519853D01*
X183306784Y-84618456D01*
X183142812Y-84686376D01*
X182993512Y-84716073D01*
X182968742Y-84721000D01*
X182791258Y-84721000D01*
X182766488Y-84716073D01*
X182617188Y-84686376D01*
X182453216Y-84618456D01*
X182305646Y-84519853D01*
X182180147Y-84394354D01*
X182081544Y-84246784D01*
X182013624Y-84082812D01*
X181979000Y-83908741D01*
X181979000Y-83731259D01*
X182013624Y-83557188D01*
X182081544Y-83393216D01*
X182180147Y-83245646D01*
X182305646Y-83120147D01*
X182453216Y-83021544D01*
X182617188Y-82953624D01*
X182766488Y-82923927D01*
X182791258Y-82919000D01*
X182968742Y-82919000D01*
X182993512Y-82923927D01*
G37*
G36*
X138736564Y-80269389D02*
G01*
X138927833Y-80348615D01*
X138927835Y-80348616D01*
X139099973Y-80463635D01*
X139246365Y-80610027D01*
X139310256Y-80705646D01*
X139361385Y-80782167D01*
X139440611Y-80973436D01*
X139481000Y-81176484D01*
X139481000Y-81383516D01*
X139440611Y-81586564D01*
X139390815Y-81706782D01*
X139361384Y-81777835D01*
X139246365Y-81949973D01*
X139099973Y-82096365D01*
X138927835Y-82211384D01*
X138927834Y-82211385D01*
X138927833Y-82211385D01*
X138736564Y-82290611D01*
X138533516Y-82331000D01*
X138326484Y-82331000D01*
X138123436Y-82290611D01*
X137932167Y-82211385D01*
X137932166Y-82211385D01*
X137932165Y-82211384D01*
X137760027Y-82096365D01*
X137613635Y-81949973D01*
X137498616Y-81777835D01*
X137469185Y-81706782D01*
X137419389Y-81586564D01*
X137379000Y-81383516D01*
X137379000Y-81176484D01*
X137419389Y-80973436D01*
X137498615Y-80782167D01*
X137549745Y-80705646D01*
X137613635Y-80610027D01*
X137760027Y-80463635D01*
X137932165Y-80348616D01*
X137932167Y-80348615D01*
X138123436Y-80269389D01*
X138326484Y-80229000D01*
X138533516Y-80229000D01*
X138736564Y-80269389D01*
G37*
G36*
X182993512Y-80383927D02*
G01*
X183142812Y-80413624D01*
X183306784Y-80481544D01*
X183454354Y-80580147D01*
X183579853Y-80705646D01*
X183678456Y-80853216D01*
X183746376Y-81017188D01*
X183781000Y-81191259D01*
X183781000Y-81368741D01*
X183746376Y-81542812D01*
X183678456Y-81706784D01*
X183579853Y-81854354D01*
X183454354Y-81979853D01*
X183306784Y-82078456D01*
X183142812Y-82146376D01*
X182993512Y-82176073D01*
X182968742Y-82181000D01*
X182791258Y-82181000D01*
X182766488Y-82176073D01*
X182617188Y-82146376D01*
X182453216Y-82078456D01*
X182305646Y-81979853D01*
X182180147Y-81854354D01*
X182081544Y-81706784D01*
X182013624Y-81542812D01*
X181979000Y-81368741D01*
X181979000Y-81191259D01*
X182013624Y-81017188D01*
X182081544Y-80853216D01*
X182180147Y-80705646D01*
X182305646Y-80580147D01*
X182453216Y-80481544D01*
X182617188Y-80413624D01*
X182766488Y-80383927D01*
X182791258Y-80379000D01*
X182968742Y-80379000D01*
X182993512Y-80383927D01*
G37*
G36*
X180453512Y-80383927D02*
G01*
X180602812Y-80413624D01*
X180766784Y-80481544D01*
X180914354Y-80580147D01*
X181039853Y-80705646D01*
X181138456Y-80853216D01*
X181206376Y-81017188D01*
X181241000Y-81191259D01*
X181241000Y-81368741D01*
X181206376Y-81542812D01*
X181138456Y-81706784D01*
X181039853Y-81854354D01*
X180914354Y-81979853D01*
X180766784Y-82078456D01*
X180602812Y-82146376D01*
X180453512Y-82176073D01*
X180428742Y-82181000D01*
X180251258Y-82181000D01*
X180226488Y-82176073D01*
X180077188Y-82146376D01*
X179913216Y-82078456D01*
X179765646Y-81979853D01*
X179640147Y-81854354D01*
X179541544Y-81706784D01*
X179473624Y-81542812D01*
X179439000Y-81368741D01*
X179439000Y-81191259D01*
X179473624Y-81017188D01*
X179541544Y-80853216D01*
X179640147Y-80705646D01*
X179765646Y-80580147D01*
X179913216Y-80481544D01*
X180077188Y-80413624D01*
X180226488Y-80383927D01*
X180251258Y-80379000D01*
X180428742Y-80379000D01*
X180453512Y-80383927D01*
G37*
G36*
X119493512Y-80383927D02*
G01*
X119642812Y-80413624D01*
X119806784Y-80481544D01*
X119954354Y-80580147D01*
X120079853Y-80705646D01*
X120178456Y-80853216D01*
X120246376Y-81017188D01*
X120281000Y-81191259D01*
X120281000Y-81368741D01*
X120246376Y-81542812D01*
X120178456Y-81706784D01*
X120079853Y-81854354D01*
X119954354Y-81979853D01*
X119806784Y-82078456D01*
X119642812Y-82146376D01*
X119493512Y-82176073D01*
X119468742Y-82181000D01*
X119291258Y-82181000D01*
X119266488Y-82176073D01*
X119117188Y-82146376D01*
X118953216Y-82078456D01*
X118805646Y-81979853D01*
X118680147Y-81854354D01*
X118581544Y-81706784D01*
X118513624Y-81542812D01*
X118479000Y-81368741D01*
X118479000Y-81191259D01*
X118513624Y-81017188D01*
X118581544Y-80853216D01*
X118680147Y-80705646D01*
X118805646Y-80580147D01*
X118953216Y-80481544D01*
X119117188Y-80413624D01*
X119266488Y-80383927D01*
X119291258Y-80379000D01*
X119468742Y-80379000D01*
X119493512Y-80383927D01*
G37*
G36*
X122033512Y-80383927D02*
G01*
X122182812Y-80413624D01*
X122346784Y-80481544D01*
X122494354Y-80580147D01*
X122619853Y-80705646D01*
X122718456Y-80853216D01*
X122786376Y-81017188D01*
X122821000Y-81191259D01*
X122821000Y-81368741D01*
X122786376Y-81542812D01*
X122718456Y-81706784D01*
X122619853Y-81854354D01*
X122494354Y-81979853D01*
X122346784Y-82078456D01*
X122182812Y-82146376D01*
X122033512Y-82176073D01*
X122008742Y-82181000D01*
X121831258Y-82181000D01*
X121806488Y-82176073D01*
X121657188Y-82146376D01*
X121493216Y-82078456D01*
X121345646Y-81979853D01*
X121220147Y-81854354D01*
X121121544Y-81706784D01*
X121053624Y-81542812D01*
X121019000Y-81368741D01*
X121019000Y-81191259D01*
X121053624Y-81017188D01*
X121121544Y-80853216D01*
X121220147Y-80705646D01*
X121345646Y-80580147D01*
X121493216Y-80481544D01*
X121657188Y-80413624D01*
X121806488Y-80383927D01*
X121831258Y-80379000D01*
X122008742Y-80379000D01*
X122033512Y-80383927D01*
G37*
G36*
X155188228Y-80461703D02*
G01*
X155343100Y-80525853D01*
X155482481Y-80618985D01*
X155601015Y-80737519D01*
X155694147Y-80876900D01*
X155758297Y-81031772D01*
X155791000Y-81196184D01*
X155791000Y-81363816D01*
X155758297Y-81528228D01*
X155694147Y-81683100D01*
X155601015Y-81822481D01*
X155482481Y-81941015D01*
X155343100Y-82034147D01*
X155188228Y-82098297D01*
X155023816Y-82131000D01*
X154856184Y-82131000D01*
X154691772Y-82098297D01*
X154536900Y-82034147D01*
X154397519Y-81941015D01*
X154278985Y-81822481D01*
X154185853Y-81683100D01*
X154121703Y-81528228D01*
X154089000Y-81363816D01*
X154089000Y-81196184D01*
X154121703Y-81031772D01*
X154185853Y-80876900D01*
X154278985Y-80737519D01*
X154397519Y-80618985D01*
X154536900Y-80525853D01*
X154691772Y-80461703D01*
X154856184Y-80429000D01*
X155023816Y-80429000D01*
X155188228Y-80461703D01*
G37*
G36*
X132368228Y-80461703D02*
G01*
X132523100Y-80525853D01*
X132662481Y-80618985D01*
X132781015Y-80737519D01*
X132874147Y-80876900D01*
X132938297Y-81031772D01*
X132971000Y-81196184D01*
X132971000Y-81363816D01*
X132938297Y-81528228D01*
X132874147Y-81683100D01*
X132781015Y-81822481D01*
X132662481Y-81941015D01*
X132523100Y-82034147D01*
X132368228Y-82098297D01*
X132203816Y-82131000D01*
X132036184Y-82131000D01*
X131871772Y-82098297D01*
X131716900Y-82034147D01*
X131577519Y-81941015D01*
X131458985Y-81822481D01*
X131365853Y-81683100D01*
X131301703Y-81528228D01*
X131269000Y-81363816D01*
X131269000Y-81196184D01*
X131301703Y-81031772D01*
X131365853Y-80876900D01*
X131458985Y-80737519D01*
X131577519Y-80618985D01*
X131716900Y-80525853D01*
X131871772Y-80461703D01*
X132036184Y-80429000D01*
X132203816Y-80429000D01*
X132368228Y-80461703D01*
G37*
G36*
X134868228Y-80461703D02*
G01*
X135023100Y-80525853D01*
X135162481Y-80618985D01*
X135281015Y-80737519D01*
X135374147Y-80876900D01*
X135438297Y-81031772D01*
X135471000Y-81196184D01*
X135471000Y-81363816D01*
X135438297Y-81528228D01*
X135374147Y-81683100D01*
X135281015Y-81822481D01*
X135162481Y-81941015D01*
X135023100Y-82034147D01*
X134868228Y-82098297D01*
X134703816Y-82131000D01*
X134536184Y-82131000D01*
X134371772Y-82098297D01*
X134216900Y-82034147D01*
X134077519Y-81941015D01*
X133958985Y-81822481D01*
X133865853Y-81683100D01*
X133801703Y-81528228D01*
X133769000Y-81363816D01*
X133769000Y-81196184D01*
X133801703Y-81031772D01*
X133865853Y-80876900D01*
X133958985Y-80737519D01*
X134077519Y-80618985D01*
X134216900Y-80525853D01*
X134371772Y-80461703D01*
X134536184Y-80429000D01*
X134703816Y-80429000D01*
X134868228Y-80461703D01*
G37*
G36*
X165348228Y-80461703D02*
G01*
X165503100Y-80525853D01*
X165642481Y-80618985D01*
X165761015Y-80737519D01*
X165854147Y-80876900D01*
X165918297Y-81031772D01*
X165951000Y-81196184D01*
X165951000Y-81363816D01*
X165918297Y-81528228D01*
X165854147Y-81683100D01*
X165761015Y-81822481D01*
X165642481Y-81941015D01*
X165503100Y-82034147D01*
X165348228Y-82098297D01*
X165183816Y-82131000D01*
X165016184Y-82131000D01*
X164851772Y-82098297D01*
X164696900Y-82034147D01*
X164557519Y-81941015D01*
X164438985Y-81822481D01*
X164345853Y-81683100D01*
X164281703Y-81528228D01*
X164249000Y-81363816D01*
X164249000Y-81196184D01*
X164281703Y-81031772D01*
X164345853Y-80876900D01*
X164438985Y-80737519D01*
X164557519Y-80618985D01*
X164696900Y-80525853D01*
X164851772Y-80461703D01*
X165016184Y-80429000D01*
X165183816Y-80429000D01*
X165348228Y-80461703D01*
G37*
G36*
X152648228Y-80461703D02*
G01*
X152803100Y-80525853D01*
X152942481Y-80618985D01*
X153061015Y-80737519D01*
X153154147Y-80876900D01*
X153218297Y-81031772D01*
X153251000Y-81196184D01*
X153251000Y-81363816D01*
X153218297Y-81528228D01*
X153154147Y-81683100D01*
X153061015Y-81822481D01*
X152942481Y-81941015D01*
X152803100Y-82034147D01*
X152648228Y-82098297D01*
X152483816Y-82131000D01*
X152316184Y-82131000D01*
X152151772Y-82098297D01*
X151996900Y-82034147D01*
X151857519Y-81941015D01*
X151738985Y-81822481D01*
X151645853Y-81683100D01*
X151581703Y-81528228D01*
X151549000Y-81363816D01*
X151549000Y-81196184D01*
X151581703Y-81031772D01*
X151645853Y-80876900D01*
X151738985Y-80737519D01*
X151857519Y-80618985D01*
X151996900Y-80525853D01*
X152151772Y-80461703D01*
X152316184Y-80429000D01*
X152483816Y-80429000D01*
X152648228Y-80461703D01*
G37*
G36*
X142488228Y-80461703D02*
G01*
X142643100Y-80525853D01*
X142782481Y-80618985D01*
X142901015Y-80737519D01*
X142994147Y-80876900D01*
X143058297Y-81031772D01*
X143091000Y-81196184D01*
X143091000Y-81363816D01*
X143058297Y-81528228D01*
X142994147Y-81683100D01*
X142901015Y-81822481D01*
X142782481Y-81941015D01*
X142643100Y-82034147D01*
X142488228Y-82098297D01*
X142323816Y-82131000D01*
X142156184Y-82131000D01*
X141991772Y-82098297D01*
X141836900Y-82034147D01*
X141697519Y-81941015D01*
X141578985Y-81822481D01*
X141485853Y-81683100D01*
X141421703Y-81528228D01*
X141389000Y-81363816D01*
X141389000Y-81196184D01*
X141421703Y-81031772D01*
X141485853Y-80876900D01*
X141578985Y-80737519D01*
X141697519Y-80618985D01*
X141836900Y-80525853D01*
X141991772Y-80461703D01*
X142156184Y-80429000D01*
X142323816Y-80429000D01*
X142488228Y-80461703D01*
G37*
G36*
X182993512Y-77843927D02*
G01*
X183142812Y-77873624D01*
X183306784Y-77941544D01*
X183454354Y-78040147D01*
X183579853Y-78165646D01*
X183678456Y-78313216D01*
X183746376Y-78477188D01*
X183781000Y-78651259D01*
X183781000Y-78828741D01*
X183746376Y-79002812D01*
X183678456Y-79166784D01*
X183579853Y-79314354D01*
X183454354Y-79439853D01*
X183306784Y-79538456D01*
X183142812Y-79606376D01*
X182993512Y-79636073D01*
X182968742Y-79641000D01*
X182791258Y-79641000D01*
X182766488Y-79636073D01*
X182617188Y-79606376D01*
X182453216Y-79538456D01*
X182305646Y-79439853D01*
X182180147Y-79314354D01*
X182081544Y-79166784D01*
X182013624Y-79002812D01*
X181979000Y-78828741D01*
X181979000Y-78651259D01*
X182013624Y-78477188D01*
X182081544Y-78313216D01*
X182180147Y-78165646D01*
X182305646Y-78040147D01*
X182453216Y-77941544D01*
X182617188Y-77873624D01*
X182766488Y-77843927D01*
X182791258Y-77839000D01*
X182968742Y-77839000D01*
X182993512Y-77843927D01*
G37*
G36*
X180453512Y-77843927D02*
G01*
X180602812Y-77873624D01*
X180766784Y-77941544D01*
X180914354Y-78040147D01*
X181039853Y-78165646D01*
X181138456Y-78313216D01*
X181206376Y-78477188D01*
X181241000Y-78651259D01*
X181241000Y-78828741D01*
X181206376Y-79002812D01*
X181138456Y-79166784D01*
X181039853Y-79314354D01*
X180914354Y-79439853D01*
X180766784Y-79538456D01*
X180602812Y-79606376D01*
X180453512Y-79636073D01*
X180428742Y-79641000D01*
X180251258Y-79641000D01*
X180226488Y-79636073D01*
X180077188Y-79606376D01*
X179913216Y-79538456D01*
X179765646Y-79439853D01*
X179640147Y-79314354D01*
X179541544Y-79166784D01*
X179473624Y-79002812D01*
X179439000Y-78828741D01*
X179439000Y-78651259D01*
X179473624Y-78477188D01*
X179541544Y-78313216D01*
X179640147Y-78165646D01*
X179765646Y-78040147D01*
X179913216Y-77941544D01*
X180077188Y-77873624D01*
X180226488Y-77843927D01*
X180251258Y-77839000D01*
X180428742Y-77839000D01*
X180453512Y-77843927D01*
G37*
G36*
X122033512Y-77843927D02*
G01*
X122182812Y-77873624D01*
X122346784Y-77941544D01*
X122494354Y-78040147D01*
X122619853Y-78165646D01*
X122718456Y-78313216D01*
X122786376Y-78477188D01*
X122821000Y-78651259D01*
X122821000Y-78828741D01*
X122786376Y-79002812D01*
X122718456Y-79166784D01*
X122619853Y-79314354D01*
X122494354Y-79439853D01*
X122346784Y-79538456D01*
X122182812Y-79606376D01*
X122033512Y-79636073D01*
X122008742Y-79641000D01*
X121831258Y-79641000D01*
X121806488Y-79636073D01*
X121657188Y-79606376D01*
X121493216Y-79538456D01*
X121345646Y-79439853D01*
X121220147Y-79314354D01*
X121121544Y-79166784D01*
X121053624Y-79002812D01*
X121019000Y-78828741D01*
X121019000Y-78651259D01*
X121053624Y-78477188D01*
X121121544Y-78313216D01*
X121220147Y-78165646D01*
X121345646Y-78040147D01*
X121493216Y-77941544D01*
X121657188Y-77873624D01*
X121806488Y-77843927D01*
X121831258Y-77839000D01*
X122008742Y-77839000D01*
X122033512Y-77843927D01*
G37*
G36*
X119493512Y-77843927D02*
G01*
X119642812Y-77873624D01*
X119806784Y-77941544D01*
X119954354Y-78040147D01*
X120079853Y-78165646D01*
X120178456Y-78313216D01*
X120246376Y-78477188D01*
X120281000Y-78651259D01*
X120281000Y-78828741D01*
X120246376Y-79002812D01*
X120178456Y-79166784D01*
X120079853Y-79314354D01*
X119954354Y-79439853D01*
X119806784Y-79538456D01*
X119642812Y-79606376D01*
X119493512Y-79636073D01*
X119468742Y-79641000D01*
X119291258Y-79641000D01*
X119266488Y-79636073D01*
X119117188Y-79606376D01*
X118953216Y-79538456D01*
X118805646Y-79439853D01*
X118680147Y-79314354D01*
X118581544Y-79166784D01*
X118513624Y-79002812D01*
X118479000Y-78828741D01*
X118479000Y-78651259D01*
X118513624Y-78477188D01*
X118581544Y-78313216D01*
X118680147Y-78165646D01*
X118805646Y-78040147D01*
X118953216Y-77941544D01*
X119117188Y-77873624D01*
X119266488Y-77843927D01*
X119291258Y-77839000D01*
X119468742Y-77839000D01*
X119493512Y-77843927D01*
G37*
G36*
X122033512Y-75303927D02*
G01*
X122182812Y-75333624D01*
X122346784Y-75401544D01*
X122494354Y-75500147D01*
X122619853Y-75625646D01*
X122718456Y-75773216D01*
X122786376Y-75937188D01*
X122821000Y-76111259D01*
X122821000Y-76288741D01*
X122786376Y-76462812D01*
X122718456Y-76626784D01*
X122619853Y-76774354D01*
X122494354Y-76899853D01*
X122346784Y-76998456D01*
X122182812Y-77066376D01*
X122033512Y-77096073D01*
X122008742Y-77101000D01*
X121831258Y-77101000D01*
X121806488Y-77096073D01*
X121657188Y-77066376D01*
X121493216Y-76998456D01*
X121345646Y-76899853D01*
X121220147Y-76774354D01*
X121121544Y-76626784D01*
X121053624Y-76462812D01*
X121019000Y-76288741D01*
X121019000Y-76111259D01*
X121053624Y-75937188D01*
X121121544Y-75773216D01*
X121220147Y-75625646D01*
X121345646Y-75500147D01*
X121493216Y-75401544D01*
X121657188Y-75333624D01*
X121806488Y-75303927D01*
X121831258Y-75299000D01*
X122008742Y-75299000D01*
X122033512Y-75303927D01*
G37*
G36*
X119493512Y-75303927D02*
G01*
X119642812Y-75333624D01*
X119806784Y-75401544D01*
X119954354Y-75500147D01*
X120079853Y-75625646D01*
X120178456Y-75773216D01*
X120246376Y-75937188D01*
X120281000Y-76111259D01*
X120281000Y-76288741D01*
X120246376Y-76462812D01*
X120178456Y-76626784D01*
X120079853Y-76774354D01*
X119954354Y-76899853D01*
X119806784Y-76998456D01*
X119642812Y-77066376D01*
X119493512Y-77096073D01*
X119468742Y-77101000D01*
X119291258Y-77101000D01*
X119266488Y-77096073D01*
X119117188Y-77066376D01*
X118953216Y-76998456D01*
X118805646Y-76899853D01*
X118680147Y-76774354D01*
X118581544Y-76626784D01*
X118513624Y-76462812D01*
X118479000Y-76288741D01*
X118479000Y-76111259D01*
X118513624Y-75937188D01*
X118581544Y-75773216D01*
X118680147Y-75625646D01*
X118805646Y-75500147D01*
X118953216Y-75401544D01*
X119117188Y-75333624D01*
X119266488Y-75303927D01*
X119291258Y-75299000D01*
X119468742Y-75299000D01*
X119493512Y-75303927D01*
G37*
G36*
X180453512Y-75303927D02*
G01*
X180602812Y-75333624D01*
X180766784Y-75401544D01*
X180914354Y-75500147D01*
X181039853Y-75625646D01*
X181138456Y-75773216D01*
X181206376Y-75937188D01*
X181241000Y-76111259D01*
X181241000Y-76288741D01*
X181206376Y-76462812D01*
X181138456Y-76626784D01*
X181039853Y-76774354D01*
X180914354Y-76899853D01*
X180766784Y-76998456D01*
X180602812Y-77066376D01*
X180453512Y-77096073D01*
X180428742Y-77101000D01*
X180251258Y-77101000D01*
X180226488Y-77096073D01*
X180077188Y-77066376D01*
X179913216Y-76998456D01*
X179765646Y-76899853D01*
X179640147Y-76774354D01*
X179541544Y-76626784D01*
X179473624Y-76462812D01*
X179439000Y-76288741D01*
X179439000Y-76111259D01*
X179473624Y-75937188D01*
X179541544Y-75773216D01*
X179640147Y-75625646D01*
X179765646Y-75500147D01*
X179913216Y-75401544D01*
X180077188Y-75333624D01*
X180226488Y-75303927D01*
X180251258Y-75299000D01*
X180428742Y-75299000D01*
X180453512Y-75303927D01*
G37*
G36*
X182993512Y-75303927D02*
G01*
X183142812Y-75333624D01*
X183306784Y-75401544D01*
X183454354Y-75500147D01*
X183579853Y-75625646D01*
X183678456Y-75773216D01*
X183746376Y-75937188D01*
X183781000Y-76111259D01*
X183781000Y-76288741D01*
X183746376Y-76462812D01*
X183678456Y-76626784D01*
X183579853Y-76774354D01*
X183454354Y-76899853D01*
X183306784Y-76998456D01*
X183142812Y-77066376D01*
X182993512Y-77096073D01*
X182968742Y-77101000D01*
X182791258Y-77101000D01*
X182766488Y-77096073D01*
X182617188Y-77066376D01*
X182453216Y-76998456D01*
X182305646Y-76899853D01*
X182180147Y-76774354D01*
X182081544Y-76626784D01*
X182013624Y-76462812D01*
X181979000Y-76288741D01*
X181979000Y-76111259D01*
X182013624Y-75937188D01*
X182081544Y-75773216D01*
X182180147Y-75625646D01*
X182305646Y-75500147D01*
X182453216Y-75401544D01*
X182617188Y-75333624D01*
X182766488Y-75303927D01*
X182791258Y-75299000D01*
X182968742Y-75299000D01*
X182993512Y-75303927D01*
G37*
G36*
X142488228Y-75381703D02*
G01*
X142643100Y-75445853D01*
X142782481Y-75538985D01*
X142901015Y-75657519D01*
X142994147Y-75796900D01*
X143058297Y-75951772D01*
X143091000Y-76116184D01*
X143091000Y-76283816D01*
X143058297Y-76448228D01*
X142994147Y-76603100D01*
X142901015Y-76742481D01*
X142782481Y-76861015D01*
X142643100Y-76954147D01*
X142488228Y-77018297D01*
X142323816Y-77051000D01*
X142156184Y-77051000D01*
X141991772Y-77018297D01*
X141836900Y-76954147D01*
X141697519Y-76861015D01*
X141578985Y-76742481D01*
X141485853Y-76603100D01*
X141421703Y-76448228D01*
X141389000Y-76283816D01*
X141389000Y-76116184D01*
X141421703Y-75951772D01*
X141485853Y-75796900D01*
X141578985Y-75657519D01*
X141697519Y-75538985D01*
X141836900Y-75445853D01*
X141991772Y-75381703D01*
X142156184Y-75349000D01*
X142323816Y-75349000D01*
X142488228Y-75381703D01*
G37*
G36*
X172968228Y-75381703D02*
G01*
X173123100Y-75445853D01*
X173262481Y-75538985D01*
X173381015Y-75657519D01*
X173474147Y-75796900D01*
X173538297Y-75951772D01*
X173571000Y-76116184D01*
X173571000Y-76283816D01*
X173538297Y-76448228D01*
X173474147Y-76603100D01*
X173381015Y-76742481D01*
X173262481Y-76861015D01*
X173123100Y-76954147D01*
X172968228Y-77018297D01*
X172803816Y-77051000D01*
X172636184Y-77051000D01*
X172471772Y-77018297D01*
X172316900Y-76954147D01*
X172177519Y-76861015D01*
X172058985Y-76742481D01*
X171965853Y-76603100D01*
X171901703Y-76448228D01*
X171869000Y-76283816D01*
X171869000Y-76116184D01*
X171901703Y-75951772D01*
X171965853Y-75796900D01*
X172058985Y-75657519D01*
X172177519Y-75538985D01*
X172316900Y-75445853D01*
X172471772Y-75381703D01*
X172636184Y-75349000D01*
X172803816Y-75349000D01*
X172968228Y-75381703D01*
G37*
G36*
X155188228Y-75381703D02*
G01*
X155343100Y-75445853D01*
X155482481Y-75538985D01*
X155601015Y-75657519D01*
X155694147Y-75796900D01*
X155758297Y-75951772D01*
X155791000Y-76116184D01*
X155791000Y-76283816D01*
X155758297Y-76448228D01*
X155694147Y-76603100D01*
X155601015Y-76742481D01*
X155482481Y-76861015D01*
X155343100Y-76954147D01*
X155188228Y-77018297D01*
X155023816Y-77051000D01*
X154856184Y-77051000D01*
X154691772Y-77018297D01*
X154536900Y-76954147D01*
X154397519Y-76861015D01*
X154278985Y-76742481D01*
X154185853Y-76603100D01*
X154121703Y-76448228D01*
X154089000Y-76283816D01*
X154089000Y-76116184D01*
X154121703Y-75951772D01*
X154185853Y-75796900D01*
X154278985Y-75657519D01*
X154397519Y-75538985D01*
X154536900Y-75445853D01*
X154691772Y-75381703D01*
X154856184Y-75349000D01*
X155023816Y-75349000D01*
X155188228Y-75381703D01*
G37*
G36*
X152648228Y-75381703D02*
G01*
X152803100Y-75445853D01*
X152942481Y-75538985D01*
X153061015Y-75657519D01*
X153154147Y-75796900D01*
X153218297Y-75951772D01*
X153251000Y-76116184D01*
X153251000Y-76283816D01*
X153218297Y-76448228D01*
X153154147Y-76603100D01*
X153061015Y-76742481D01*
X152942481Y-76861015D01*
X152803100Y-76954147D01*
X152648228Y-77018297D01*
X152483816Y-77051000D01*
X152316184Y-77051000D01*
X152151772Y-77018297D01*
X151996900Y-76954147D01*
X151857519Y-76861015D01*
X151738985Y-76742481D01*
X151645853Y-76603100D01*
X151581703Y-76448228D01*
X151549000Y-76283816D01*
X151549000Y-76116184D01*
X151581703Y-75951772D01*
X151645853Y-75796900D01*
X151738985Y-75657519D01*
X151857519Y-75538985D01*
X151996900Y-75445853D01*
X152151772Y-75381703D01*
X152316184Y-75349000D01*
X152483816Y-75349000D01*
X152648228Y-75381703D01*
G37*
G36*
X165348228Y-75381703D02*
G01*
X165503100Y-75445853D01*
X165642481Y-75538985D01*
X165761015Y-75657519D01*
X165854147Y-75796900D01*
X165918297Y-75951772D01*
X165951000Y-76116184D01*
X165951000Y-76283816D01*
X165918297Y-76448228D01*
X165854147Y-76603100D01*
X165761015Y-76742481D01*
X165642481Y-76861015D01*
X165503100Y-76954147D01*
X165348228Y-77018297D01*
X165183816Y-77051000D01*
X165016184Y-77051000D01*
X164851772Y-77018297D01*
X164696900Y-76954147D01*
X164557519Y-76861015D01*
X164438985Y-76742481D01*
X164345853Y-76603100D01*
X164281703Y-76448228D01*
X164249000Y-76283816D01*
X164249000Y-76116184D01*
X164281703Y-75951772D01*
X164345853Y-75796900D01*
X164438985Y-75657519D01*
X164557519Y-75538985D01*
X164696900Y-75445853D01*
X164851772Y-75381703D01*
X165016184Y-75349000D01*
X165183816Y-75349000D01*
X165348228Y-75381703D01*
G37*
G36*
X119493512Y-72763927D02*
G01*
X119642812Y-72793624D01*
X119806784Y-72861544D01*
X119954354Y-72960147D01*
X120079853Y-73085646D01*
X120178456Y-73233216D01*
X120246376Y-73397188D01*
X120281000Y-73571259D01*
X120281000Y-73748741D01*
X120246376Y-73922812D01*
X120178456Y-74086784D01*
X120079853Y-74234354D01*
X119954354Y-74359853D01*
X119806784Y-74458456D01*
X119642812Y-74526376D01*
X119493512Y-74556073D01*
X119468742Y-74561000D01*
X119291258Y-74561000D01*
X119266488Y-74556073D01*
X119117188Y-74526376D01*
X118953216Y-74458456D01*
X118805646Y-74359853D01*
X118680147Y-74234354D01*
X118581544Y-74086784D01*
X118513624Y-73922812D01*
X118479000Y-73748741D01*
X118479000Y-73571259D01*
X118513624Y-73397188D01*
X118581544Y-73233216D01*
X118680147Y-73085646D01*
X118805646Y-72960147D01*
X118953216Y-72861544D01*
X119117188Y-72793624D01*
X119266488Y-72763927D01*
X119291258Y-72759000D01*
X119468742Y-72759000D01*
X119493512Y-72763927D01*
G37*
G36*
X182993512Y-72763927D02*
G01*
X183142812Y-72793624D01*
X183306784Y-72861544D01*
X183454354Y-72960147D01*
X183579853Y-73085646D01*
X183678456Y-73233216D01*
X183746376Y-73397188D01*
X183781000Y-73571259D01*
X183781000Y-73748741D01*
X183746376Y-73922812D01*
X183678456Y-74086784D01*
X183579853Y-74234354D01*
X183454354Y-74359853D01*
X183306784Y-74458456D01*
X183142812Y-74526376D01*
X182993512Y-74556073D01*
X182968742Y-74561000D01*
X182791258Y-74561000D01*
X182766488Y-74556073D01*
X182617188Y-74526376D01*
X182453216Y-74458456D01*
X182305646Y-74359853D01*
X182180147Y-74234354D01*
X182081544Y-74086784D01*
X182013624Y-73922812D01*
X181979000Y-73748741D01*
X181979000Y-73571259D01*
X182013624Y-73397188D01*
X182081544Y-73233216D01*
X182180147Y-73085646D01*
X182305646Y-72960147D01*
X182453216Y-72861544D01*
X182617188Y-72793624D01*
X182766488Y-72763927D01*
X182791258Y-72759000D01*
X182968742Y-72759000D01*
X182993512Y-72763927D01*
G37*
G36*
X180453512Y-72763927D02*
G01*
X180602812Y-72793624D01*
X180766784Y-72861544D01*
X180914354Y-72960147D01*
X181039853Y-73085646D01*
X181138456Y-73233216D01*
X181206376Y-73397188D01*
X181241000Y-73571259D01*
X181241000Y-73748741D01*
X181206376Y-73922812D01*
X181138456Y-74086784D01*
X181039853Y-74234354D01*
X180914354Y-74359853D01*
X180766784Y-74458456D01*
X180602812Y-74526376D01*
X180453512Y-74556073D01*
X180428742Y-74561000D01*
X180251258Y-74561000D01*
X180226488Y-74556073D01*
X180077188Y-74526376D01*
X179913216Y-74458456D01*
X179765646Y-74359853D01*
X179640147Y-74234354D01*
X179541544Y-74086784D01*
X179473624Y-73922812D01*
X179439000Y-73748741D01*
X179439000Y-73571259D01*
X179473624Y-73397188D01*
X179541544Y-73233216D01*
X179640147Y-73085646D01*
X179765646Y-72960147D01*
X179913216Y-72861544D01*
X180077188Y-72793624D01*
X180226488Y-72763927D01*
X180251258Y-72759000D01*
X180428742Y-72759000D01*
X180453512Y-72763927D01*
G37*
G36*
X122033512Y-72763927D02*
G01*
X122182812Y-72793624D01*
X122346784Y-72861544D01*
X122494354Y-72960147D01*
X122619853Y-73085646D01*
X122718456Y-73233216D01*
X122786376Y-73397188D01*
X122821000Y-73571259D01*
X122821000Y-73748741D01*
X122786376Y-73922812D01*
X122718456Y-74086784D01*
X122619853Y-74234354D01*
X122494354Y-74359853D01*
X122346784Y-74458456D01*
X122182812Y-74526376D01*
X122033512Y-74556073D01*
X122008742Y-74561000D01*
X121831258Y-74561000D01*
X121806488Y-74556073D01*
X121657188Y-74526376D01*
X121493216Y-74458456D01*
X121345646Y-74359853D01*
X121220147Y-74234354D01*
X121121544Y-74086784D01*
X121053624Y-73922812D01*
X121019000Y-73748741D01*
X121019000Y-73571259D01*
X121053624Y-73397188D01*
X121121544Y-73233216D01*
X121220147Y-73085646D01*
X121345646Y-72960147D01*
X121493216Y-72861544D01*
X121657188Y-72793624D01*
X121806488Y-72763927D01*
X121831258Y-72759000D01*
X122008742Y-72759000D01*
X122033512Y-72763927D01*
G37*
G36*
X175566564Y-72014389D02*
G01*
X175757833Y-72093615D01*
X175757835Y-72093616D01*
X175929973Y-72208635D01*
X176076365Y-72355027D01*
X176191385Y-72527167D01*
X176270611Y-72718436D01*
X176311000Y-72921484D01*
X176311000Y-73128516D01*
X176270611Y-73331564D01*
X176243428Y-73397189D01*
X176191384Y-73522835D01*
X176076365Y-73694973D01*
X175929973Y-73841365D01*
X175757835Y-73956384D01*
X175757834Y-73956385D01*
X175757833Y-73956385D01*
X175566564Y-74035611D01*
X175363516Y-74076000D01*
X175156484Y-74076000D01*
X174953436Y-74035611D01*
X174762167Y-73956385D01*
X174762166Y-73956385D01*
X174762165Y-73956384D01*
X174590027Y-73841365D01*
X174443635Y-73694973D01*
X174328616Y-73522835D01*
X174276572Y-73397189D01*
X174249389Y-73331564D01*
X174209000Y-73128516D01*
X174209000Y-72921484D01*
X174249389Y-72718436D01*
X174328615Y-72527167D01*
X174443635Y-72355027D01*
X174590027Y-72208635D01*
X174762165Y-72093616D01*
X174762167Y-72093615D01*
X174953436Y-72014389D01*
X175156484Y-71974000D01*
X175363516Y-71974000D01*
X175566564Y-72014389D01*
G37*
G36*
X180453512Y-70223927D02*
G01*
X180602812Y-70253624D01*
X180766784Y-70321544D01*
X180914354Y-70420147D01*
X181039853Y-70545646D01*
X181138456Y-70693216D01*
X181206376Y-70857188D01*
X181241000Y-71031259D01*
X181241000Y-71208741D01*
X181206376Y-71382812D01*
X181138456Y-71546784D01*
X181039853Y-71694354D01*
X180914354Y-71819853D01*
X180766784Y-71918456D01*
X180602812Y-71986376D01*
X180453512Y-72016073D01*
X180428742Y-72021000D01*
X180251258Y-72021000D01*
X180226488Y-72016073D01*
X180077188Y-71986376D01*
X179913216Y-71918456D01*
X179765646Y-71819853D01*
X179640147Y-71694354D01*
X179541544Y-71546784D01*
X179473624Y-71382812D01*
X179439000Y-71208741D01*
X179439000Y-71031259D01*
X179473624Y-70857188D01*
X179541544Y-70693216D01*
X179640147Y-70545646D01*
X179765646Y-70420147D01*
X179913216Y-70321544D01*
X180077188Y-70253624D01*
X180226488Y-70223927D01*
X180251258Y-70219000D01*
X180428742Y-70219000D01*
X180453512Y-70223927D01*
G37*
G36*
X122033512Y-70223927D02*
G01*
X122182812Y-70253624D01*
X122346784Y-70321544D01*
X122494354Y-70420147D01*
X122619853Y-70545646D01*
X122718456Y-70693216D01*
X122786376Y-70857188D01*
X122821000Y-71031259D01*
X122821000Y-71208741D01*
X122786376Y-71382812D01*
X122718456Y-71546784D01*
X122619853Y-71694354D01*
X122494354Y-71819853D01*
X122346784Y-71918456D01*
X122182812Y-71986376D01*
X122033512Y-72016073D01*
X122008742Y-72021000D01*
X121831258Y-72021000D01*
X121806488Y-72016073D01*
X121657188Y-71986376D01*
X121493216Y-71918456D01*
X121345646Y-71819853D01*
X121220147Y-71694354D01*
X121121544Y-71546784D01*
X121053624Y-71382812D01*
X121019000Y-71208741D01*
X121019000Y-71031259D01*
X121053624Y-70857188D01*
X121121544Y-70693216D01*
X121220147Y-70545646D01*
X121345646Y-70420147D01*
X121493216Y-70321544D01*
X121657188Y-70253624D01*
X121806488Y-70223927D01*
X121831258Y-70219000D01*
X122008742Y-70219000D01*
X122033512Y-70223927D01*
G37*
G36*
X182993512Y-70223927D02*
G01*
X183142812Y-70253624D01*
X183306784Y-70321544D01*
X183454354Y-70420147D01*
X183579853Y-70545646D01*
X183678456Y-70693216D01*
X183746376Y-70857188D01*
X183781000Y-71031259D01*
X183781000Y-71208741D01*
X183746376Y-71382812D01*
X183678456Y-71546784D01*
X183579853Y-71694354D01*
X183454354Y-71819853D01*
X183306784Y-71918456D01*
X183142812Y-71986376D01*
X182993512Y-72016073D01*
X182968742Y-72021000D01*
X182791258Y-72021000D01*
X182766488Y-72016073D01*
X182617188Y-71986376D01*
X182453216Y-71918456D01*
X182305646Y-71819853D01*
X182180147Y-71694354D01*
X182081544Y-71546784D01*
X182013624Y-71382812D01*
X181979000Y-71208741D01*
X181979000Y-71031259D01*
X182013624Y-70857188D01*
X182081544Y-70693216D01*
X182180147Y-70545646D01*
X182305646Y-70420147D01*
X182453216Y-70321544D01*
X182617188Y-70253624D01*
X182766488Y-70223927D01*
X182791258Y-70219000D01*
X182968742Y-70219000D01*
X182993512Y-70223927D01*
G37*
G36*
X119493512Y-70223927D02*
G01*
X119642812Y-70253624D01*
X119806784Y-70321544D01*
X119954354Y-70420147D01*
X120079853Y-70545646D01*
X120178456Y-70693216D01*
X120246376Y-70857188D01*
X120281000Y-71031259D01*
X120281000Y-71208741D01*
X120246376Y-71382812D01*
X120178456Y-71546784D01*
X120079853Y-71694354D01*
X119954354Y-71819853D01*
X119806784Y-71918456D01*
X119642812Y-71986376D01*
X119493512Y-72016073D01*
X119468742Y-72021000D01*
X119291258Y-72021000D01*
X119266488Y-72016073D01*
X119117188Y-71986376D01*
X118953216Y-71918456D01*
X118805646Y-71819853D01*
X118680147Y-71694354D01*
X118581544Y-71546784D01*
X118513624Y-71382812D01*
X118479000Y-71208741D01*
X118479000Y-71031259D01*
X118513624Y-70857188D01*
X118581544Y-70693216D01*
X118680147Y-70545646D01*
X118805646Y-70420147D01*
X118953216Y-70321544D01*
X119117188Y-70253624D01*
X119266488Y-70223927D01*
X119291258Y-70219000D01*
X119468742Y-70219000D01*
X119493512Y-70223927D01*
G37*
G36*
X131047142Y-70338242D02*
G01*
X131195101Y-70399529D01*
X131328255Y-70488499D01*
X131441501Y-70601745D01*
X131530471Y-70734899D01*
X131591758Y-70882858D01*
X131623000Y-71039925D01*
X131623000Y-71200075D01*
X131591758Y-71357142D01*
X131530471Y-71505101D01*
X131441501Y-71638255D01*
X131328255Y-71751501D01*
X131195101Y-71840471D01*
X131047142Y-71901758D01*
X130890075Y-71933000D01*
X130729925Y-71933000D01*
X130572858Y-71901758D01*
X130424899Y-71840471D01*
X130291745Y-71751501D01*
X130178499Y-71638255D01*
X130089529Y-71505101D01*
X130028242Y-71357142D01*
X129997000Y-71200075D01*
X129997000Y-71039925D01*
X130028242Y-70882858D01*
X130089529Y-70734899D01*
X130178499Y-70601745D01*
X130291745Y-70488499D01*
X130424899Y-70399529D01*
X130572858Y-70338242D01*
X130729925Y-70307000D01*
X130890075Y-70307000D01*
X131047142Y-70338242D01*
G37*
G36*
X169147142Y-70338242D02*
G01*
X169295101Y-70399529D01*
X169428255Y-70488499D01*
X169541501Y-70601745D01*
X169630471Y-70734899D01*
X169691758Y-70882858D01*
X169723000Y-71039925D01*
X169723000Y-71200075D01*
X169691758Y-71357142D01*
X169630471Y-71505101D01*
X169541501Y-71638255D01*
X169428255Y-71751501D01*
X169295101Y-71840471D01*
X169147142Y-71901758D01*
X168990075Y-71933000D01*
X168829925Y-71933000D01*
X168672858Y-71901758D01*
X168524899Y-71840471D01*
X168391745Y-71751501D01*
X168278499Y-71638255D01*
X168189529Y-71505101D01*
X168128242Y-71357142D01*
X168097000Y-71200075D01*
X168097000Y-71039925D01*
X168128242Y-70882858D01*
X168189529Y-70734899D01*
X168278499Y-70601745D01*
X168391745Y-70488499D01*
X168524899Y-70399529D01*
X168672858Y-70338242D01*
X168829925Y-70307000D01*
X168990075Y-70307000D01*
X169147142Y-70338242D01*
G37*
G36*
X180453512Y-67683927D02*
G01*
X180602812Y-67713624D01*
X180766784Y-67781544D01*
X180914354Y-67880147D01*
X181039853Y-68005646D01*
X181138456Y-68153216D01*
X181206376Y-68317188D01*
X181241000Y-68491259D01*
X181241000Y-68668741D01*
X181206376Y-68842812D01*
X181138456Y-69006784D01*
X181039853Y-69154354D01*
X180914354Y-69279853D01*
X180766784Y-69378456D01*
X180602812Y-69446376D01*
X180453512Y-69476073D01*
X180428742Y-69481000D01*
X180251258Y-69481000D01*
X180226488Y-69476073D01*
X180077188Y-69446376D01*
X179913216Y-69378456D01*
X179765646Y-69279853D01*
X179640147Y-69154354D01*
X179541544Y-69006784D01*
X179473624Y-68842812D01*
X179439000Y-68668741D01*
X179439000Y-68491259D01*
X179473624Y-68317188D01*
X179541544Y-68153216D01*
X179640147Y-68005646D01*
X179765646Y-67880147D01*
X179913216Y-67781544D01*
X180077188Y-67713624D01*
X180226488Y-67683927D01*
X180251258Y-67679000D01*
X180428742Y-67679000D01*
X180453512Y-67683927D01*
G37*
G36*
X122033512Y-67683927D02*
G01*
X122182812Y-67713624D01*
X122346784Y-67781544D01*
X122494354Y-67880147D01*
X122619853Y-68005646D01*
X122718456Y-68153216D01*
X122786376Y-68317188D01*
X122821000Y-68491259D01*
X122821000Y-68668741D01*
X122786376Y-68842812D01*
X122718456Y-69006784D01*
X122619853Y-69154354D01*
X122494354Y-69279853D01*
X122346784Y-69378456D01*
X122182812Y-69446376D01*
X122033512Y-69476073D01*
X122008742Y-69481000D01*
X121831258Y-69481000D01*
X121806488Y-69476073D01*
X121657188Y-69446376D01*
X121493216Y-69378456D01*
X121345646Y-69279853D01*
X121220147Y-69154354D01*
X121121544Y-69006784D01*
X121053624Y-68842812D01*
X121019000Y-68668741D01*
X121019000Y-68491259D01*
X121053624Y-68317188D01*
X121121544Y-68153216D01*
X121220147Y-68005646D01*
X121345646Y-67880147D01*
X121493216Y-67781544D01*
X121657188Y-67713624D01*
X121806488Y-67683927D01*
X121831258Y-67679000D01*
X122008742Y-67679000D01*
X122033512Y-67683927D01*
G37*
G36*
X182993512Y-67683927D02*
G01*
X183142812Y-67713624D01*
X183306784Y-67781544D01*
X183454354Y-67880147D01*
X183579853Y-68005646D01*
X183678456Y-68153216D01*
X183746376Y-68317188D01*
X183781000Y-68491259D01*
X183781000Y-68668741D01*
X183746376Y-68842812D01*
X183678456Y-69006784D01*
X183579853Y-69154354D01*
X183454354Y-69279853D01*
X183306784Y-69378456D01*
X183142812Y-69446376D01*
X182993512Y-69476073D01*
X182968742Y-69481000D01*
X182791258Y-69481000D01*
X182766488Y-69476073D01*
X182617188Y-69446376D01*
X182453216Y-69378456D01*
X182305646Y-69279853D01*
X182180147Y-69154354D01*
X182081544Y-69006784D01*
X182013624Y-68842812D01*
X181979000Y-68668741D01*
X181979000Y-68491259D01*
X182013624Y-68317188D01*
X182081544Y-68153216D01*
X182180147Y-68005646D01*
X182305646Y-67880147D01*
X182453216Y-67781544D01*
X182617188Y-67713624D01*
X182766488Y-67683927D01*
X182791258Y-67679000D01*
X182968742Y-67679000D01*
X182993512Y-67683927D01*
G37*
G36*
X119493512Y-67683927D02*
G01*
X119642812Y-67713624D01*
X119806784Y-67781544D01*
X119954354Y-67880147D01*
X120079853Y-68005646D01*
X120178456Y-68153216D01*
X120246376Y-68317188D01*
X120281000Y-68491259D01*
X120281000Y-68668741D01*
X120246376Y-68842812D01*
X120178456Y-69006784D01*
X120079853Y-69154354D01*
X119954354Y-69279853D01*
X119806784Y-69378456D01*
X119642812Y-69446376D01*
X119493512Y-69476073D01*
X119468742Y-69481000D01*
X119291258Y-69481000D01*
X119266488Y-69476073D01*
X119117188Y-69446376D01*
X118953216Y-69378456D01*
X118805646Y-69279853D01*
X118680147Y-69154354D01*
X118581544Y-69006784D01*
X118513624Y-68842812D01*
X118479000Y-68668741D01*
X118479000Y-68491259D01*
X118513624Y-68317188D01*
X118581544Y-68153216D01*
X118680147Y-68005646D01*
X118805646Y-67880147D01*
X118953216Y-67781544D01*
X119117188Y-67713624D01*
X119266488Y-67683927D01*
X119291258Y-67679000D01*
X119468742Y-67679000D01*
X119493512Y-67683927D01*
G37*
G36*
X131047142Y-67798242D02*
G01*
X131195101Y-67859529D01*
X131328255Y-67948499D01*
X131441501Y-68061745D01*
X131530471Y-68194899D01*
X131591758Y-68342858D01*
X131623000Y-68499925D01*
X131623000Y-68660075D01*
X131591758Y-68817142D01*
X131530471Y-68965101D01*
X131441501Y-69098255D01*
X131328255Y-69211501D01*
X131195101Y-69300471D01*
X131047142Y-69361758D01*
X130890075Y-69393000D01*
X130729925Y-69393000D01*
X130572858Y-69361758D01*
X130424899Y-69300471D01*
X130291745Y-69211501D01*
X130178499Y-69098255D01*
X130089529Y-68965101D01*
X130028242Y-68817142D01*
X129997000Y-68660075D01*
X129997000Y-68499925D01*
X130028242Y-68342858D01*
X130089529Y-68194899D01*
X130178499Y-68061745D01*
X130291745Y-67948499D01*
X130424899Y-67859529D01*
X130572858Y-67798242D01*
X130729925Y-67767000D01*
X130890075Y-67767000D01*
X131047142Y-67798242D01*
G37*
G36*
X169147142Y-67798242D02*
G01*
X169295101Y-67859529D01*
X169428255Y-67948499D01*
X169541501Y-68061745D01*
X169630471Y-68194899D01*
X169691758Y-68342858D01*
X169723000Y-68499925D01*
X169723000Y-68660075D01*
X169691758Y-68817142D01*
X169630471Y-68965101D01*
X169541501Y-69098255D01*
X169428255Y-69211501D01*
X169295101Y-69300471D01*
X169147142Y-69361758D01*
X168990075Y-69393000D01*
X168829925Y-69393000D01*
X168672858Y-69361758D01*
X168524899Y-69300471D01*
X168391745Y-69211501D01*
X168278499Y-69098255D01*
X168189529Y-68965101D01*
X168128242Y-68817142D01*
X168097000Y-68660075D01*
X168097000Y-68499925D01*
X168128242Y-68342858D01*
X168189529Y-68194899D01*
X168278499Y-68061745D01*
X168391745Y-67948499D01*
X168524899Y-67859529D01*
X168672858Y-67798242D01*
X168829925Y-67767000D01*
X168990075Y-67767000D01*
X169147142Y-67798242D01*
G37*
G36*
X119493512Y-65143927D02*
G01*
X119642812Y-65173624D01*
X119806784Y-65241544D01*
X119954354Y-65340147D01*
X120079853Y-65465646D01*
X120178456Y-65613216D01*
X120246376Y-65777188D01*
X120281000Y-65951259D01*
X120281000Y-66128741D01*
X120246376Y-66302812D01*
X120178456Y-66466784D01*
X120079853Y-66614354D01*
X119954354Y-66739853D01*
X119806784Y-66838456D01*
X119642812Y-66906376D01*
X119493512Y-66936073D01*
X119468742Y-66941000D01*
X119291258Y-66941000D01*
X119266488Y-66936073D01*
X119117188Y-66906376D01*
X118953216Y-66838456D01*
X118805646Y-66739853D01*
X118680147Y-66614354D01*
X118581544Y-66466784D01*
X118513624Y-66302812D01*
X118479000Y-66128741D01*
X118479000Y-65951259D01*
X118513624Y-65777188D01*
X118581544Y-65613216D01*
X118680147Y-65465646D01*
X118805646Y-65340147D01*
X118953216Y-65241544D01*
X119117188Y-65173624D01*
X119266488Y-65143927D01*
X119291258Y-65139000D01*
X119468742Y-65139000D01*
X119493512Y-65143927D01*
G37*
G36*
X122033512Y-65143927D02*
G01*
X122182812Y-65173624D01*
X122346784Y-65241544D01*
X122494354Y-65340147D01*
X122619853Y-65465646D01*
X122718456Y-65613216D01*
X122786376Y-65777188D01*
X122821000Y-65951259D01*
X122821000Y-66128741D01*
X122786376Y-66302812D01*
X122718456Y-66466784D01*
X122619853Y-66614354D01*
X122494354Y-66739853D01*
X122346784Y-66838456D01*
X122182812Y-66906376D01*
X122033512Y-66936073D01*
X122008742Y-66941000D01*
X121831258Y-66941000D01*
X121806488Y-66936073D01*
X121657188Y-66906376D01*
X121493216Y-66838456D01*
X121345646Y-66739853D01*
X121220147Y-66614354D01*
X121121544Y-66466784D01*
X121053624Y-66302812D01*
X121019000Y-66128741D01*
X121019000Y-65951259D01*
X121053624Y-65777188D01*
X121121544Y-65613216D01*
X121220147Y-65465646D01*
X121345646Y-65340147D01*
X121493216Y-65241544D01*
X121657188Y-65173624D01*
X121806488Y-65143927D01*
X121831258Y-65139000D01*
X122008742Y-65139000D01*
X122033512Y-65143927D01*
G37*
G36*
X182993512Y-65143927D02*
G01*
X183142812Y-65173624D01*
X183306784Y-65241544D01*
X183454354Y-65340147D01*
X183579853Y-65465646D01*
X183678456Y-65613216D01*
X183746376Y-65777188D01*
X183781000Y-65951259D01*
X183781000Y-66128741D01*
X183746376Y-66302812D01*
X183678456Y-66466784D01*
X183579853Y-66614354D01*
X183454354Y-66739853D01*
X183306784Y-66838456D01*
X183142812Y-66906376D01*
X182993512Y-66936073D01*
X182968742Y-66941000D01*
X182791258Y-66941000D01*
X182766488Y-66936073D01*
X182617188Y-66906376D01*
X182453216Y-66838456D01*
X182305646Y-66739853D01*
X182180147Y-66614354D01*
X182081544Y-66466784D01*
X182013624Y-66302812D01*
X181979000Y-66128741D01*
X181979000Y-65951259D01*
X182013624Y-65777188D01*
X182081544Y-65613216D01*
X182180147Y-65465646D01*
X182305646Y-65340147D01*
X182453216Y-65241544D01*
X182617188Y-65173624D01*
X182766488Y-65143927D01*
X182791258Y-65139000D01*
X182968742Y-65139000D01*
X182993512Y-65143927D01*
G37*
G36*
X180453512Y-65143927D02*
G01*
X180602812Y-65173624D01*
X180766784Y-65241544D01*
X180914354Y-65340147D01*
X181039853Y-65465646D01*
X181138456Y-65613216D01*
X181206376Y-65777188D01*
X181241000Y-65951259D01*
X181241000Y-66128741D01*
X181206376Y-66302812D01*
X181138456Y-66466784D01*
X181039853Y-66614354D01*
X180914354Y-66739853D01*
X180766784Y-66838456D01*
X180602812Y-66906376D01*
X180453512Y-66936073D01*
X180428742Y-66941000D01*
X180251258Y-66941000D01*
X180226488Y-66936073D01*
X180077188Y-66906376D01*
X179913216Y-66838456D01*
X179765646Y-66739853D01*
X179640147Y-66614354D01*
X179541544Y-66466784D01*
X179473624Y-66302812D01*
X179439000Y-66128741D01*
X179439000Y-65951259D01*
X179473624Y-65777188D01*
X179541544Y-65613216D01*
X179640147Y-65465646D01*
X179765646Y-65340147D01*
X179913216Y-65241544D01*
X180077188Y-65173624D01*
X180226488Y-65143927D01*
X180251258Y-65139000D01*
X180428742Y-65139000D01*
X180453512Y-65143927D01*
G37*
G36*
X122033512Y-62603927D02*
G01*
X122182812Y-62633624D01*
X122346784Y-62701544D01*
X122494354Y-62800147D01*
X122619853Y-62925646D01*
X122718456Y-63073216D01*
X122786376Y-63237188D01*
X122821000Y-63411259D01*
X122821000Y-63588741D01*
X122786376Y-63762812D01*
X122718456Y-63926784D01*
X122619853Y-64074354D01*
X122494354Y-64199853D01*
X122346784Y-64298456D01*
X122182812Y-64366376D01*
X122033512Y-64396073D01*
X122008742Y-64401000D01*
X121831258Y-64401000D01*
X121806488Y-64396073D01*
X121657188Y-64366376D01*
X121493216Y-64298456D01*
X121345646Y-64199853D01*
X121220147Y-64074354D01*
X121121544Y-63926784D01*
X121053624Y-63762812D01*
X121019000Y-63588741D01*
X121019000Y-63411259D01*
X121053624Y-63237188D01*
X121121544Y-63073216D01*
X121220147Y-62925646D01*
X121345646Y-62800147D01*
X121493216Y-62701544D01*
X121657188Y-62633624D01*
X121806488Y-62603927D01*
X121831258Y-62599000D01*
X122008742Y-62599000D01*
X122033512Y-62603927D01*
G37*
G36*
X119493512Y-62603927D02*
G01*
X119642812Y-62633624D01*
X119806784Y-62701544D01*
X119954354Y-62800147D01*
X120079853Y-62925646D01*
X120178456Y-63073216D01*
X120246376Y-63237188D01*
X120281000Y-63411259D01*
X120281000Y-63588741D01*
X120246376Y-63762812D01*
X120178456Y-63926784D01*
X120079853Y-64074354D01*
X119954354Y-64199853D01*
X119806784Y-64298456D01*
X119642812Y-64366376D01*
X119493512Y-64396073D01*
X119468742Y-64401000D01*
X119291258Y-64401000D01*
X119266488Y-64396073D01*
X119117188Y-64366376D01*
X118953216Y-64298456D01*
X118805646Y-64199853D01*
X118680147Y-64074354D01*
X118581544Y-63926784D01*
X118513624Y-63762812D01*
X118479000Y-63588741D01*
X118479000Y-63411259D01*
X118513624Y-63237188D01*
X118581544Y-63073216D01*
X118680147Y-62925646D01*
X118805646Y-62800147D01*
X118953216Y-62701544D01*
X119117188Y-62633624D01*
X119266488Y-62603927D01*
X119291258Y-62599000D01*
X119468742Y-62599000D01*
X119493512Y-62603927D01*
G37*
G36*
X180453512Y-62603927D02*
G01*
X180602812Y-62633624D01*
X180766784Y-62701544D01*
X180914354Y-62800147D01*
X181039853Y-62925646D01*
X181138456Y-63073216D01*
X181206376Y-63237188D01*
X181241000Y-63411259D01*
X181241000Y-63588741D01*
X181206376Y-63762812D01*
X181138456Y-63926784D01*
X181039853Y-64074354D01*
X180914354Y-64199853D01*
X180766784Y-64298456D01*
X180602812Y-64366376D01*
X180453512Y-64396073D01*
X180428742Y-64401000D01*
X180251258Y-64401000D01*
X180226488Y-64396073D01*
X180077188Y-64366376D01*
X179913216Y-64298456D01*
X179765646Y-64199853D01*
X179640147Y-64074354D01*
X179541544Y-63926784D01*
X179473624Y-63762812D01*
X179439000Y-63588741D01*
X179439000Y-63411259D01*
X179473624Y-63237188D01*
X179541544Y-63073216D01*
X179640147Y-62925646D01*
X179765646Y-62800147D01*
X179913216Y-62701544D01*
X180077188Y-62633624D01*
X180226488Y-62603927D01*
X180251258Y-62599000D01*
X180428742Y-62599000D01*
X180453512Y-62603927D01*
G37*
G36*
X182993512Y-62603927D02*
G01*
X183142812Y-62633624D01*
X183306784Y-62701544D01*
X183454354Y-62800147D01*
X183579853Y-62925646D01*
X183678456Y-63073216D01*
X183746376Y-63237188D01*
X183781000Y-63411259D01*
X183781000Y-63588741D01*
X183746376Y-63762812D01*
X183678456Y-63926784D01*
X183579853Y-64074354D01*
X183454354Y-64199853D01*
X183306784Y-64298456D01*
X183142812Y-64366376D01*
X182993512Y-64396073D01*
X182968742Y-64401000D01*
X182791258Y-64401000D01*
X182766488Y-64396073D01*
X182617188Y-64366376D01*
X182453216Y-64298456D01*
X182305646Y-64199853D01*
X182180147Y-64074354D01*
X182081544Y-63926784D01*
X182013624Y-63762812D01*
X181979000Y-63588741D01*
X181979000Y-63411259D01*
X182013624Y-63237188D01*
X182081544Y-63073216D01*
X182180147Y-62925646D01*
X182305646Y-62800147D01*
X182453216Y-62701544D01*
X182617188Y-62633624D01*
X182766488Y-62603927D01*
X182791258Y-62599000D01*
X182968742Y-62599000D01*
X182993512Y-62603927D01*
G37*
G36*
X120281000Y-61861000D02*
G01*
X118479000Y-61861000D01*
X118479000Y-60059000D01*
X120281000Y-60059000D01*
X120281000Y-61861000D01*
G37*
G36*
X182993512Y-60063927D02*
G01*
X183142812Y-60093624D01*
X183306784Y-60161544D01*
X183454354Y-60260147D01*
X183579853Y-60385646D01*
X183678456Y-60533216D01*
X183746376Y-60697188D01*
X183781000Y-60871259D01*
X183781000Y-61048741D01*
X183746376Y-61222812D01*
X183678456Y-61386784D01*
X183579853Y-61534354D01*
X183454354Y-61659853D01*
X183306784Y-61758456D01*
X183142812Y-61826376D01*
X182993512Y-61856073D01*
X182968742Y-61861000D01*
X182791258Y-61861000D01*
X182766488Y-61856073D01*
X182617188Y-61826376D01*
X182453216Y-61758456D01*
X182305646Y-61659853D01*
X182180147Y-61534354D01*
X182081544Y-61386784D01*
X182013624Y-61222812D01*
X181979000Y-61048741D01*
X181979000Y-60871259D01*
X182013624Y-60697188D01*
X182081544Y-60533216D01*
X182180147Y-60385646D01*
X182305646Y-60260147D01*
X182453216Y-60161544D01*
X182617188Y-60093624D01*
X182766488Y-60063927D01*
X182791258Y-60059000D01*
X182968742Y-60059000D01*
X182993512Y-60063927D01*
G37*
G36*
X122033512Y-60063927D02*
G01*
X122182812Y-60093624D01*
X122346784Y-60161544D01*
X122494354Y-60260147D01*
X122619853Y-60385646D01*
X122718456Y-60533216D01*
X122786376Y-60697188D01*
X122821000Y-60871259D01*
X122821000Y-61048741D01*
X122786376Y-61222812D01*
X122718456Y-61386784D01*
X122619853Y-61534354D01*
X122494354Y-61659853D01*
X122346784Y-61758456D01*
X122182812Y-61826376D01*
X122033512Y-61856073D01*
X122008742Y-61861000D01*
X121831258Y-61861000D01*
X121806488Y-61856073D01*
X121657188Y-61826376D01*
X121493216Y-61758456D01*
X121345646Y-61659853D01*
X121220147Y-61534354D01*
X121121544Y-61386784D01*
X121053624Y-61222812D01*
X121019000Y-61048741D01*
X121019000Y-60871259D01*
X121053624Y-60697188D01*
X121121544Y-60533216D01*
X121220147Y-60385646D01*
X121345646Y-60260147D01*
X121493216Y-60161544D01*
X121657188Y-60093624D01*
X121806488Y-60063927D01*
X121831258Y-60059000D01*
X122008742Y-60059000D01*
X122033512Y-60063927D01*
G37*
G36*
X181241000Y-61861000D02*
G01*
X179439000Y-61861000D01*
X179439000Y-60059000D01*
X181241000Y-60059000D01*
X181241000Y-61861000D01*
G37*
G36*
X131047142Y-52558242D02*
G01*
X131195101Y-52619529D01*
X131328255Y-52708499D01*
X131441501Y-52821745D01*
X131530471Y-52954899D01*
X131591758Y-53102858D01*
X131623000Y-53259925D01*
X131623000Y-53420075D01*
X131591758Y-53577142D01*
X131530471Y-53725101D01*
X131441501Y-53858255D01*
X131328255Y-53971501D01*
X131195101Y-54060471D01*
X131047142Y-54121758D01*
X130890075Y-54153000D01*
X130729925Y-54153000D01*
X130572858Y-54121758D01*
X130424899Y-54060471D01*
X130291745Y-53971501D01*
X130178499Y-53858255D01*
X130089529Y-53725101D01*
X130028242Y-53577142D01*
X129997000Y-53420075D01*
X129997000Y-53259925D01*
X130028242Y-53102858D01*
X130089529Y-52954899D01*
X130178499Y-52821745D01*
X130291745Y-52708499D01*
X130424899Y-52619529D01*
X130572858Y-52558242D01*
X130729925Y-52527000D01*
X130890075Y-52527000D01*
X131047142Y-52558242D01*
G37*
G36*
X169147142Y-52558242D02*
G01*
X169295101Y-52619529D01*
X169428255Y-52708499D01*
X169541501Y-52821745D01*
X169630471Y-52954899D01*
X169691758Y-53102858D01*
X169723000Y-53259925D01*
X169723000Y-53420075D01*
X169691758Y-53577142D01*
X169630471Y-53725101D01*
X169541501Y-53858255D01*
X169428255Y-53971501D01*
X169295101Y-54060471D01*
X169147142Y-54121758D01*
X168990075Y-54153000D01*
X168829925Y-54153000D01*
X168672858Y-54121758D01*
X168524899Y-54060471D01*
X168391745Y-53971501D01*
X168278499Y-53858255D01*
X168189529Y-53725101D01*
X168128242Y-53577142D01*
X168097000Y-53420075D01*
X168097000Y-53259925D01*
X168128242Y-53102858D01*
X168189529Y-52954899D01*
X168278499Y-52821745D01*
X168391745Y-52708499D01*
X168524899Y-52619529D01*
X168672858Y-52558242D01*
X168829925Y-52527000D01*
X168990075Y-52527000D01*
X169147142Y-52558242D01*
G37*
G36*
X124766564Y-50424389D02*
G01*
X124957833Y-50503615D01*
X124957835Y-50503616D01*
X125129973Y-50618635D01*
X125276365Y-50765027D01*
X125353238Y-50880075D01*
X125391385Y-50937167D01*
X125470611Y-51128436D01*
X125511000Y-51331484D01*
X125511000Y-51538516D01*
X125470611Y-51741564D01*
X125391385Y-51932833D01*
X125391384Y-51932835D01*
X125276365Y-52104973D01*
X125129973Y-52251365D01*
X124957835Y-52366384D01*
X124957834Y-52366385D01*
X124957833Y-52366385D01*
X124766564Y-52445611D01*
X124563516Y-52486000D01*
X124356484Y-52486000D01*
X124153436Y-52445611D01*
X123962167Y-52366385D01*
X123962166Y-52366385D01*
X123962165Y-52366384D01*
X123790027Y-52251365D01*
X123643635Y-52104973D01*
X123528616Y-51932835D01*
X123528615Y-51932833D01*
X123449389Y-51741564D01*
X123409000Y-51538516D01*
X123409000Y-51331484D01*
X123449389Y-51128436D01*
X123528615Y-50937167D01*
X123566763Y-50880075D01*
X123643635Y-50765027D01*
X123790027Y-50618635D01*
X123962165Y-50503616D01*
X123962167Y-50503615D01*
X124153436Y-50424389D01*
X124356484Y-50384000D01*
X124563516Y-50384000D01*
X124766564Y-50424389D01*
G37*
G36*
X178106564Y-50424389D02*
G01*
X178297833Y-50503615D01*
X178297835Y-50503616D01*
X178469973Y-50618635D01*
X178616365Y-50765027D01*
X178693238Y-50880075D01*
X178731385Y-50937167D01*
X178810611Y-51128436D01*
X178851000Y-51331484D01*
X178851000Y-51538516D01*
X178810611Y-51741564D01*
X178731385Y-51932833D01*
X178731384Y-51932835D01*
X178616365Y-52104973D01*
X178469973Y-52251365D01*
X178297835Y-52366384D01*
X178297834Y-52366385D01*
X178297833Y-52366385D01*
X178106564Y-52445611D01*
X177903516Y-52486000D01*
X177696484Y-52486000D01*
X177493436Y-52445611D01*
X177302167Y-52366385D01*
X177302166Y-52366385D01*
X177302165Y-52366384D01*
X177130027Y-52251365D01*
X176983635Y-52104973D01*
X176868616Y-51932835D01*
X176868615Y-51932833D01*
X176789389Y-51741564D01*
X176749000Y-51538516D01*
X176749000Y-51331484D01*
X176789389Y-51128436D01*
X176868615Y-50937167D01*
X176906763Y-50880075D01*
X176983635Y-50765027D01*
X177130027Y-50618635D01*
X177302165Y-50503616D01*
X177302167Y-50503615D01*
X177493436Y-50424389D01*
X177696484Y-50384000D01*
X177903516Y-50384000D01*
X178106564Y-50424389D01*
G37*
G36*
X138667142Y-50018242D02*
G01*
X138815101Y-50079529D01*
X138948255Y-50168499D01*
X139061501Y-50281745D01*
X139150471Y-50414899D01*
X139211758Y-50562858D01*
X139243000Y-50719925D01*
X139243000Y-50880075D01*
X139211758Y-51037142D01*
X139150471Y-51185101D01*
X139061501Y-51318255D01*
X138948255Y-51431501D01*
X138815101Y-51520471D01*
X138667142Y-51581758D01*
X138510075Y-51613000D01*
X138349925Y-51613000D01*
X138192858Y-51581758D01*
X138044899Y-51520471D01*
X137911745Y-51431501D01*
X137798499Y-51318255D01*
X137709529Y-51185101D01*
X137648242Y-51037142D01*
X137617000Y-50880075D01*
X137617000Y-50719925D01*
X137648242Y-50562858D01*
X137709529Y-50414899D01*
X137798499Y-50281745D01*
X137911745Y-50168499D01*
X138044899Y-50079529D01*
X138192858Y-50018242D01*
X138349925Y-49987000D01*
X138510075Y-49987000D01*
X138667142Y-50018242D01*
G37*
G36*
X131047142Y-50018242D02*
G01*
X131195101Y-50079529D01*
X131328255Y-50168499D01*
X131441501Y-50281745D01*
X131530471Y-50414899D01*
X131591758Y-50562858D01*
X131623000Y-50719925D01*
X131623000Y-50880075D01*
X131591758Y-51037142D01*
X131530471Y-51185101D01*
X131441501Y-51318255D01*
X131328255Y-51431501D01*
X131195101Y-51520471D01*
X131047142Y-51581758D01*
X130890075Y-51613000D01*
X130729925Y-51613000D01*
X130572858Y-51581758D01*
X130424899Y-51520471D01*
X130291745Y-51431501D01*
X130178499Y-51318255D01*
X130089529Y-51185101D01*
X130028242Y-51037142D01*
X129997000Y-50880075D01*
X129997000Y-50719925D01*
X130028242Y-50562858D01*
X130089529Y-50414899D01*
X130178499Y-50281745D01*
X130291745Y-50168499D01*
X130424899Y-50079529D01*
X130572858Y-50018242D01*
X130729925Y-49987000D01*
X130890075Y-49987000D01*
X131047142Y-50018242D01*
G37*
G36*
X141207142Y-50018242D02*
G01*
X141355101Y-50079529D01*
X141488255Y-50168499D01*
X141601501Y-50281745D01*
X141690471Y-50414899D01*
X141751758Y-50562858D01*
X141783000Y-50719925D01*
X141783000Y-50880075D01*
X141751758Y-51037142D01*
X141690471Y-51185101D01*
X141601501Y-51318255D01*
X141488255Y-51431501D01*
X141355101Y-51520471D01*
X141207142Y-51581758D01*
X141050075Y-51613000D01*
X140889925Y-51613000D01*
X140732858Y-51581758D01*
X140584899Y-51520471D01*
X140451745Y-51431501D01*
X140338499Y-51318255D01*
X140249529Y-51185101D01*
X140188242Y-51037142D01*
X140157000Y-50880075D01*
X140157000Y-50719925D01*
X140188242Y-50562858D01*
X140249529Y-50414899D01*
X140338499Y-50281745D01*
X140451745Y-50168499D01*
X140584899Y-50079529D01*
X140732858Y-50018242D01*
X140889925Y-49987000D01*
X141050075Y-49987000D01*
X141207142Y-50018242D01*
G37*
G36*
X143747142Y-50018242D02*
G01*
X143895101Y-50079529D01*
X144028255Y-50168499D01*
X144141501Y-50281745D01*
X144230471Y-50414899D01*
X144291758Y-50562858D01*
X144323000Y-50719925D01*
X144323000Y-50880075D01*
X144291758Y-51037142D01*
X144230471Y-51185101D01*
X144141501Y-51318255D01*
X144028255Y-51431501D01*
X143895101Y-51520471D01*
X143747142Y-51581758D01*
X143590075Y-51613000D01*
X143429925Y-51613000D01*
X143272858Y-51581758D01*
X143124899Y-51520471D01*
X142991745Y-51431501D01*
X142878499Y-51318255D01*
X142789529Y-51185101D01*
X142728242Y-51037142D01*
X142697000Y-50880075D01*
X142697000Y-50719925D01*
X142728242Y-50562858D01*
X142789529Y-50414899D01*
X142878499Y-50281745D01*
X142991745Y-50168499D01*
X143124899Y-50079529D01*
X143272858Y-50018242D01*
X143429925Y-49987000D01*
X143590075Y-49987000D01*
X143747142Y-50018242D01*
G37*
G36*
X146287142Y-50018242D02*
G01*
X146435101Y-50079529D01*
X146568255Y-50168499D01*
X146681501Y-50281745D01*
X146770471Y-50414899D01*
X146831758Y-50562858D01*
X146863000Y-50719925D01*
X146863000Y-50880075D01*
X146831758Y-51037142D01*
X146770471Y-51185101D01*
X146681501Y-51318255D01*
X146568255Y-51431501D01*
X146435101Y-51520471D01*
X146287142Y-51581758D01*
X146130075Y-51613000D01*
X145969925Y-51613000D01*
X145812858Y-51581758D01*
X145664899Y-51520471D01*
X145531745Y-51431501D01*
X145418499Y-51318255D01*
X145329529Y-51185101D01*
X145268242Y-51037142D01*
X145237000Y-50880075D01*
X145237000Y-50719925D01*
X145268242Y-50562858D01*
X145329529Y-50414899D01*
X145418499Y-50281745D01*
X145531745Y-50168499D01*
X145664899Y-50079529D01*
X145812858Y-50018242D01*
X145969925Y-49987000D01*
X146130075Y-49987000D01*
X146287142Y-50018242D01*
G37*
G36*
X148827142Y-50018242D02*
G01*
X148975101Y-50079529D01*
X149108255Y-50168499D01*
X149221501Y-50281745D01*
X149310471Y-50414899D01*
X149371758Y-50562858D01*
X149403000Y-50719925D01*
X149403000Y-50880075D01*
X149371758Y-51037142D01*
X149310471Y-51185101D01*
X149221501Y-51318255D01*
X149108255Y-51431501D01*
X148975101Y-51520471D01*
X148827142Y-51581758D01*
X148670075Y-51613000D01*
X148509925Y-51613000D01*
X148352858Y-51581758D01*
X148204899Y-51520471D01*
X148071745Y-51431501D01*
X147958499Y-51318255D01*
X147869529Y-51185101D01*
X147808242Y-51037142D01*
X147777000Y-50880075D01*
X147777000Y-50719925D01*
X147808242Y-50562858D01*
X147869529Y-50414899D01*
X147958499Y-50281745D01*
X148071745Y-50168499D01*
X148204899Y-50079529D01*
X148352858Y-50018242D01*
X148509925Y-49987000D01*
X148670075Y-49987000D01*
X148827142Y-50018242D01*
G37*
G36*
X151367142Y-50018242D02*
G01*
X151515101Y-50079529D01*
X151648255Y-50168499D01*
X151761501Y-50281745D01*
X151850471Y-50414899D01*
X151911758Y-50562858D01*
X151943000Y-50719925D01*
X151943000Y-50880075D01*
X151911758Y-51037142D01*
X151850471Y-51185101D01*
X151761501Y-51318255D01*
X151648255Y-51431501D01*
X151515101Y-51520471D01*
X151367142Y-51581758D01*
X151210075Y-51613000D01*
X151049925Y-51613000D01*
X150892858Y-51581758D01*
X150744899Y-51520471D01*
X150611745Y-51431501D01*
X150498499Y-51318255D01*
X150409529Y-51185101D01*
X150348242Y-51037142D01*
X150317000Y-50880075D01*
X150317000Y-50719925D01*
X150348242Y-50562858D01*
X150409529Y-50414899D01*
X150498499Y-50281745D01*
X150611745Y-50168499D01*
X150744899Y-50079529D01*
X150892858Y-50018242D01*
X151049925Y-49987000D01*
X151210075Y-49987000D01*
X151367142Y-50018242D01*
G37*
G36*
X153907142Y-50018242D02*
G01*
X154055101Y-50079529D01*
X154188255Y-50168499D01*
X154301501Y-50281745D01*
X154390471Y-50414899D01*
X154451758Y-50562858D01*
X154483000Y-50719925D01*
X154483000Y-50880075D01*
X154451758Y-51037142D01*
X154390471Y-51185101D01*
X154301501Y-51318255D01*
X154188255Y-51431501D01*
X154055101Y-51520471D01*
X153907142Y-51581758D01*
X153750075Y-51613000D01*
X153589925Y-51613000D01*
X153432858Y-51581758D01*
X153284899Y-51520471D01*
X153151745Y-51431501D01*
X153038499Y-51318255D01*
X152949529Y-51185101D01*
X152888242Y-51037142D01*
X152857000Y-50880075D01*
X152857000Y-50719925D01*
X152888242Y-50562858D01*
X152949529Y-50414899D01*
X153038499Y-50281745D01*
X153151745Y-50168499D01*
X153284899Y-50079529D01*
X153432858Y-50018242D01*
X153589925Y-49987000D01*
X153750075Y-49987000D01*
X153907142Y-50018242D01*
G37*
G36*
X156447142Y-50018242D02*
G01*
X156595101Y-50079529D01*
X156728255Y-50168499D01*
X156841501Y-50281745D01*
X156930471Y-50414899D01*
X156991758Y-50562858D01*
X157023000Y-50719925D01*
X157023000Y-50880075D01*
X156991758Y-51037142D01*
X156930471Y-51185101D01*
X156841501Y-51318255D01*
X156728255Y-51431501D01*
X156595101Y-51520471D01*
X156447142Y-51581758D01*
X156290075Y-51613000D01*
X156129925Y-51613000D01*
X155972858Y-51581758D01*
X155824899Y-51520471D01*
X155691745Y-51431501D01*
X155578499Y-51318255D01*
X155489529Y-51185101D01*
X155428242Y-51037142D01*
X155397000Y-50880075D01*
X155397000Y-50719925D01*
X155428242Y-50562858D01*
X155489529Y-50414899D01*
X155578499Y-50281745D01*
X155691745Y-50168499D01*
X155824899Y-50079529D01*
X155972858Y-50018242D01*
X156129925Y-49987000D01*
X156290075Y-49987000D01*
X156447142Y-50018242D01*
G37*
G36*
X158987142Y-50018242D02*
G01*
X159135101Y-50079529D01*
X159268255Y-50168499D01*
X159381501Y-50281745D01*
X159470471Y-50414899D01*
X159531758Y-50562858D01*
X159563000Y-50719925D01*
X159563000Y-50880075D01*
X159531758Y-51037142D01*
X159470471Y-51185101D01*
X159381501Y-51318255D01*
X159268255Y-51431501D01*
X159135101Y-51520471D01*
X158987142Y-51581758D01*
X158830075Y-51613000D01*
X158669925Y-51613000D01*
X158512858Y-51581758D01*
X158364899Y-51520471D01*
X158231745Y-51431501D01*
X158118499Y-51318255D01*
X158029529Y-51185101D01*
X157968242Y-51037142D01*
X157937000Y-50880075D01*
X157937000Y-50719925D01*
X157968242Y-50562858D01*
X158029529Y-50414899D01*
X158118499Y-50281745D01*
X158231745Y-50168499D01*
X158364899Y-50079529D01*
X158512858Y-50018242D01*
X158669925Y-49987000D01*
X158830075Y-49987000D01*
X158987142Y-50018242D01*
G37*
G36*
X161527142Y-50018242D02*
G01*
X161675101Y-50079529D01*
X161808255Y-50168499D01*
X161921501Y-50281745D01*
X162010471Y-50414899D01*
X162071758Y-50562858D01*
X162103000Y-50719925D01*
X162103000Y-50880075D01*
X162071758Y-51037142D01*
X162010471Y-51185101D01*
X161921501Y-51318255D01*
X161808255Y-51431501D01*
X161675101Y-51520471D01*
X161527142Y-51581758D01*
X161370075Y-51613000D01*
X161209925Y-51613000D01*
X161052858Y-51581758D01*
X160904899Y-51520471D01*
X160771745Y-51431501D01*
X160658499Y-51318255D01*
X160569529Y-51185101D01*
X160508242Y-51037142D01*
X160477000Y-50880075D01*
X160477000Y-50719925D01*
X160508242Y-50562858D01*
X160569529Y-50414899D01*
X160658499Y-50281745D01*
X160771745Y-50168499D01*
X160904899Y-50079529D01*
X161052858Y-50018242D01*
X161209925Y-49987000D01*
X161370075Y-49987000D01*
X161527142Y-50018242D01*
G37*
G36*
X169147142Y-50018242D02*
G01*
X169295101Y-50079529D01*
X169428255Y-50168499D01*
X169541501Y-50281745D01*
X169630471Y-50414899D01*
X169691758Y-50562858D01*
X169723000Y-50719925D01*
X169723000Y-50880075D01*
X169691758Y-51037142D01*
X169630471Y-51185101D01*
X169541501Y-51318255D01*
X169428255Y-51431501D01*
X169295101Y-51520471D01*
X169147142Y-51581758D01*
X168990075Y-51613000D01*
X168829925Y-51613000D01*
X168672858Y-51581758D01*
X168524899Y-51520471D01*
X168391745Y-51431501D01*
X168278499Y-51318255D01*
X168189529Y-51185101D01*
X168128242Y-51037142D01*
X168097000Y-50880075D01*
X168097000Y-50719925D01*
X168128242Y-50562858D01*
X168189529Y-50414899D01*
X168278499Y-50281745D01*
X168391745Y-50168499D01*
X168524899Y-50079529D01*
X168672858Y-50018242D01*
X168829925Y-49987000D01*
X168990075Y-49987000D01*
X169147142Y-50018242D01*
G37*
G36*
X165406564Y-45344389D02*
G01*
X165597833Y-45423615D01*
X165597835Y-45423616D01*
X165769973Y-45538635D01*
X165916365Y-45685027D01*
X166031385Y-45857167D01*
X166110611Y-46048436D01*
X166151000Y-46251484D01*
X166151000Y-46458516D01*
X166110611Y-46661564D01*
X166031385Y-46852833D01*
X166031384Y-46852835D01*
X165916365Y-47024973D01*
X165769973Y-47171365D01*
X165597835Y-47286384D01*
X165597834Y-47286385D01*
X165597833Y-47286385D01*
X165406564Y-47365611D01*
X165203516Y-47406000D01*
X164996484Y-47406000D01*
X164793436Y-47365611D01*
X164602167Y-47286385D01*
X164602166Y-47286385D01*
X164602165Y-47286384D01*
X164430027Y-47171365D01*
X164283635Y-47024973D01*
X164168616Y-46852835D01*
X164168615Y-46852833D01*
X164089389Y-46661564D01*
X164049000Y-46458516D01*
X164049000Y-46251484D01*
X164089389Y-46048436D01*
X164168615Y-45857167D01*
X164283635Y-45685027D01*
X164430027Y-45538635D01*
X164602165Y-45423616D01*
X164602167Y-45423615D01*
X164793436Y-45344389D01*
X164996484Y-45304000D01*
X165203516Y-45304000D01*
X165406564Y-45344389D01*
G37*
G36*
X146356564Y-45344389D02*
G01*
X146547833Y-45423615D01*
X146547835Y-45423616D01*
X146719973Y-45538635D01*
X146866365Y-45685027D01*
X146981385Y-45857167D01*
X147060611Y-46048436D01*
X147101000Y-46251484D01*
X147101000Y-46458516D01*
X147060611Y-46661564D01*
X146981385Y-46852833D01*
X146981384Y-46852835D01*
X146866365Y-47024973D01*
X146719973Y-47171365D01*
X146547835Y-47286384D01*
X146547834Y-47286385D01*
X146547833Y-47286385D01*
X146356564Y-47365611D01*
X146153516Y-47406000D01*
X145946484Y-47406000D01*
X145743436Y-47365611D01*
X145552167Y-47286385D01*
X145552166Y-47286385D01*
X145552165Y-47286384D01*
X145380027Y-47171365D01*
X145233635Y-47024973D01*
X145118616Y-46852835D01*
X145118615Y-46852833D01*
X145039389Y-46661564D01*
X144999000Y-46458516D01*
X144999000Y-46251484D01*
X145039389Y-46048436D01*
X145118615Y-45857167D01*
X145233635Y-45685027D01*
X145380027Y-45538635D01*
X145552165Y-45423616D01*
X145552167Y-45423615D01*
X145743436Y-45344389D01*
X145946484Y-45304000D01*
X146153516Y-45304000D01*
X146356564Y-45344389D01*
G37*
G36*
X170486564Y-45344389D02*
G01*
X170677833Y-45423615D01*
X170677835Y-45423616D01*
X170849973Y-45538635D01*
X170996365Y-45685027D01*
X171111385Y-45857167D01*
X171190611Y-46048436D01*
X171231000Y-46251484D01*
X171231000Y-46458516D01*
X171190611Y-46661564D01*
X171111385Y-46852833D01*
X171111384Y-46852835D01*
X170996365Y-47024973D01*
X170849973Y-47171365D01*
X170677835Y-47286384D01*
X170677834Y-47286385D01*
X170677833Y-47286385D01*
X170486564Y-47365611D01*
X170283516Y-47406000D01*
X170076484Y-47406000D01*
X169873436Y-47365611D01*
X169682167Y-47286385D01*
X169682166Y-47286385D01*
X169682165Y-47286384D01*
X169510027Y-47171365D01*
X169363635Y-47024973D01*
X169248616Y-46852835D01*
X169248615Y-46852833D01*
X169169389Y-46661564D01*
X169129000Y-46458516D01*
X169129000Y-46251484D01*
X169169389Y-46048436D01*
X169248615Y-45857167D01*
X169363635Y-45685027D01*
X169510027Y-45538635D01*
X169682165Y-45423616D01*
X169682167Y-45423615D01*
X169873436Y-45344389D01*
X170076484Y-45304000D01*
X170283516Y-45304000D01*
X170486564Y-45344389D01*
G37*
G36*
X152706564Y-45344389D02*
G01*
X152897833Y-45423615D01*
X152897835Y-45423616D01*
X153069973Y-45538635D01*
X153216365Y-45685027D01*
X153331385Y-45857167D01*
X153410611Y-46048436D01*
X153451000Y-46251484D01*
X153451000Y-46458516D01*
X153410611Y-46661564D01*
X153331385Y-46852833D01*
X153331384Y-46852835D01*
X153216365Y-47024973D01*
X153069973Y-47171365D01*
X152897835Y-47286384D01*
X152897834Y-47286385D01*
X152897833Y-47286385D01*
X152706564Y-47365611D01*
X152503516Y-47406000D01*
X152296484Y-47406000D01*
X152093436Y-47365611D01*
X151902167Y-47286385D01*
X151902166Y-47286385D01*
X151902165Y-47286384D01*
X151730027Y-47171365D01*
X151583635Y-47024973D01*
X151468616Y-46852835D01*
X151468615Y-46852833D01*
X151389389Y-46661564D01*
X151349000Y-46458516D01*
X151349000Y-46251484D01*
X151389389Y-46048436D01*
X151468615Y-45857167D01*
X151583635Y-45685027D01*
X151730027Y-45538635D01*
X151902165Y-45423616D01*
X151902167Y-45423615D01*
X152093436Y-45344389D01*
X152296484Y-45304000D01*
X152503516Y-45304000D01*
X152706564Y-45344389D01*
G37*
G36*
X159056564Y-45344389D02*
G01*
X159247833Y-45423615D01*
X159247835Y-45423616D01*
X159419973Y-45538635D01*
X159566365Y-45685027D01*
X159681385Y-45857167D01*
X159760611Y-46048436D01*
X159801000Y-46251484D01*
X159801000Y-46458516D01*
X159760611Y-46661564D01*
X159681385Y-46852833D01*
X159681384Y-46852835D01*
X159566365Y-47024973D01*
X159419973Y-47171365D01*
X159247835Y-47286384D01*
X159247834Y-47286385D01*
X159247833Y-47286385D01*
X159056564Y-47365611D01*
X158853516Y-47406000D01*
X158646484Y-47406000D01*
X158443436Y-47365611D01*
X158252167Y-47286385D01*
X158252166Y-47286385D01*
X158252165Y-47286384D01*
X158080027Y-47171365D01*
X157933635Y-47024973D01*
X157818616Y-46852835D01*
X157818615Y-46852833D01*
X157739389Y-46661564D01*
X157699000Y-46458516D01*
X157699000Y-46251484D01*
X157739389Y-46048436D01*
X157818615Y-45857167D01*
X157933635Y-45685027D01*
X158080027Y-45538635D01*
X158252165Y-45423616D01*
X158252167Y-45423615D01*
X158443436Y-45344389D01*
X158646484Y-45304000D01*
X158853516Y-45304000D01*
X159056564Y-45344389D01*
G37*
M02*
