G04 #@! TF.GenerationSoftware,KiCad,Pcbnew,5.1.5-52549c5~84~ubuntu16.04.1*
G04 #@! TF.CreationDate,2020-01-04T11:31:47+09:00*
G04 #@! TF.ProjectId,Akashi-01,416b6173-6869-42d3-9031-2e6b69636164,rev?*
G04 #@! TF.SameCoordinates,Original*
G04 #@! TF.FileFunction,Legend,Top*
G04 #@! TF.FilePolarity,Positive*
%FSLAX46Y46*%
G04 Gerber Fmt 4.6, Leading zero omitted, Abs format (unit mm)*
G04 Created by KiCad (PCBNEW 5.1.5-52549c5~84~ubuntu16.04.1) date 2020-01-04 11:31:47*
%MOMM*%
%LPD*%
G04 APERTURE LIST*
%ADD10C,0.150000*%
%ADD11C,0.120000*%
G04 APERTURE END LIST*
D10*
X150312380Y-91701904D02*
X149312380Y-91701904D01*
X150312380Y-91130476D02*
X149740952Y-91559047D01*
X149312380Y-91130476D02*
X149883809Y-91701904D01*
X142692380Y-91701904D02*
X141692380Y-91701904D01*
X142692380Y-91130476D02*
X142120952Y-91559047D01*
X141692380Y-91130476D02*
X142263809Y-91701904D01*
X135072380Y-91701904D02*
X134072380Y-91701904D01*
X135072380Y-91130476D02*
X134500952Y-91559047D01*
X134072380Y-91130476D02*
X134643809Y-91701904D01*
X127452380Y-91701904D02*
X126452380Y-91701904D01*
X127452380Y-91130476D02*
X126880952Y-91559047D01*
X126452380Y-91130476D02*
X127023809Y-91701904D01*
X178085714Y-61412380D02*
X177514285Y-61412380D01*
X177800000Y-61412380D02*
X177800000Y-60412380D01*
X177704761Y-60555238D01*
X177609523Y-60650476D01*
X177514285Y-60698095D01*
X117125714Y-61412380D02*
X116554285Y-61412380D01*
X116840000Y-61412380D02*
X116840000Y-60412380D01*
X116744761Y-60555238D01*
X116649523Y-60650476D01*
X116554285Y-60698095D01*
D11*
X129540000Y-49530000D02*
X129540000Y-72390000D01*
X129540000Y-72390000D02*
X170180000Y-72390000D01*
X170180000Y-72390000D02*
X170180000Y-49530000D01*
X170180000Y-49530000D02*
X129540000Y-49530000D01*
X153636000Y-91150000D02*
X153480000Y-91150000D01*
X151320000Y-91150000D02*
X151164000Y-91150000D01*
X153478608Y-94382335D02*
G75*
G03X153635516Y-91150000I-1078608J1672335D01*
G01*
X151321392Y-94382335D02*
G75*
G02X151164484Y-91150000I1078608J1672335D01*
G01*
X153479837Y-93751130D02*
G75*
G03X153480000Y-91669039I-1079837J1041130D01*
G01*
X151320163Y-93751130D02*
G75*
G02X151320000Y-91669039I1079837J1041130D01*
G01*
X143700163Y-93751130D02*
G75*
G02X143700000Y-91669039I1079837J1041130D01*
G01*
X145859837Y-93751130D02*
G75*
G03X145860000Y-91669039I-1079837J1041130D01*
G01*
X143701392Y-94382335D02*
G75*
G02X143544484Y-91150000I1078608J1672335D01*
G01*
X145858608Y-94382335D02*
G75*
G03X146015516Y-91150000I-1078608J1672335D01*
G01*
X143700000Y-91150000D02*
X143544000Y-91150000D01*
X146016000Y-91150000D02*
X145860000Y-91150000D01*
X138396000Y-91150000D02*
X138240000Y-91150000D01*
X136080000Y-91150000D02*
X135924000Y-91150000D01*
X138238608Y-94382335D02*
G75*
G03X138395516Y-91150000I-1078608J1672335D01*
G01*
X136081392Y-94382335D02*
G75*
G02X135924484Y-91150000I1078608J1672335D01*
G01*
X138239837Y-93751130D02*
G75*
G03X138240000Y-91669039I-1079837J1041130D01*
G01*
X136080163Y-93751130D02*
G75*
G02X136080000Y-91669039I1079837J1041130D01*
G01*
X128460163Y-93751130D02*
G75*
G02X128460000Y-91669039I1079837J1041130D01*
G01*
X130619837Y-93751130D02*
G75*
G03X130620000Y-91669039I-1079837J1041130D01*
G01*
X128461392Y-94382335D02*
G75*
G02X128304484Y-91150000I1078608J1672335D01*
G01*
X130618608Y-94382335D02*
G75*
G03X130775516Y-91150000I-1078608J1672335D01*
G01*
X128460000Y-91150000D02*
X128304000Y-91150000D01*
X130776000Y-91150000D02*
X130620000Y-91150000D01*
X151030000Y-104870000D02*
X153770000Y-104870000D01*
X153770000Y-104870000D02*
X153770000Y-98330000D01*
X153770000Y-98330000D02*
X151030000Y-98330000D01*
X151030000Y-98330000D02*
X151030000Y-104870000D01*
X152400000Y-105640000D02*
X152400000Y-104870000D01*
X152400000Y-97560000D02*
X152400000Y-98330000D01*
X144780000Y-97560000D02*
X144780000Y-98330000D01*
X144780000Y-105640000D02*
X144780000Y-104870000D01*
X143410000Y-98330000D02*
X143410000Y-104870000D01*
X146150000Y-98330000D02*
X143410000Y-98330000D01*
X146150000Y-104870000D02*
X146150000Y-98330000D01*
X143410000Y-104870000D02*
X146150000Y-104870000D01*
X135790000Y-104870000D02*
X138530000Y-104870000D01*
X138530000Y-104870000D02*
X138530000Y-98330000D01*
X138530000Y-98330000D02*
X135790000Y-98330000D01*
X135790000Y-98330000D02*
X135790000Y-104870000D01*
X137160000Y-105640000D02*
X137160000Y-104870000D01*
X137160000Y-97560000D02*
X137160000Y-98330000D01*
X129540000Y-97560000D02*
X129540000Y-98330000D01*
X129540000Y-105640000D02*
X129540000Y-104870000D01*
X128170000Y-98330000D02*
X128170000Y-104870000D01*
X130910000Y-98330000D02*
X128170000Y-98330000D01*
X130910000Y-104870000D02*
X130910000Y-98330000D01*
X128170000Y-104870000D02*
X130910000Y-104870000D01*
X164060000Y-76200000D02*
X163290000Y-76200000D01*
X155980000Y-76200000D02*
X156750000Y-76200000D01*
X163290000Y-74830000D02*
X156750000Y-74830000D01*
X163290000Y-77570000D02*
X163290000Y-74830000D01*
X156750000Y-77570000D02*
X163290000Y-77570000D01*
X156750000Y-74830000D02*
X156750000Y-77570000D01*
X143280000Y-86360000D02*
X144050000Y-86360000D01*
X151360000Y-86360000D02*
X150590000Y-86360000D01*
X144050000Y-87730000D02*
X150590000Y-87730000D01*
X144050000Y-84990000D02*
X144050000Y-87730000D01*
X150590000Y-84990000D02*
X144050000Y-84990000D01*
X150590000Y-87730000D02*
X150590000Y-84990000D01*
X150590000Y-82650000D02*
X150590000Y-79910000D01*
X150590000Y-79910000D02*
X144050000Y-79910000D01*
X144050000Y-79910000D02*
X144050000Y-82650000D01*
X144050000Y-82650000D02*
X150590000Y-82650000D01*
X151360000Y-81280000D02*
X150590000Y-81280000D01*
X143280000Y-81280000D02*
X144050000Y-81280000D01*
X163290000Y-87730000D02*
X163290000Y-84990000D01*
X163290000Y-84990000D02*
X156750000Y-84990000D01*
X156750000Y-84990000D02*
X156750000Y-87730000D01*
X156750000Y-87730000D02*
X163290000Y-87730000D01*
X164060000Y-86360000D02*
X163290000Y-86360000D01*
X155980000Y-86360000D02*
X156750000Y-86360000D01*
X144050000Y-74830000D02*
X144050000Y-77570000D01*
X144050000Y-77570000D02*
X150590000Y-77570000D01*
X150590000Y-77570000D02*
X150590000Y-74830000D01*
X150590000Y-74830000D02*
X144050000Y-74830000D01*
X143280000Y-76200000D02*
X144050000Y-76200000D01*
X151360000Y-76200000D02*
X150590000Y-76200000D01*
X155980000Y-81280000D02*
X156750000Y-81280000D01*
X164060000Y-81280000D02*
X163290000Y-81280000D01*
X156750000Y-82650000D02*
X163290000Y-82650000D01*
X156750000Y-79910000D02*
X156750000Y-82650000D01*
X163290000Y-79910000D02*
X156750000Y-79910000D01*
X163290000Y-82650000D02*
X163290000Y-79910000D01*
X174090000Y-78010000D02*
X171350000Y-78010000D01*
X171350000Y-78010000D02*
X171350000Y-84550000D01*
X171350000Y-84550000D02*
X174090000Y-84550000D01*
X174090000Y-84550000D02*
X174090000Y-78010000D01*
X172720000Y-77240000D02*
X172720000Y-78010000D01*
X172720000Y-85320000D02*
X172720000Y-84550000D01*
X167020000Y-99020000D02*
X168020000Y-99020000D01*
X167520000Y-98520000D02*
X167520000Y-99520000D01*
X174220000Y-102720000D02*
X174220000Y-105320000D01*
X174220000Y-97720000D02*
X174220000Y-100320000D01*
X174220000Y-92720000D02*
X174220000Y-95320000D01*
X160320000Y-94920000D02*
X160020000Y-95220000D01*
X159720000Y-94920000D02*
X160320000Y-94920000D01*
X160020000Y-95220000D02*
X159720000Y-94920000D01*
X160820000Y-92720000D02*
X160820000Y-95220000D01*
X165620000Y-92720000D02*
X160820000Y-92720000D01*
X160820000Y-105320000D02*
X160820000Y-102520000D01*
X165720000Y-105320000D02*
X160820000Y-105320000D01*
X174220000Y-105320000D02*
X169320000Y-105320000D01*
X169320000Y-92720000D02*
X174220000Y-92720000D01*
X170520000Y-99020000D02*
G75*
G03X170520000Y-99020000I-3000000J0D01*
G01*
X131310000Y-85565000D02*
X131310000Y-84940000D01*
X131310000Y-87780000D02*
X131310000Y-87155000D01*
X135350000Y-85565000D02*
X135350000Y-84940000D01*
X135350000Y-87780000D02*
X135350000Y-87155000D01*
X135350000Y-84940000D02*
X131310000Y-84940000D01*
X135350000Y-87780000D02*
X131310000Y-87780000D01*
X135390000Y-82700000D02*
X131350000Y-82700000D01*
X135390000Y-79860000D02*
X131350000Y-79860000D01*
X135390000Y-82700000D02*
X135390000Y-82075000D01*
X135390000Y-80485000D02*
X135390000Y-79860000D01*
X131350000Y-82700000D02*
X131350000Y-82075000D01*
X131350000Y-80485000D02*
X131350000Y-79860000D01*
X126930000Y-100330000D02*
G75*
G03X126930000Y-100330000I-1200000J0D01*
G01*
X139630000Y-86360000D02*
G75*
G03X139630000Y-86360000I-1200000J0D01*
G01*
X139630000Y-81280000D02*
G75*
G03X139630000Y-81280000I-1200000J0D01*
G01*
X166300000Y-46355000D02*
G75*
G03X166300000Y-46355000I-1200000J0D01*
G01*
X177730000Y-88265000D02*
G75*
G03X177730000Y-88265000I-1200000J0D01*
G01*
X171380000Y-46355000D02*
G75*
G03X171380000Y-46355000I-1200000J0D01*
G01*
X153600000Y-46355000D02*
G75*
G03X153600000Y-46355000I-1200000J0D01*
G01*
X176460000Y-73025000D02*
G75*
G03X176460000Y-73025000I-1200000J0D01*
G01*
X147250000Y-46355000D02*
G75*
G03X147250000Y-46355000I-1200000J0D01*
G01*
X159950000Y-46355000D02*
G75*
G03X159950000Y-46355000I-1200000J0D01*
G01*
X125660000Y-51435000D02*
G75*
G03X125660000Y-51435000I-1200000J0D01*
G01*
X179000000Y-51435000D02*
G75*
G03X179000000Y-51435000I-1200000J0D01*
G01*
D10*
X148740952Y-74112380D02*
X148264761Y-74112380D01*
X148264761Y-73112380D01*
X149074285Y-73588571D02*
X149407619Y-73588571D01*
X149550476Y-74112380D02*
X149074285Y-74112380D01*
X149074285Y-73112380D01*
X149550476Y-73112380D01*
X149979047Y-74112380D02*
X149979047Y-73112380D01*
X150217142Y-73112380D01*
X150360000Y-73160000D01*
X150455238Y-73255238D01*
X150502857Y-73350476D01*
X150550476Y-73540952D01*
X150550476Y-73683809D01*
X150502857Y-73874285D01*
X150455238Y-73969523D01*
X150360000Y-74064761D01*
X150217142Y-74112380D01*
X149979047Y-74112380D01*
X151502857Y-74112380D02*
X150931428Y-74112380D01*
X151217142Y-74112380D02*
X151217142Y-73112380D01*
X151121904Y-73255238D01*
X151026666Y-73350476D01*
X150931428Y-73398095D01*
X155812380Y-93448095D02*
X154812380Y-93448095D01*
X154812380Y-93210000D01*
X154860000Y-93067142D01*
X154955238Y-92971904D01*
X155050476Y-92924285D01*
X155240952Y-92876666D01*
X155383809Y-92876666D01*
X155574285Y-92924285D01*
X155669523Y-92971904D01*
X155764761Y-93067142D01*
X155812380Y-93210000D01*
X155812380Y-93448095D01*
X155812380Y-91924285D02*
X155812380Y-92495714D01*
X155812380Y-92210000D02*
X154812380Y-92210000D01*
X154955238Y-92305238D01*
X155050476Y-92400476D01*
X155098095Y-92495714D01*
X148192380Y-93448095D02*
X147192380Y-93448095D01*
X147192380Y-93210000D01*
X147240000Y-93067142D01*
X147335238Y-92971904D01*
X147430476Y-92924285D01*
X147620952Y-92876666D01*
X147763809Y-92876666D01*
X147954285Y-92924285D01*
X148049523Y-92971904D01*
X148144761Y-93067142D01*
X148192380Y-93210000D01*
X148192380Y-93448095D01*
X147287619Y-92495714D02*
X147240000Y-92448095D01*
X147192380Y-92352857D01*
X147192380Y-92114761D01*
X147240000Y-92019523D01*
X147287619Y-91971904D01*
X147382857Y-91924285D01*
X147478095Y-91924285D01*
X147620952Y-91971904D01*
X148192380Y-92543333D01*
X148192380Y-91924285D01*
X140572380Y-93448095D02*
X139572380Y-93448095D01*
X139572380Y-93210000D01*
X139620000Y-93067142D01*
X139715238Y-92971904D01*
X139810476Y-92924285D01*
X140000952Y-92876666D01*
X140143809Y-92876666D01*
X140334285Y-92924285D01*
X140429523Y-92971904D01*
X140524761Y-93067142D01*
X140572380Y-93210000D01*
X140572380Y-93448095D01*
X139572380Y-92543333D02*
X139572380Y-91924285D01*
X139953333Y-92257619D01*
X139953333Y-92114761D01*
X140000952Y-92019523D01*
X140048571Y-91971904D01*
X140143809Y-91924285D01*
X140381904Y-91924285D01*
X140477142Y-91971904D01*
X140524761Y-92019523D01*
X140572380Y-92114761D01*
X140572380Y-92400476D01*
X140524761Y-92495714D01*
X140477142Y-92543333D01*
X132952380Y-93448095D02*
X131952380Y-93448095D01*
X131952380Y-93210000D01*
X132000000Y-93067142D01*
X132095238Y-92971904D01*
X132190476Y-92924285D01*
X132380952Y-92876666D01*
X132523809Y-92876666D01*
X132714285Y-92924285D01*
X132809523Y-92971904D01*
X132904761Y-93067142D01*
X132952380Y-93210000D01*
X132952380Y-93448095D01*
X132285714Y-92019523D02*
X132952380Y-92019523D01*
X131904761Y-92257619D02*
X132619047Y-92495714D01*
X132619047Y-91876666D01*
X155392380Y-101766666D02*
X154916190Y-102100000D01*
X155392380Y-102338095D02*
X154392380Y-102338095D01*
X154392380Y-101957142D01*
X154440000Y-101861904D01*
X154487619Y-101814285D01*
X154582857Y-101766666D01*
X154725714Y-101766666D01*
X154820952Y-101814285D01*
X154868571Y-101861904D01*
X154916190Y-101957142D01*
X154916190Y-102338095D01*
X155392380Y-100814285D02*
X155392380Y-101385714D01*
X155392380Y-101100000D02*
X154392380Y-101100000D01*
X154535238Y-101195238D01*
X154630476Y-101290476D01*
X154678095Y-101385714D01*
X152852380Y-101719047D02*
X152852380Y-102290476D01*
X152852380Y-102004761D02*
X151852380Y-102004761D01*
X151995238Y-102100000D01*
X152090476Y-102195238D01*
X152138095Y-102290476D01*
X152852380Y-101290476D02*
X151852380Y-101290476D01*
X152471428Y-101195238D02*
X152852380Y-100909523D01*
X152185714Y-100909523D02*
X152566666Y-101290476D01*
X147772380Y-101766666D02*
X147296190Y-102100000D01*
X147772380Y-102338095D02*
X146772380Y-102338095D01*
X146772380Y-101957142D01*
X146820000Y-101861904D01*
X146867619Y-101814285D01*
X146962857Y-101766666D01*
X147105714Y-101766666D01*
X147200952Y-101814285D01*
X147248571Y-101861904D01*
X147296190Y-101957142D01*
X147296190Y-102338095D01*
X146867619Y-101385714D02*
X146820000Y-101338095D01*
X146772380Y-101242857D01*
X146772380Y-101004761D01*
X146820000Y-100909523D01*
X146867619Y-100861904D01*
X146962857Y-100814285D01*
X147058095Y-100814285D01*
X147200952Y-100861904D01*
X147772380Y-101433333D01*
X147772380Y-100814285D01*
X145232380Y-101719047D02*
X145232380Y-102290476D01*
X145232380Y-102004761D02*
X144232380Y-102004761D01*
X144375238Y-102100000D01*
X144470476Y-102195238D01*
X144518095Y-102290476D01*
X145232380Y-101290476D02*
X144232380Y-101290476D01*
X144851428Y-101195238D02*
X145232380Y-100909523D01*
X144565714Y-100909523D02*
X144946666Y-101290476D01*
X140152380Y-101766666D02*
X139676190Y-102100000D01*
X140152380Y-102338095D02*
X139152380Y-102338095D01*
X139152380Y-101957142D01*
X139200000Y-101861904D01*
X139247619Y-101814285D01*
X139342857Y-101766666D01*
X139485714Y-101766666D01*
X139580952Y-101814285D01*
X139628571Y-101861904D01*
X139676190Y-101957142D01*
X139676190Y-102338095D01*
X139152380Y-101433333D02*
X139152380Y-100814285D01*
X139533333Y-101147619D01*
X139533333Y-101004761D01*
X139580952Y-100909523D01*
X139628571Y-100861904D01*
X139723809Y-100814285D01*
X139961904Y-100814285D01*
X140057142Y-100861904D01*
X140104761Y-100909523D01*
X140152380Y-101004761D01*
X140152380Y-101290476D01*
X140104761Y-101385714D01*
X140057142Y-101433333D01*
X137612380Y-101719047D02*
X137612380Y-102290476D01*
X137612380Y-102004761D02*
X136612380Y-102004761D01*
X136755238Y-102100000D01*
X136850476Y-102195238D01*
X136898095Y-102290476D01*
X137612380Y-101290476D02*
X136612380Y-101290476D01*
X137231428Y-101195238D02*
X137612380Y-100909523D01*
X136945714Y-100909523D02*
X137326666Y-101290476D01*
X132532380Y-101766666D02*
X132056190Y-102100000D01*
X132532380Y-102338095D02*
X131532380Y-102338095D01*
X131532380Y-101957142D01*
X131580000Y-101861904D01*
X131627619Y-101814285D01*
X131722857Y-101766666D01*
X131865714Y-101766666D01*
X131960952Y-101814285D01*
X132008571Y-101861904D01*
X132056190Y-101957142D01*
X132056190Y-102338095D01*
X131865714Y-100909523D02*
X132532380Y-100909523D01*
X131484761Y-101147619D02*
X132199047Y-101385714D01*
X132199047Y-100766666D01*
X129992380Y-101719047D02*
X129992380Y-102290476D01*
X129992380Y-102004761D02*
X128992380Y-102004761D01*
X129135238Y-102100000D01*
X129230476Y-102195238D01*
X129278095Y-102290476D01*
X129992380Y-101290476D02*
X128992380Y-101290476D01*
X129611428Y-101195238D02*
X129992380Y-100909523D01*
X129325714Y-100909523D02*
X129706666Y-101290476D01*
X159853333Y-79192380D02*
X159520000Y-78716190D01*
X159281904Y-79192380D02*
X159281904Y-78192380D01*
X159662857Y-78192380D01*
X159758095Y-78240000D01*
X159805714Y-78287619D01*
X159853333Y-78382857D01*
X159853333Y-78525714D01*
X159805714Y-78620952D01*
X159758095Y-78668571D01*
X159662857Y-78716190D01*
X159281904Y-78716190D01*
X160758095Y-78192380D02*
X160281904Y-78192380D01*
X160234285Y-78668571D01*
X160281904Y-78620952D01*
X160377142Y-78573333D01*
X160615238Y-78573333D01*
X160710476Y-78620952D01*
X160758095Y-78668571D01*
X160805714Y-78763809D01*
X160805714Y-79001904D01*
X160758095Y-79097142D01*
X160710476Y-79144761D01*
X160615238Y-79192380D01*
X160377142Y-79192380D01*
X160281904Y-79144761D01*
X160234285Y-79097142D01*
X158615238Y-75747619D02*
X158662857Y-75700000D01*
X158758095Y-75652380D01*
X158996190Y-75652380D01*
X159091428Y-75700000D01*
X159139047Y-75747619D01*
X159186666Y-75842857D01*
X159186666Y-75938095D01*
X159139047Y-76080952D01*
X158567619Y-76652380D01*
X159186666Y-76652380D01*
X159615238Y-76557142D02*
X159662857Y-76604761D01*
X159615238Y-76652380D01*
X159567619Y-76604761D01*
X159615238Y-76557142D01*
X159615238Y-76652380D01*
X160043809Y-75747619D02*
X160091428Y-75700000D01*
X160186666Y-75652380D01*
X160424761Y-75652380D01*
X160520000Y-75700000D01*
X160567619Y-75747619D01*
X160615238Y-75842857D01*
X160615238Y-75938095D01*
X160567619Y-76080952D01*
X159996190Y-76652380D01*
X160615238Y-76652380D01*
X161043809Y-76652380D02*
X161043809Y-75652380D01*
X161139047Y-76271428D02*
X161424761Y-76652380D01*
X161424761Y-75985714D02*
X161043809Y-76366666D01*
X147153333Y-89182380D02*
X146820000Y-88706190D01*
X146581904Y-89182380D02*
X146581904Y-88182380D01*
X146962857Y-88182380D01*
X147058095Y-88230000D01*
X147105714Y-88277619D01*
X147153333Y-88372857D01*
X147153333Y-88515714D01*
X147105714Y-88610952D01*
X147058095Y-88658571D01*
X146962857Y-88706190D01*
X146581904Y-88706190D01*
X148010476Y-88182380D02*
X147820000Y-88182380D01*
X147724761Y-88230000D01*
X147677142Y-88277619D01*
X147581904Y-88420476D01*
X147534285Y-88610952D01*
X147534285Y-88991904D01*
X147581904Y-89087142D01*
X147629523Y-89134761D01*
X147724761Y-89182380D01*
X147915238Y-89182380D01*
X148010476Y-89134761D01*
X148058095Y-89087142D01*
X148105714Y-88991904D01*
X148105714Y-88753809D01*
X148058095Y-88658571D01*
X148010476Y-88610952D01*
X147915238Y-88563333D01*
X147724761Y-88563333D01*
X147629523Y-88610952D01*
X147581904Y-88658571D01*
X147534285Y-88753809D01*
X146724761Y-86812380D02*
X146153333Y-86812380D01*
X146439047Y-86812380D02*
X146439047Y-85812380D01*
X146343809Y-85955238D01*
X146248571Y-86050476D01*
X146153333Y-86098095D01*
X147343809Y-85812380D02*
X147439047Y-85812380D01*
X147534285Y-85860000D01*
X147581904Y-85907619D01*
X147629523Y-86002857D01*
X147677142Y-86193333D01*
X147677142Y-86431428D01*
X147629523Y-86621904D01*
X147581904Y-86717142D01*
X147534285Y-86764761D01*
X147439047Y-86812380D01*
X147343809Y-86812380D01*
X147248571Y-86764761D01*
X147200952Y-86717142D01*
X147153333Y-86621904D01*
X147105714Y-86431428D01*
X147105714Y-86193333D01*
X147153333Y-86002857D01*
X147200952Y-85907619D01*
X147248571Y-85860000D01*
X147343809Y-85812380D01*
X148105714Y-86812380D02*
X148105714Y-85812380D01*
X148200952Y-86431428D02*
X148486666Y-86812380D01*
X148486666Y-86145714D02*
X148105714Y-86526666D01*
X147153333Y-84102380D02*
X146820000Y-83626190D01*
X146581904Y-84102380D02*
X146581904Y-83102380D01*
X146962857Y-83102380D01*
X147058095Y-83150000D01*
X147105714Y-83197619D01*
X147153333Y-83292857D01*
X147153333Y-83435714D01*
X147105714Y-83530952D01*
X147058095Y-83578571D01*
X146962857Y-83626190D01*
X146581904Y-83626190D01*
X147486666Y-83102380D02*
X148153333Y-83102380D01*
X147724761Y-84102380D01*
X146724761Y-81732380D02*
X146153333Y-81732380D01*
X146439047Y-81732380D02*
X146439047Y-80732380D01*
X146343809Y-80875238D01*
X146248571Y-80970476D01*
X146153333Y-81018095D01*
X147343809Y-80732380D02*
X147439047Y-80732380D01*
X147534285Y-80780000D01*
X147581904Y-80827619D01*
X147629523Y-80922857D01*
X147677142Y-81113333D01*
X147677142Y-81351428D01*
X147629523Y-81541904D01*
X147581904Y-81637142D01*
X147534285Y-81684761D01*
X147439047Y-81732380D01*
X147343809Y-81732380D01*
X147248571Y-81684761D01*
X147200952Y-81637142D01*
X147153333Y-81541904D01*
X147105714Y-81351428D01*
X147105714Y-81113333D01*
X147153333Y-80922857D01*
X147200952Y-80827619D01*
X147248571Y-80780000D01*
X147343809Y-80732380D01*
X148105714Y-81732380D02*
X148105714Y-80732380D01*
X148200952Y-81351428D02*
X148486666Y-81732380D01*
X148486666Y-81065714D02*
X148105714Y-81446666D01*
X159853333Y-89182380D02*
X159520000Y-88706190D01*
X159281904Y-89182380D02*
X159281904Y-88182380D01*
X159662857Y-88182380D01*
X159758095Y-88230000D01*
X159805714Y-88277619D01*
X159853333Y-88372857D01*
X159853333Y-88515714D01*
X159805714Y-88610952D01*
X159758095Y-88658571D01*
X159662857Y-88706190D01*
X159281904Y-88706190D01*
X160424761Y-88610952D02*
X160329523Y-88563333D01*
X160281904Y-88515714D01*
X160234285Y-88420476D01*
X160234285Y-88372857D01*
X160281904Y-88277619D01*
X160329523Y-88230000D01*
X160424761Y-88182380D01*
X160615238Y-88182380D01*
X160710476Y-88230000D01*
X160758095Y-88277619D01*
X160805714Y-88372857D01*
X160805714Y-88420476D01*
X160758095Y-88515714D01*
X160710476Y-88563333D01*
X160615238Y-88610952D01*
X160424761Y-88610952D01*
X160329523Y-88658571D01*
X160281904Y-88706190D01*
X160234285Y-88801428D01*
X160234285Y-88991904D01*
X160281904Y-89087142D01*
X160329523Y-89134761D01*
X160424761Y-89182380D01*
X160615238Y-89182380D01*
X160710476Y-89134761D01*
X160758095Y-89087142D01*
X160805714Y-88991904D01*
X160805714Y-88801428D01*
X160758095Y-88706190D01*
X160710476Y-88658571D01*
X160615238Y-88610952D01*
X159424761Y-86812380D02*
X158853333Y-86812380D01*
X159139047Y-86812380D02*
X159139047Y-85812380D01*
X159043809Y-85955238D01*
X158948571Y-86050476D01*
X158853333Y-86098095D01*
X160043809Y-85812380D02*
X160139047Y-85812380D01*
X160234285Y-85860000D01*
X160281904Y-85907619D01*
X160329523Y-86002857D01*
X160377142Y-86193333D01*
X160377142Y-86431428D01*
X160329523Y-86621904D01*
X160281904Y-86717142D01*
X160234285Y-86764761D01*
X160139047Y-86812380D01*
X160043809Y-86812380D01*
X159948571Y-86764761D01*
X159900952Y-86717142D01*
X159853333Y-86621904D01*
X159805714Y-86431428D01*
X159805714Y-86193333D01*
X159853333Y-86002857D01*
X159900952Y-85907619D01*
X159948571Y-85860000D01*
X160043809Y-85812380D01*
X160805714Y-86812380D02*
X160805714Y-85812380D01*
X160900952Y-86431428D02*
X161186666Y-86812380D01*
X161186666Y-86145714D02*
X160805714Y-86526666D01*
X147153333Y-79192380D02*
X146820000Y-78716190D01*
X146581904Y-79192380D02*
X146581904Y-78192380D01*
X146962857Y-78192380D01*
X147058095Y-78240000D01*
X147105714Y-78287619D01*
X147153333Y-78382857D01*
X147153333Y-78525714D01*
X147105714Y-78620952D01*
X147058095Y-78668571D01*
X146962857Y-78716190D01*
X146581904Y-78716190D01*
X147629523Y-79192380D02*
X147820000Y-79192380D01*
X147915238Y-79144761D01*
X147962857Y-79097142D01*
X148058095Y-78954285D01*
X148105714Y-78763809D01*
X148105714Y-78382857D01*
X148058095Y-78287619D01*
X148010476Y-78240000D01*
X147915238Y-78192380D01*
X147724761Y-78192380D01*
X147629523Y-78240000D01*
X147581904Y-78287619D01*
X147534285Y-78382857D01*
X147534285Y-78620952D01*
X147581904Y-78716190D01*
X147629523Y-78763809D01*
X147724761Y-78811428D01*
X147915238Y-78811428D01*
X148010476Y-78763809D01*
X148058095Y-78716190D01*
X148105714Y-78620952D01*
X145915238Y-75747619D02*
X145962857Y-75700000D01*
X146058095Y-75652380D01*
X146296190Y-75652380D01*
X146391428Y-75700000D01*
X146439047Y-75747619D01*
X146486666Y-75842857D01*
X146486666Y-75938095D01*
X146439047Y-76080952D01*
X145867619Y-76652380D01*
X146486666Y-76652380D01*
X146915238Y-76557142D02*
X146962857Y-76604761D01*
X146915238Y-76652380D01*
X146867619Y-76604761D01*
X146915238Y-76557142D01*
X146915238Y-76652380D01*
X147343809Y-75747619D02*
X147391428Y-75700000D01*
X147486666Y-75652380D01*
X147724761Y-75652380D01*
X147820000Y-75700000D01*
X147867619Y-75747619D01*
X147915238Y-75842857D01*
X147915238Y-75938095D01*
X147867619Y-76080952D01*
X147296190Y-76652380D01*
X147915238Y-76652380D01*
X148343809Y-76652380D02*
X148343809Y-75652380D01*
X148439047Y-76271428D02*
X148724761Y-76652380D01*
X148724761Y-75985714D02*
X148343809Y-76366666D01*
X159377142Y-84102380D02*
X159043809Y-83626190D01*
X158805714Y-84102380D02*
X158805714Y-83102380D01*
X159186666Y-83102380D01*
X159281904Y-83150000D01*
X159329523Y-83197619D01*
X159377142Y-83292857D01*
X159377142Y-83435714D01*
X159329523Y-83530952D01*
X159281904Y-83578571D01*
X159186666Y-83626190D01*
X158805714Y-83626190D01*
X160329523Y-84102380D02*
X159758095Y-84102380D01*
X160043809Y-84102380D02*
X160043809Y-83102380D01*
X159948571Y-83245238D01*
X159853333Y-83340476D01*
X159758095Y-83388095D01*
X160948571Y-83102380D02*
X161043809Y-83102380D01*
X161139047Y-83150000D01*
X161186666Y-83197619D01*
X161234285Y-83292857D01*
X161281904Y-83483333D01*
X161281904Y-83721428D01*
X161234285Y-83911904D01*
X161186666Y-84007142D01*
X161139047Y-84054761D01*
X161043809Y-84102380D01*
X160948571Y-84102380D01*
X160853333Y-84054761D01*
X160805714Y-84007142D01*
X160758095Y-83911904D01*
X160710476Y-83721428D01*
X160710476Y-83483333D01*
X160758095Y-83292857D01*
X160805714Y-83197619D01*
X160853333Y-83150000D01*
X160948571Y-83102380D01*
X159424761Y-81732380D02*
X158853333Y-81732380D01*
X159139047Y-81732380D02*
X159139047Y-80732380D01*
X159043809Y-80875238D01*
X158948571Y-80970476D01*
X158853333Y-81018095D01*
X160043809Y-80732380D02*
X160139047Y-80732380D01*
X160234285Y-80780000D01*
X160281904Y-80827619D01*
X160329523Y-80922857D01*
X160377142Y-81113333D01*
X160377142Y-81351428D01*
X160329523Y-81541904D01*
X160281904Y-81637142D01*
X160234285Y-81684761D01*
X160139047Y-81732380D01*
X160043809Y-81732380D01*
X159948571Y-81684761D01*
X159900952Y-81637142D01*
X159853333Y-81541904D01*
X159805714Y-81351428D01*
X159805714Y-81113333D01*
X159853333Y-80922857D01*
X159900952Y-80827619D01*
X159948571Y-80780000D01*
X160043809Y-80732380D01*
X160805714Y-81732380D02*
X160805714Y-80732380D01*
X160900952Y-81351428D02*
X161186666Y-81732380D01*
X161186666Y-81065714D02*
X160805714Y-81446666D01*
X175542380Y-81922857D02*
X175066190Y-82256190D01*
X175542380Y-82494285D02*
X174542380Y-82494285D01*
X174542380Y-82113333D01*
X174590000Y-82018095D01*
X174637619Y-81970476D01*
X174732857Y-81922857D01*
X174875714Y-81922857D01*
X174970952Y-81970476D01*
X175018571Y-82018095D01*
X175066190Y-82113333D01*
X175066190Y-82494285D01*
X175542380Y-80970476D02*
X175542380Y-81541904D01*
X175542380Y-81256190D02*
X174542380Y-81256190D01*
X174685238Y-81351428D01*
X174780476Y-81446666D01*
X174828095Y-81541904D01*
X175542380Y-80018095D02*
X175542380Y-80589523D01*
X175542380Y-80303809D02*
X174542380Y-80303809D01*
X174685238Y-80399047D01*
X174780476Y-80494285D01*
X174828095Y-80589523D01*
X172505714Y-82208571D02*
X173172380Y-82208571D01*
X172124761Y-82446666D02*
X172839047Y-82684761D01*
X172839047Y-82065714D01*
X173077142Y-81684761D02*
X173124761Y-81637142D01*
X173172380Y-81684761D01*
X173124761Y-81732380D01*
X173077142Y-81684761D01*
X173172380Y-81684761D01*
X172172380Y-81303809D02*
X172172380Y-80637142D01*
X173172380Y-81065714D01*
X173172380Y-80256190D02*
X172172380Y-80256190D01*
X172791428Y-80160952D02*
X173172380Y-79875238D01*
X172505714Y-79875238D02*
X172886666Y-80256190D01*
X160591666Y-107084761D02*
X160734523Y-107132380D01*
X160972619Y-107132380D01*
X161067857Y-107084761D01*
X161115476Y-107037142D01*
X161163095Y-106941904D01*
X161163095Y-106846666D01*
X161115476Y-106751428D01*
X161067857Y-106703809D01*
X160972619Y-106656190D01*
X160782142Y-106608571D01*
X160686904Y-106560952D01*
X160639285Y-106513333D01*
X160591666Y-106418095D01*
X160591666Y-106322857D01*
X160639285Y-106227619D01*
X160686904Y-106180000D01*
X160782142Y-106132380D01*
X161020238Y-106132380D01*
X161163095Y-106180000D01*
X161496428Y-106132380D02*
X161734523Y-107132380D01*
X161925000Y-106418095D01*
X162115476Y-107132380D01*
X162353571Y-106132380D01*
X163258333Y-107132380D02*
X162686904Y-107132380D01*
X162972619Y-107132380D02*
X162972619Y-106132380D01*
X162877380Y-106275238D01*
X162782142Y-106370476D01*
X162686904Y-106418095D01*
X133163333Y-89267142D02*
X133115714Y-89314761D01*
X132972857Y-89362380D01*
X132877619Y-89362380D01*
X132734761Y-89314761D01*
X132639523Y-89219523D01*
X132591904Y-89124285D01*
X132544285Y-88933809D01*
X132544285Y-88790952D01*
X132591904Y-88600476D01*
X132639523Y-88505238D01*
X132734761Y-88410000D01*
X132877619Y-88362380D01*
X132972857Y-88362380D01*
X133115714Y-88410000D01*
X133163333Y-88457619D01*
X134115714Y-89362380D02*
X133544285Y-89362380D01*
X133830000Y-89362380D02*
X133830000Y-88362380D01*
X133734761Y-88505238D01*
X133639523Y-88600476D01*
X133544285Y-88648095D01*
X133203333Y-84187142D02*
X133155714Y-84234761D01*
X133012857Y-84282380D01*
X132917619Y-84282380D01*
X132774761Y-84234761D01*
X132679523Y-84139523D01*
X132631904Y-84044285D01*
X132584285Y-83853809D01*
X132584285Y-83710952D01*
X132631904Y-83520476D01*
X132679523Y-83425238D01*
X132774761Y-83330000D01*
X132917619Y-83282380D01*
X133012857Y-83282380D01*
X133155714Y-83330000D01*
X133203333Y-83377619D01*
X133584285Y-83377619D02*
X133631904Y-83330000D01*
X133727142Y-83282380D01*
X133965238Y-83282380D01*
X134060476Y-83330000D01*
X134108095Y-83377619D01*
X134155714Y-83472857D01*
X134155714Y-83568095D01*
X134108095Y-83710952D01*
X133536666Y-84282380D01*
X134155714Y-84282380D01*
X124468095Y-97784380D02*
X125039523Y-97784380D01*
X124753809Y-98784380D02*
X124753809Y-97784380D01*
X125372857Y-98784380D02*
X125372857Y-97784380D01*
X125753809Y-97784380D01*
X125849047Y-97832000D01*
X125896666Y-97879619D01*
X125944285Y-97974857D01*
X125944285Y-98117714D01*
X125896666Y-98212952D01*
X125849047Y-98260571D01*
X125753809Y-98308190D01*
X125372857Y-98308190D01*
X126896666Y-98784380D02*
X126325238Y-98784380D01*
X126610952Y-98784380D02*
X126610952Y-97784380D01*
X126515714Y-97927238D01*
X126420476Y-98022476D01*
X126325238Y-98070095D01*
X137168095Y-83814380D02*
X137739523Y-83814380D01*
X137453809Y-84814380D02*
X137453809Y-83814380D01*
X138072857Y-84814380D02*
X138072857Y-83814380D01*
X138453809Y-83814380D01*
X138549047Y-83862000D01*
X138596666Y-83909619D01*
X138644285Y-84004857D01*
X138644285Y-84147714D01*
X138596666Y-84242952D01*
X138549047Y-84290571D01*
X138453809Y-84338190D01*
X138072857Y-84338190D01*
X139025238Y-83909619D02*
X139072857Y-83862000D01*
X139168095Y-83814380D01*
X139406190Y-83814380D01*
X139501428Y-83862000D01*
X139549047Y-83909619D01*
X139596666Y-84004857D01*
X139596666Y-84100095D01*
X139549047Y-84242952D01*
X138977619Y-84814380D01*
X139596666Y-84814380D01*
X137168095Y-78734380D02*
X137739523Y-78734380D01*
X137453809Y-79734380D02*
X137453809Y-78734380D01*
X138072857Y-79734380D02*
X138072857Y-78734380D01*
X138453809Y-78734380D01*
X138549047Y-78782000D01*
X138596666Y-78829619D01*
X138644285Y-78924857D01*
X138644285Y-79067714D01*
X138596666Y-79162952D01*
X138549047Y-79210571D01*
X138453809Y-79258190D01*
X138072857Y-79258190D01*
X138977619Y-78734380D02*
X139596666Y-78734380D01*
X139263333Y-79115333D01*
X139406190Y-79115333D01*
X139501428Y-79162952D01*
X139549047Y-79210571D01*
X139596666Y-79305809D01*
X139596666Y-79543904D01*
X139549047Y-79639142D01*
X139501428Y-79686761D01*
X139406190Y-79734380D01*
X139120476Y-79734380D01*
X139025238Y-79686761D01*
X138977619Y-79639142D01*
X163838095Y-43809380D02*
X164409523Y-43809380D01*
X164123809Y-44809380D02*
X164123809Y-43809380D01*
X164742857Y-44809380D02*
X164742857Y-43809380D01*
X165123809Y-43809380D01*
X165219047Y-43857000D01*
X165266666Y-43904619D01*
X165314285Y-43999857D01*
X165314285Y-44142714D01*
X165266666Y-44237952D01*
X165219047Y-44285571D01*
X165123809Y-44333190D01*
X164742857Y-44333190D01*
X166171428Y-44142714D02*
X166171428Y-44809380D01*
X165933333Y-43761761D02*
X165695238Y-44476047D01*
X166314285Y-44476047D01*
X175268095Y-85719380D02*
X175839523Y-85719380D01*
X175553809Y-86719380D02*
X175553809Y-85719380D01*
X176172857Y-86719380D02*
X176172857Y-85719380D01*
X176553809Y-85719380D01*
X176649047Y-85767000D01*
X176696666Y-85814619D01*
X176744285Y-85909857D01*
X176744285Y-86052714D01*
X176696666Y-86147952D01*
X176649047Y-86195571D01*
X176553809Y-86243190D01*
X176172857Y-86243190D01*
X177649047Y-85719380D02*
X177172857Y-85719380D01*
X177125238Y-86195571D01*
X177172857Y-86147952D01*
X177268095Y-86100333D01*
X177506190Y-86100333D01*
X177601428Y-86147952D01*
X177649047Y-86195571D01*
X177696666Y-86290809D01*
X177696666Y-86528904D01*
X177649047Y-86624142D01*
X177601428Y-86671761D01*
X177506190Y-86719380D01*
X177268095Y-86719380D01*
X177172857Y-86671761D01*
X177125238Y-86624142D01*
X168918095Y-43809380D02*
X169489523Y-43809380D01*
X169203809Y-44809380D02*
X169203809Y-43809380D01*
X169822857Y-44809380D02*
X169822857Y-43809380D01*
X170203809Y-43809380D01*
X170299047Y-43857000D01*
X170346666Y-43904619D01*
X170394285Y-43999857D01*
X170394285Y-44142714D01*
X170346666Y-44237952D01*
X170299047Y-44285571D01*
X170203809Y-44333190D01*
X169822857Y-44333190D01*
X171251428Y-43809380D02*
X171060952Y-43809380D01*
X170965714Y-43857000D01*
X170918095Y-43904619D01*
X170822857Y-44047476D01*
X170775238Y-44237952D01*
X170775238Y-44618904D01*
X170822857Y-44714142D01*
X170870476Y-44761761D01*
X170965714Y-44809380D01*
X171156190Y-44809380D01*
X171251428Y-44761761D01*
X171299047Y-44714142D01*
X171346666Y-44618904D01*
X171346666Y-44380809D01*
X171299047Y-44285571D01*
X171251428Y-44237952D01*
X171156190Y-44190333D01*
X170965714Y-44190333D01*
X170870476Y-44237952D01*
X170822857Y-44285571D01*
X170775238Y-44380809D01*
X151138095Y-43809380D02*
X151709523Y-43809380D01*
X151423809Y-44809380D02*
X151423809Y-43809380D01*
X152042857Y-44809380D02*
X152042857Y-43809380D01*
X152423809Y-43809380D01*
X152519047Y-43857000D01*
X152566666Y-43904619D01*
X152614285Y-43999857D01*
X152614285Y-44142714D01*
X152566666Y-44237952D01*
X152519047Y-44285571D01*
X152423809Y-44333190D01*
X152042857Y-44333190D01*
X152947619Y-43809380D02*
X153614285Y-43809380D01*
X153185714Y-44809380D01*
X173998095Y-70479380D02*
X174569523Y-70479380D01*
X174283809Y-71479380D02*
X174283809Y-70479380D01*
X174902857Y-71479380D02*
X174902857Y-70479380D01*
X175283809Y-70479380D01*
X175379047Y-70527000D01*
X175426666Y-70574619D01*
X175474285Y-70669857D01*
X175474285Y-70812714D01*
X175426666Y-70907952D01*
X175379047Y-70955571D01*
X175283809Y-71003190D01*
X174902857Y-71003190D01*
X176045714Y-70907952D02*
X175950476Y-70860333D01*
X175902857Y-70812714D01*
X175855238Y-70717476D01*
X175855238Y-70669857D01*
X175902857Y-70574619D01*
X175950476Y-70527000D01*
X176045714Y-70479380D01*
X176236190Y-70479380D01*
X176331428Y-70527000D01*
X176379047Y-70574619D01*
X176426666Y-70669857D01*
X176426666Y-70717476D01*
X176379047Y-70812714D01*
X176331428Y-70860333D01*
X176236190Y-70907952D01*
X176045714Y-70907952D01*
X175950476Y-70955571D01*
X175902857Y-71003190D01*
X175855238Y-71098428D01*
X175855238Y-71288904D01*
X175902857Y-71384142D01*
X175950476Y-71431761D01*
X176045714Y-71479380D01*
X176236190Y-71479380D01*
X176331428Y-71431761D01*
X176379047Y-71384142D01*
X176426666Y-71288904D01*
X176426666Y-71098428D01*
X176379047Y-71003190D01*
X176331428Y-70955571D01*
X176236190Y-70907952D01*
X144788095Y-43809380D02*
X145359523Y-43809380D01*
X145073809Y-44809380D02*
X145073809Y-43809380D01*
X145692857Y-44809380D02*
X145692857Y-43809380D01*
X146073809Y-43809380D01*
X146169047Y-43857000D01*
X146216666Y-43904619D01*
X146264285Y-43999857D01*
X146264285Y-44142714D01*
X146216666Y-44237952D01*
X146169047Y-44285571D01*
X146073809Y-44333190D01*
X145692857Y-44333190D01*
X146740476Y-44809380D02*
X146930952Y-44809380D01*
X147026190Y-44761761D01*
X147073809Y-44714142D01*
X147169047Y-44571285D01*
X147216666Y-44380809D01*
X147216666Y-43999857D01*
X147169047Y-43904619D01*
X147121428Y-43857000D01*
X147026190Y-43809380D01*
X146835714Y-43809380D01*
X146740476Y-43857000D01*
X146692857Y-43904619D01*
X146645238Y-43999857D01*
X146645238Y-44237952D01*
X146692857Y-44333190D01*
X146740476Y-44380809D01*
X146835714Y-44428428D01*
X147026190Y-44428428D01*
X147121428Y-44380809D01*
X147169047Y-44333190D01*
X147216666Y-44237952D01*
X157011904Y-43809380D02*
X157583333Y-43809380D01*
X157297619Y-44809380D02*
X157297619Y-43809380D01*
X157916666Y-44809380D02*
X157916666Y-43809380D01*
X158297619Y-43809380D01*
X158392857Y-43857000D01*
X158440476Y-43904619D01*
X158488095Y-43999857D01*
X158488095Y-44142714D01*
X158440476Y-44237952D01*
X158392857Y-44285571D01*
X158297619Y-44333190D01*
X157916666Y-44333190D01*
X159440476Y-44809380D02*
X158869047Y-44809380D01*
X159154761Y-44809380D02*
X159154761Y-43809380D01*
X159059523Y-43952238D01*
X158964285Y-44047476D01*
X158869047Y-44095095D01*
X160059523Y-43809380D02*
X160154761Y-43809380D01*
X160250000Y-43857000D01*
X160297619Y-43904619D01*
X160345238Y-43999857D01*
X160392857Y-44190333D01*
X160392857Y-44428428D01*
X160345238Y-44618904D01*
X160297619Y-44714142D01*
X160250000Y-44761761D01*
X160154761Y-44809380D01*
X160059523Y-44809380D01*
X159964285Y-44761761D01*
X159916666Y-44714142D01*
X159869047Y-44618904D01*
X159821428Y-44428428D01*
X159821428Y-44190333D01*
X159869047Y-43999857D01*
X159916666Y-43904619D01*
X159964285Y-43857000D01*
X160059523Y-43809380D01*
X122721904Y-48889380D02*
X123293333Y-48889380D01*
X123007619Y-49889380D02*
X123007619Y-48889380D01*
X123626666Y-49889380D02*
X123626666Y-48889380D01*
X124007619Y-48889380D01*
X124102857Y-48937000D01*
X124150476Y-48984619D01*
X124198095Y-49079857D01*
X124198095Y-49222714D01*
X124150476Y-49317952D01*
X124102857Y-49365571D01*
X124007619Y-49413190D01*
X123626666Y-49413190D01*
X125150476Y-49889380D02*
X124579047Y-49889380D01*
X124864761Y-49889380D02*
X124864761Y-48889380D01*
X124769523Y-49032238D01*
X124674285Y-49127476D01*
X124579047Y-49175095D01*
X126102857Y-49889380D02*
X125531428Y-49889380D01*
X125817142Y-49889380D02*
X125817142Y-48889380D01*
X125721904Y-49032238D01*
X125626666Y-49127476D01*
X125531428Y-49175095D01*
X176061904Y-48889380D02*
X176633333Y-48889380D01*
X176347619Y-49889380D02*
X176347619Y-48889380D01*
X176966666Y-49889380D02*
X176966666Y-48889380D01*
X177347619Y-48889380D01*
X177442857Y-48937000D01*
X177490476Y-48984619D01*
X177538095Y-49079857D01*
X177538095Y-49222714D01*
X177490476Y-49317952D01*
X177442857Y-49365571D01*
X177347619Y-49413190D01*
X176966666Y-49413190D01*
X178490476Y-49889380D02*
X177919047Y-49889380D01*
X178204761Y-49889380D02*
X178204761Y-48889380D01*
X178109523Y-49032238D01*
X178014285Y-49127476D01*
X177919047Y-49175095D01*
X178871428Y-48984619D02*
X178919047Y-48937000D01*
X179014285Y-48889380D01*
X179252380Y-48889380D01*
X179347619Y-48937000D01*
X179395238Y-48984619D01*
X179442857Y-49079857D01*
X179442857Y-49175095D01*
X179395238Y-49317952D01*
X178823809Y-49889380D01*
X179442857Y-49889380D01*
M02*
